<svg width="391" height="384" viewBox="0 0 391 384" fill="none" xmlns="http://www.w3.org/2000/svg">
<circle cx="30.173" cy="158.173" r="30.173" fill="#F4F1DE"/>
<circle cx="30.2702" cy="158.27" r="26.0204" fill="#E2DFD1"/>
<path d="M34.3151 163.924C32.8442 163.924 31.2043 163.458 29.4524 162.203C23.5235 157.958 19.4997 161.966 19.3317 162.139C19.1193 162.357 18.7716 162.361 18.554 162.151C18.3362 161.939 18.3303 161.592 18.5405 161.374C18.5882 161.325 23.3753 156.497 30.0929 161.309C35.9881 165.531 40.3164 159.648 40.4979 159.395C40.6758 159.148 41.0199 159.093 41.2656 159.269C41.5125 159.446 41.5686 159.79 41.3914 160.037C41.3537 160.089 38.5333 163.924 34.3151 163.924Z" fill="#868D91"/>
<path d="M34.3146 160.457C32.8437 160.457 31.2038 159.992 29.4519 158.737C23.4987 154.473 19.4995 158.498 19.3323 158.671C19.121 158.89 18.7732 158.896 18.5543 158.685C18.3353 158.474 18.3294 158.126 18.54 157.907C18.5876 157.858 23.3748 153.031 30.0924 157.842C35.9869 162.063 40.3158 156.181 40.4974 155.928C40.6753 155.681 41.0194 155.626 41.2651 155.802C41.512 155.979 41.5681 156.323 41.3909 156.57C41.3532 156.623 38.5328 160.457 34.3146 160.457Z" fill="#868D91"/>
<path d="M34.3165 156.645C32.8456 156.645 31.2056 156.179 29.4538 154.924C23.5248 150.679 19.501 154.687 19.333 154.86C19.1206 155.077 18.7729 155.082 18.5554 154.871C18.3375 154.66 18.3316 154.313 18.5418 154.095C18.5895 154.045 23.3766 149.218 30.0942 154.03C35.9894 158.252 40.3177 152.368 40.4993 152.116C40.6772 151.869 41.0212 151.813 41.267 151.99C41.5138 152.167 41.57 152.511 41.3928 152.758C41.355 152.81 38.5347 156.644 34.3165 156.645Z" fill="#868D91"/>
<circle cx="93.173" cy="353.173" r="30.173" fill="#F4F1DE"/>
<circle cx="93.2702" cy="353.27" r="26.0204" fill="#E0DFD0"/>
<path d="M105.447 350.198L86.2765 342.221V341.241C86.2765 341.012 86.0692 340.826 85.8137 340.826C85.5583 340.826 85.3509 341.012 85.3509 341.241V342.485V356.174V357.419V365.3C85.3509 365.53 85.5583 365.715 85.8137 365.715C86.0692 365.715 86.2765 365.53 86.2765 365.3V357.701L105.421 350.96C105.594 350.9 105.709 350.752 105.715 350.587C105.72 350.421 105.615 350.268 105.447 350.198ZM86.2765 356.81V356.174V343.135L104.076 350.542L86.2765 356.81Z" fill="#868D91"/>
<circle cx="297.173" cy="353.173" r="30.173" fill="#F4F1DE"/>
<circle cx="297.02" cy="353.02" r="26.0204" fill="#E2DFD1"/>
<path d="M306.869 367.589H303.891L300.365 345.101H300.452C300.741 345.101 300.972 344.859 300.972 344.557V341.443C300.972 338.995 299.065 337 296.723 337C294.382 337 292.474 338.995 292.474 341.443V344.526C292.474 344.829 292.706 345.07 292.995 345.07H293.284L289.555 367.559H286.52V367.589C286.231 367.589 286 367.831 286 368.133C286 368.435 286.231 368.677 286.52 368.677H289.96H303.458H306.869C307.158 368.677 307.389 368.435 307.389 368.133C307.389 367.831 307.158 367.589 306.869 367.589ZM296.694 338.088C298.458 338.088 299.903 339.599 299.903 341.443V343.982H299.729H293.862H293.486V341.443H293.457C293.457 339.599 294.902 338.088 296.694 338.088ZM299.382 345.494C299.354 345.494 299.354 345.494 299.325 345.524L293.746 348.456L294.295 345.101H299.325L299.382 345.494ZM293.515 349.755L299.556 346.582L300.221 350.783L292.706 354.713L293.515 349.755ZM292.474 356.073L300.394 351.932L301.03 356.133L291.636 361.06L292.474 356.073ZM298.66 367.589H294.729V364.506C294.729 363.387 295.596 362.45 296.694 362.45C297.764 362.45 298.66 363.357 298.66 364.506V367.589ZM299.7 367.589V364.506C299.7 362.783 298.342 361.362 296.694 361.362C295.047 361.362 293.688 362.783 293.688 364.506V367.589H290.567L291.434 362.39L301.232 357.252L302.851 367.589H299.7Z" fill="#878D91"/>
<circle cx="360.173" cy="158.173" r="30.173" fill="#F4F1DE"/>
<circle cx="360.27" cy="158.27" r="26.0204" fill="#E0DFD0"/>
<path d="M360.72 150.981C362.264 151.182 363.757 151.856 365.038 152.928C365.132 153.006 365.239 153.044 365.345 153.044C365.518 153.044 365.689 152.942 365.795 152.753C365.964 152.449 365.9 152.034 365.652 151.826C364.223 150.63 362.557 149.879 360.835 149.654C360.536 149.616 360.268 149.881 360.236 150.247C360.204 150.614 360.421 150.942 360.72 150.981Z" fill="#868D91"/>
<path d="M359.667 147.394C359.98 147.394 360.233 147.139 360.233 146.825V144.569C360.233 144.255 359.98 144 359.667 144C359.355 144 359.102 144.255 359.102 144.569V146.825C359.102 147.139 359.355 147.394 359.667 147.394Z" fill="#868D91"/>
<path d="M352.384 149.344C352.49 149.545 352.681 149.657 352.877 149.657C352.974 149.657 353.071 149.63 353.161 149.573C353.433 149.4 353.526 149.018 353.369 148.719L352.243 146.575C352.086 146.276 351.738 146.174 351.467 146.346C351.195 146.519 351.102 146.901 351.259 147.2L352.384 149.344Z" fill="#868D91"/>
<path d="M345.838 152.975L347.982 154.101C348.081 154.152 348.188 154.177 348.294 154.177C348.51 154.177 348.72 154.075 348.836 153.892C349.009 153.621 348.906 153.273 348.607 153.116L346.463 151.99C346.164 151.833 345.782 151.926 345.61 152.198C345.437 152.47 345.539 152.818 345.838 152.975Z" fill="#868D91"/>
<path d="M372.677 160.405C372.677 160.717 372.932 160.97 373.247 160.97H375.502C375.816 160.97 376.071 160.717 376.071 160.405C376.071 160.092 375.816 159.839 375.502 159.839H373.247C372.932 159.839 372.677 160.092 372.677 160.405Z" fill="#868D91"/>
<path d="M343.832 160.97H346.088C346.402 160.97 346.657 160.717 346.657 160.405C346.657 160.092 346.402 159.839 346.088 159.839H343.832C343.518 159.839 343.263 160.092 343.263 160.405C343.263 160.717 343.518 160.97 343.832 160.97Z" fill="#868D91"/>
<path d="M371.041 154.177C371.147 154.177 371.254 154.152 371.353 154.101L373.497 152.975C373.795 152.818 373.898 152.47 373.725 152.198C373.553 151.926 373.171 151.833 372.872 151.99L370.728 153.116C370.429 153.273 370.326 153.621 370.499 153.892C370.615 154.075 370.825 154.177 371.041 154.177Z" fill="#868D91"/>
<path d="M366.173 149.573C366.263 149.63 366.361 149.657 366.457 149.657C366.654 149.657 366.845 149.545 366.95 149.344L368.076 147.2C368.233 146.901 368.139 146.519 367.868 146.346C367.596 146.174 367.248 146.276 367.091 146.575L365.966 148.719C365.809 149.018 365.902 149.4 366.173 149.573Z" fill="#868D91"/>
<path d="M355.149 165.49H346.085C345.776 165.49 345.526 165.744 345.526 166.056C345.526 166.368 345.776 166.622 346.085 166.622H355.149C355.457 166.622 355.708 166.368 355.708 166.056C355.708 165.744 355.457 165.49 355.149 165.49Z" fill="#868D91"/>
<path d="M368.759 167.753H363.021C362.731 167.753 362.496 168.006 362.496 168.319C362.496 168.631 362.731 168.884 363.021 168.884H368.759C369.049 168.884 369.284 168.631 369.284 168.319C369.284 168.006 369.049 167.753 368.759 167.753Z" fill="#868D91"/>
<path d="M372.051 170.014H369.91C369.564 170.014 369.283 170.267 369.283 170.579C369.283 170.892 369.564 171.145 369.91 171.145H372.051C372.397 171.145 372.677 170.892 372.677 170.579C372.677 170.267 372.397 170.014 372.051 170.014Z" fill="#868D91"/>
<path d="M377.783 163.224H369.883C370.078 162.382 370.178 161.517 370.178 160.642C370.178 157.9 369.199 155.27 367.42 153.237C367.216 153.004 366.868 152.986 366.642 153.197C366.416 153.408 366.398 153.768 366.603 154.002C368.197 155.824 369.076 158.183 369.076 160.642C369.076 161.519 368.965 162.386 368.747 163.224H355.128C354.823 163.224 354.576 163.479 354.576 163.793C354.576 164.108 354.823 164.363 355.128 164.363H377.783C378.087 164.363 378.334 164.108 378.334 163.793C378.334 163.479 378.087 163.224 377.783 163.224Z" fill="#868D91"/>
<path d="M353.561 163.787C353.561 163.471 353.313 163.216 353.008 163.216H350.573C350.354 162.377 350.241 161.508 350.241 160.63C350.241 155.658 353.843 151.426 358.619 150.787C358.922 150.747 359.136 150.46 359.096 150.148C359.057 149.835 358.78 149.615 358.476 149.655C353.15 150.368 349.134 155.086 349.134 160.63C349.134 161.505 349.234 162.372 349.43 163.216H341.554C341.248 163.216 341 163.471 341 163.787C341 164.102 341.248 164.358 341.554 164.358H353.008C353.313 164.358 353.561 164.102 353.561 163.787Z" fill="#868D91"/>
<circle cx="195.5" cy="37.5" r="37.5" fill="#F4F1DE"/>
<circle cx="195.31" cy="37.3107" r="32.3391" fill="#A28AD4"/>
<path d="M193.942 34.7089C194.247 39.0982 197.404 42.4199 201.098 42.2396C204.793 42.059 207.711 38.4406 207.713 34.0361C207.713 34.0317 207.713 34.0277 207.713 34.023L207.683 32.1319C207.676 28.1136 204.941 24.8598 201.567 24.8564H184.021C180.647 24.8601 177.913 28.1149 177.907 32.1336L177.885 34.0297V34.0395C177.888 38.5738 180.971 42.2494 184.778 42.2561C188.386 42.2561 191.355 38.9314 191.649 34.7095L193.942 34.7089ZM190.515 34.0257C190.52 37.8038 187.952 40.8709 184.78 40.8763C181.608 40.8817 179.033 37.823 179.029 34.0445L179.042 32.146V32.1359C179.042 28.8792 181.287 26.2342 184.021 26.2342H201.567C204.304 26.2366 206.523 28.8781 206.526 32.1386V32.1504L206.557 34.0435C206.56 36.4916 205.464 38.7548 203.683 39.9775C201.902 41.2002 199.709 41.1959 197.932 39.9657C196.155 38.7359 195.065 36.4681 195.075 34.02C195.075 33.8319 195.014 33.651 194.905 33.5151C194.799 33.3809 194.652 33.3021 194.497 33.2954L191.094 33.3143C190.771 33.325 190.514 33.6409 190.515 34.0257Z" fill="#F4F1DE"/>
<path d="M213.306 18.6426H208.645C208.302 18.6426 208.024 18.9267 208.024 19.2772C208.024 19.6277 208.302 19.9119 208.645 19.9119H210.432V46.8046C210.432 51.1352 207.005 54.6583 202.764 54.6583H201.754C197.75 54.6533 194.418 51.5148 194.089 47.4393H195.906C196.25 47.4393 196.528 47.1551 196.528 46.8046V42.8382C196.528 42.4877 196.25 42.2035 195.906 42.2035H190.935C190.592 42.2035 190.314 42.4877 190.314 42.8382V46.8046C190.314 47.1551 190.592 47.4393 190.935 47.4393H192.844C193.175 52.217 197.064 55.9217 201.754 55.9276H202.764C207.69 55.9276 211.675 51.8349 211.675 46.8046V19.9119H213.306C213.649 19.9119 213.927 19.6277 213.927 19.2772C213.927 18.9267 213.649 18.6426 213.306 18.6426ZM191.556 43.4728H195.285V46.17H191.556V43.4728Z" fill="#F4F1DE"/>
</svg>
