<svg width="72" height="71" viewBox="0 0 72 71" fill="none" xmlns="http://www.w3.org/2000/svg">
<path d="M66.1324 27.8582C67.4307 26.5861 67.8891 24.7191 67.3289 22.9858C66.7686 21.2525 65.3059 20.0131 63.5116 19.7511L47.8219 17.4595C47.5139 17.4146 47.2477 17.2202 47.1099 16.9395L40.0933 2.64953C39.2909 1.01522 37.6661 0 35.8529 0C34.0396 0 32.4148 1.01522 31.6124 2.64953L24.5958 16.9397C24.4579 17.2202 24.1918 17.4146 23.8837 17.4597L8.19424 19.7511C6.39993 20.0131 4.9374 21.2525 4.37692 22.9858C3.81644 24.7191 4.27496 26.5861 5.5735 27.8582L16.9266 38.9815C17.1494 39.1999 17.2512 39.5146 17.1986 39.823L14.5184 55.5293C14.212 57.3256 14.9327 59.1067 16.3996 60.178C17.8665 61.2495 19.7751 61.3879 21.3797 60.54L35.4128 53.1245C35.6884 52.9788 36.0174 52.9788 36.2932 53.1245L50.3264 60.54C51.0244 60.9088 51.7797 61.0911 52.5313 61.091C53.5075 61.091 54.4774 60.7835 55.3061 60.1778C56.773 59.1064 57.4938 57.3252 57.1873 55.5291L54.5071 39.8228C54.4546 39.5144 54.5563 39.1998 54.7791 38.9813L66.1324 27.8582ZM50.7789 40.4659L53.459 56.1724C53.5486 56.698 53.2258 56.9977 53.0828 57.1021C52.9397 57.2062 52.5563 57.4226 52.0868 57.1743L38.0536 49.7588C37.3647 49.3949 36.609 49.2127 35.8531 49.2127C35.0973 49.2127 34.3414 49.3949 33.6527 49.7586L19.6196 57.174C19.1499 57.4222 18.7666 57.2061 18.6236 57.1018C18.4806 56.9975 18.1576 56.6978 18.2474 56.1721L20.9275 40.4659C21.1907 38.9238 20.6824 37.3511 19.5675 36.2589L8.21441 25.1356C7.83446 24.7631 7.92045 24.33 7.9752 24.161C8.02968 23.992 8.21357 23.5907 8.73861 23.5141L24.4279 21.2225C25.9683 20.9976 27.2995 20.0257 27.9885 18.6224L35.0051 4.33226C35.24 3.85407 35.6764 3.80241 35.8533 3.80241C36.0299 3.80241 36.4663 3.85393 36.7013 4.33226V4.3324L43.7179 18.6226C44.4068 20.0259 45.7378 20.9977 47.2782 21.2227L62.9678 23.5142C63.4928 23.5908 63.6766 23.9921 63.7312 24.1612C63.7858 24.3303 63.872 24.7635 63.4919 25.1357L52.1388 36.259C51.024 37.3511 50.5157 38.9238 50.7789 40.4659Z" fill="#2C3B51"/>
<path d="M57.95 2.64834C57.1047 2.03122 55.922 2.21956 55.308 3.06895L53.3001 5.84658C52.6861 6.69597 52.8734 7.88503 53.7186 8.50216C54.0545 8.74723 54.4435 8.86534 54.8289 8.86534C55.4139 8.86534 55.9906 8.59351 56.3606 8.08168L58.3685 5.30406C58.9825 4.45453 58.7952 3.26546 57.95 2.64834Z" fill="#2C3B51"/>
<path d="M18.3968 5.83661L16.3889 3.05899C15.775 2.20988 14.5922 2.02153 13.7468 2.63837C12.9018 3.2555 12.7144 4.44456 13.3284 5.29395L15.3363 8.07158C15.7064 8.58383 16.2831 8.85551 16.8683 8.85551C17.2538 8.85551 17.6429 8.73741 17.9784 8.49219C18.8235 7.8752 19.0109 6.68614 18.3968 5.83661Z" fill="#2C3B51"/>
<path d="M6.93969 42.654C6.61688 41.6555 5.54984 41.1089 4.55619 41.4334L1.30747 42.4945C0.313822 42.819 -0.229709 43.8918 0.0931045 44.8902C0.352756 45.6939 1.09432 46.2046 1.89162 46.2046C2.08531 46.2046 2.28235 46.1743 2.4766 46.1108L5.72533 45.0497C6.71884 44.7252 7.26251 43.6527 6.93969 42.654Z" fill="#2C3B51"/>
<path d="M35.8532 63.7637C34.8085 63.7637 33.9617 64.6149 33.9617 65.6649V69.0985C33.9617 70.1485 34.8085 70.9997 35.8532 70.9997C36.8978 70.9997 37.7447 70.1485 37.7447 69.0985V65.6649C37.7447 64.6147 36.8979 63.7637 35.8532 63.7637Z" fill="#2C3B51"/>
<path d="M70.3977 42.4983L67.149 41.4372C66.1557 41.113 65.0883 41.6592 64.7655 42.6579C64.4427 43.6567 64.9862 44.7292 65.9798 45.0537L69.2286 46.1148C69.4228 46.1781 69.6197 46.2082 69.8134 46.2082C70.6108 46.2082 71.3524 45.6974 71.6121 44.8939C71.9349 43.8953 71.3912 42.8228 70.3977 42.4983Z" fill="#2C3B51"/>
</svg>
