<svg width="303" height="294" viewBox="0 0 303 294" fill="none" xmlns="http://www.w3.org/2000/svg">
<circle cx="28" cy="124" r="23" fill="#F4F1DE" stroke="#F4F1DE" stroke-width="10"/>
<circle cx="275" cy="123" r="23" fill="#F4F1DE" stroke="#F4F1DE" stroke-width="10"/>
<circle cx="28" cy="124" r="23" fill="#E2DFD1"/>
<path d="M31.5753 129C30.2751 129 28.8255 128.588 27.2771 127.479C22.0363 123.726 18.4796 127.269 18.3311 127.422C18.1434 127.614 17.836 127.618 17.6437 127.432C17.4512 127.245 17.446 126.939 17.6318 126.746C17.6739 126.702 21.9053 122.435 27.8432 126.688C33.0541 130.42 36.8799 125.22 37.0404 124.996C37.1976 124.778 37.5018 124.729 37.719 124.885C37.9372 125.042 37.9868 125.346 37.8302 125.564C37.7968 125.61 35.3038 128.999 31.5753 129Z" fill="#2C3B51" fill-opacity="0.5"/>
<path d="M31.5748 125.939C30.2746 125.939 28.825 125.527 27.2766 124.418C22.0144 120.649 18.4794 124.207 18.3316 124.36C18.1448 124.554 17.8375 124.559 17.6439 124.373C17.4503 124.186 17.4451 123.878 17.6312 123.685C17.6734 123.641 21.9048 119.375 27.8426 123.627C33.0529 127.358 36.8794 122.159 37.0399 121.936C37.1971 121.717 37.5012 121.669 37.7185 121.824C37.9367 121.981 37.9863 122.285 37.8297 122.503C37.7963 122.55 35.3033 125.939 31.5748 125.939Z" fill="#2C3B51" fill-opacity="0.5"/>
<path d="M31.577 122.571C30.2769 122.571 28.8273 122.159 27.2788 121.05C22.038 117.297 18.4813 120.84 18.3328 120.994C18.1451 121.185 17.8377 121.19 17.6455 121.003C17.4529 120.817 17.4477 120.51 17.6335 120.317C17.6756 120.273 21.907 116.007 27.8449 120.259C33.0558 123.992 36.8816 118.791 37.0421 118.568C37.1993 118.349 37.5035 118.3 37.7207 118.456C37.9389 118.613 37.9885 118.917 37.8319 119.135C37.7985 119.182 35.3056 122.571 31.577 122.571Z" fill="#2C3B51" fill-opacity="0.5"/>
<circle cx="79" cy="265.416" r="23" fill="#F4F1DE" stroke="#F4F1DE" stroke-width="10"/>
<circle cx="79" cy="265.416" r="23" fill="#E0DFD0"/>
<path d="M89.763 262.7L72.8182 255.649V254.783C72.8182 254.58 72.6349 254.416 72.4091 254.416C72.1833 254.416 72 254.58 72 254.783V255.883V267.983V269.083V276.049C72 276.252 72.1833 276.416 72.4091 276.416C72.6349 276.416 72.8182 276.252 72.8182 276.049V269.332L89.7405 263.374C89.893 263.32 89.9949 263.19 89.9998 263.044C90.0047 262.897 89.9115 262.762 89.763 262.7ZM72.8182 268.545V267.983V256.457L88.5516 263.004L72.8182 268.545Z" fill="#868D91"/>
<circle cx="236" cy="265" r="23" fill="#F4F1DE" stroke="#F4F1DE" stroke-width="10"/>
<circle cx="236" cy="265" r="23" fill="#E2DFD1"/>
<path d="M245.446 278.038H242.815L239.698 258.16H239.774C240.03 258.16 240.234 257.947 240.234 257.679V254.927C240.234 252.763 238.548 251 236.479 251C234.409 251 232.723 252.763 232.723 254.927V257.653C232.723 257.92 232.927 258.134 233.183 258.134H233.438L230.142 278.011H227.46V278.038C227.204 278.038 227 278.252 227 278.519C227 278.786 227.204 279 227.46 279H230.5H242.431H245.446C245.702 279 245.906 278.786 245.906 278.519C245.906 278.252 245.702 278.038 245.446 278.038ZM236.453 251.962C238.011 251.962 239.289 253.298 239.289 254.927V257.172H239.136H233.949H233.617V254.927H233.592C233.592 253.298 234.869 251.962 236.453 251.962ZM238.829 258.508C238.803 258.508 238.803 258.508 238.778 258.534L233.847 261.126L234.332 258.16H238.778L238.829 258.508ZM233.643 262.275L238.982 259.469L239.57 263.183L232.927 266.656L233.643 262.275ZM232.723 267.859L239.723 264.198L240.285 267.912L231.982 272.267L232.723 267.859ZM238.19 278.038H234.716V275.313C234.716 274.324 235.482 273.496 236.453 273.496C237.398 273.496 238.19 274.298 238.19 275.313V278.038V278.038ZM239.11 278.038V275.313C239.11 273.79 237.909 272.534 236.453 272.534C234.997 272.534 233.796 273.79 233.796 275.313V278.038H231.037L231.803 273.443L240.464 268.901L241.895 278.038H239.11Z" fill="#878D91"/>
<circle cx="275" cy="123" r="23" fill="#E0DFD0"/>
<path d="M276.431 117.175C277.795 117.353 279.115 117.948 280.248 118.896C280.331 118.966 280.425 118.999 280.519 118.999C280.672 118.999 280.823 118.909 280.916 118.742C281.066 118.473 281.01 118.106 280.79 117.922C279.527 116.864 278.054 116.201 276.532 116.002C276.268 115.968 276.031 116.203 276.003 116.527C275.975 116.85 276.166 117.141 276.431 117.175Z" fill="#868D91"/>
<path d="M275.5 114C275.776 114 276 113.775 276 113.497V111.503C276 111.225 275.776 111 275.5 111C275.224 111 275 111.225 275 111.503V113.497C275 113.775 275.224 114 275.5 114Z" fill="#868D91"/>
<path d="M269.063 115.724C269.156 115.901 269.325 116 269.498 116C269.584 116 269.67 115.976 269.749 115.926C269.989 115.773 270.072 115.435 269.933 115.171L268.938 113.276C268.799 113.012 268.492 112.922 268.252 113.074C268.011 113.227 267.929 113.564 268.068 113.829L269.063 115.724Z" fill="#868D91"/>
<path d="M263.277 118.938L265.172 119.933C265.259 119.978 265.354 120 265.447 120C265.638 120 265.824 119.91 265.926 119.749C266.079 119.509 265.988 119.201 265.724 119.062L263.829 118.067C263.565 117.929 263.227 118.011 263.074 118.251C262.922 118.492 263.012 118.799 263.277 118.938Z" fill="#868D91"/>
<path d="M287 125.5C287 125.776 287.225 126 287.503 126H289.497C289.775 126 290 125.776 290 125.5C290 125.224 289.775 125 289.497 125H287.503C287.225 125 287 125.224 287 125.5Z" fill="#868D91"/>
<path d="M261.503 126H263.497C263.775 126 264 125.776 264 125.5C264 125.224 263.775 125 263.497 125H261.503C261.226 125 261 125.224 261 125.5C261 125.776 261.226 126 261.503 126Z" fill="#868D91"/>
<path d="M285.554 120C285.647 120 285.742 119.978 285.829 119.933L287.724 118.938C287.989 118.799 288.079 118.492 287.926 118.251C287.774 118.011 287.436 117.929 287.172 118.067L285.277 119.062C285.013 119.201 284.922 119.509 285.075 119.749C285.177 119.91 285.363 120 285.554 120Z" fill="#868D91"/>
<path d="M281.251 115.926C281.331 115.976 281.417 116 281.502 116C281.676 116 281.845 115.901 281.938 115.724L282.933 113.829C283.072 113.565 282.989 113.227 282.749 113.074C282.509 112.922 282.202 113.012 282.063 113.276L281.068 115.171C280.929 115.436 281.011 115.773 281.251 115.926V115.926Z" fill="#868D91"/>
<path d="M271.506 130H263.494C263.221 130 263 130.224 263 130.5C263 130.776 263.221 131 263.494 131H271.506C271.779 131 272 130.776 272 130.5C272 130.224 271.779 130 271.506 130Z" fill="#868D91"/>
<path d="M283.536 132H278.465C278.208 132 278 132.224 278 132.5C278 132.776 278.208 133 278.465 133H283.536C283.792 133 284 132.776 284 132.5C284 132.224 283.793 132 283.536 132Z" fill="#868D91"/>
<path d="M286.446 133.999H284.554C284.248 133.999 284 134.223 284 134.499C284 134.775 284.248 134.999 284.554 134.999H286.446C286.752 134.999 287 134.775 287 134.499C287 134.223 286.752 133.999 286.446 133.999Z" fill="#868D91"/>
<path d="M291.513 127.992H284.53C284.703 127.248 284.791 126.483 284.791 125.71C284.791 123.286 283.925 120.962 282.353 119.165C282.173 118.959 281.865 118.943 281.665 119.129C281.465 119.316 281.45 119.634 281.63 119.84C283.04 121.452 283.816 123.536 283.816 125.71C283.816 126.485 283.719 127.251 283.526 127.992H271.487C271.218 127.992 271 128.218 271 128.496C271 128.774 271.218 128.999 271.487 128.999H291.513C291.782 128.999 292 128.774 292 128.496C292 128.218 291.782 127.992 291.513 127.992Z" fill="#868D91"/>
<path d="M270.103 128.495C270.103 128.216 269.884 127.99 269.614 127.99H267.462C267.268 127.248 267.169 126.48 267.169 125.704C267.169 121.309 270.352 117.569 274.574 117.004C274.842 116.968 275.031 116.715 274.996 116.439C274.961 116.162 274.716 115.968 274.448 116.003C269.74 116.633 266.19 120.804 266.19 125.704C266.19 126.477 266.278 127.244 266.451 127.99H259.489C259.219 127.99 259 128.216 259 128.495C259 128.773 259.219 128.999 259.489 128.999H269.614C269.884 128.999 270.103 128.773 270.103 128.495Z" fill="#868D91"/>
<path d="M189 34.5C189 50.7924 175.792 64 159.5 64C143.208 64 130 50.7924 130 34.5C130 18.2076 143.208 5 159.5 5C175.792 5 189 18.2076 189 34.5Z" fill="#F4F1DE"/>
<path d="M189 34.5C189 50.7924 175.792 64 159.5 64C143.208 64 130 50.7924 130 34.5C130 18.2076 143.208 5 159.5 5C175.792 5 189 18.2076 189 34.5Z" stroke="#F4F1DE" stroke-width="10"/>
<path d="M189 34.5C189 50.7924 175.792 64 159.5 64C143.208 64 130 50.7924 130 34.5C130 18.2076 143.208 5 159.5 5C175.792 5 189 18.2076 189 34.5Z" fill="#A28AD4"/>
<path d="M158.086 32.0898C158.373 36.2878 161.339 39.4647 164.81 39.2923C168.281 39.1195 171.023 35.6589 171.025 31.4464C171.025 31.4422 171.025 31.4384 171.025 31.4339L170.996 29.6252C170.99 25.7821 168.42 22.6702 165.251 22.667H148.765C145.595 22.6705 143.026 25.7834 143.02 29.6268L143 31.4403V31.4496C143.002 35.7863 145.899 39.3016 149.476 39.308C152.866 39.308 155.656 36.1283 155.932 32.0905L158.086 32.0898ZM154.867 31.4365C154.871 35.0499 152.458 37.9832 149.478 37.9884C146.498 37.9935 144.079 35.0682 144.075 31.4545L144.087 29.6387V29.6291C144.087 26.5143 146.196 23.9847 148.765 23.9847H165.251C167.822 23.987 169.907 26.5133 169.91 29.6317V29.6429L169.939 31.4535C169.941 33.7949 168.911 35.9594 167.238 37.1288C165.565 38.2982 163.504 38.294 161.835 37.1175C160.165 35.9413 159.141 33.7724 159.15 31.431C159.151 31.2511 159.094 31.0781 158.991 30.9481C158.891 30.8197 158.753 30.7445 158.607 30.738L155.41 30.756C155.106 30.7663 154.865 31.0684 154.867 31.4365Z" fill="white"/>
<path d="M176.142 17H171.8C171.48 17 171.221 17.2744 171.221 17.6128C171.221 17.9512 171.48 18.2255 171.8 18.2255H173.464V44.1915C173.464 48.3728 170.271 51.7745 166.32 51.7745H165.379C161.649 51.7697 158.545 48.7394 158.238 44.8043H159.931C160.251 44.8043 160.51 44.5299 160.51 44.1915V40.3617C160.51 40.0233 160.251 39.7489 159.931 39.7489H155.3C154.98 39.7489 154.721 40.0233 154.721 40.3617V44.1915C154.721 44.5299 154.98 44.8043 155.3 44.8043H157.078C157.387 49.4174 161.01 52.9943 165.379 53H166.32C170.909 53 174.622 49.0484 174.622 44.1915V18.2255H176.142C176.461 18.2255 176.721 17.9512 176.721 17.6128C176.721 17.2744 176.461 17 176.142 17ZM155.879 40.9745H159.352V43.5787H155.879V40.9745Z" fill="white"/>
</svg>
