<svg width="405" height="390" viewBox="0 0 405 390" fill="none" xmlns="http://www.w3.org/2000/svg">
<path d="M113.092 264.173C141.869 273.063 207.428 280.687 239.459 240.064C279.497 189.285 224.873 149.624 214.763 150.528C230.725 147.013 255.979 148.881 277.369 178.414C290.662 197.135 314.683 240.495 304.418 264.173" stroke="#2C3B51" stroke-width="0.8"/>
<path d="M167.106 240.256C178.528 236.799 202.513 224.296 207.081 201.934" stroke="#2C3B51" stroke-width="0.8"/>
<path d="M182.435 239.203C192.404 236.047 212.973 221.109 215.497 186.604" stroke="#2C3B51" stroke-width="0.8"/>
<path d="M211.139 189.46C215.197 179.942 218.353 152.49 195.059 140.167" stroke="#2C3B51" stroke-width="0.8"/>
<path d="M213.244 226.13C219.606 217.564 230.045 193.879 220.908 167.67" stroke="#2C3B51" stroke-width="0.8"/>
<path d="M227.069 217.112C230.726 213.305 237.048 202.174 233.081 188.107" stroke="#2C3B51" stroke-width="0.8"/>
<path d="M243.311 156.788C248.321 158.642 261.961 165.39 267.852 176.571" stroke="#2C3B51" stroke-width="0.8"/>
<path d="M167.707 276.625C183.838 277.377 219.585 275.513 233.531 262.048" stroke="#2C3B51" stroke-width="0.8"/>
<path d="M150.575 281.886C175.823 286.044 230.977 287.236 249.612 258.742" stroke="#2C3B51" stroke-width="0.8"/>
<path d="M209.636 290C229.072 287.295 269.839 272.537 277.414 235.146" stroke="#2C3B51" stroke-width="0.8"/>
<path d="M59.8033 254.983C63.4101 256.987 76.6651 261.987 100.831 265.954" stroke="#2C3B51" stroke-width="0.8"/>
<path d="M218.913 161.887C218.571 162.154 218.461 162.271 218.629 162.682C218.735 162.943 219.021 162.906 219.219 162.807C219.599 162.617 219.615 162.212 219.271 161.944C219.006 161.738 218.72 162.463 218.72 162.648C218.72 163.063 219.117 162.534 219.117 162.296" stroke="#2C3B51" stroke-width="0.8" stroke-linecap="round" stroke-linejoin="round"/>
<path d="M206.257 233.425C206.166 233.535 206.016 233.519 205.913 233.443C205.876 233.435 205.84 233.424 205.808 233.415C205.667 233.375 205.621 233.119 205.748 233.032C205.787 233.006 205.835 232.996 205.886 232.999C205.907 232.979 205.941 232.966 205.986 232.966C206.105 232.966 206.136 233.03 206.211 233.116C206.214 233.119 206.216 233.122 206.219 233.126C206.327 233.203 206.358 233.304 206.257 233.425Z" fill="#F4F1DE"/>
<path d="M205.838 233.116C205.681 233.38 206.08 233.638 206.257 233.425C206.363 233.299 206.324 233.194 206.204 233.116C206.095 233.044 205.875 232.945 205.748 233.032C205.621 233.119 205.667 233.375 205.808 233.415C205.892 233.439 206.003 233.475 206.089 233.428C206.178 233.381 206.299 233.216 206.211 233.116C206.136 233.03 206.105 232.966 205.986 232.966C205.825 232.966 205.817 233.129 205.958 233.176" stroke="#2C3B51" stroke-width="0.8" stroke-linecap="round" stroke-linejoin="round"/>
<path d="M260.4 249.864C260.385 249.857 260.37 249.85 260.355 249.842C260.34 249.841 260.325 249.84 260.308 249.838C259.621 249.77 259.728 249.043 260.145 248.856C260.305 248.784 260.511 248.792 260.736 248.947C260.914 249.071 261.262 249.433 261.056 249.676C260.912 249.847 260.61 249.957 260.4 249.864Z" fill="#F4F1DE"/>
<path d="M260.172 248.715C260.103 249.104 259.934 249.659 260.4 249.864C260.61 249.957 260.912 249.847 261.056 249.676C261.262 249.433 260.914 249.071 260.736 248.947C259.927 248.387 259.357 249.743 260.308 249.838C261.171 249.925 260.654 249.007 260.371 249.164C260.097 249.316 260.167 249.712 260.504 249.562C260.653 249.496 260.716 249.385 260.57 249.312" stroke="#2C3B51" stroke-width="0.8" stroke-linecap="round" stroke-linejoin="round"/>
<path d="M58 227.63C89.1588 238.852 158.63 253.569 187.244 222.671C215.858 191.773 208.785 165.012 201.671 155.494C200.269 151.687 193.706 143.441 178.678 140.917C159.892 137.761 230.676 118.675 298.003 171.725C309.45 180.455 335.136 215.502 341.777 260.181" stroke="#2C3B51" stroke-width="0.8"/>
<path d="M275.739 203.248C275.827 203.377 275.813 203.512 275.745 203.635C275.751 203.672 275.755 203.719 275.755 203.779C275.755 204.227 275.199 204.024 275.019 203.744C274.749 203.324 275.515 202.922 275.739 203.248Z" fill="#F4F1DE"/>
<path d="M275.259 203.248C275.15 203.41 275.015 203.579 275.196 203.74C275.312 203.843 275.486 203.934 275.613 203.807C275.774 203.646 275.87 203.439 275.739 203.248C275.515 202.922 274.749 203.324 275.019 203.744C275.199 204.024 275.755 204.227 275.755 203.779C275.755 203.27 275.512 203.683 275.471 203.602" stroke="#2C3B51" stroke-width="0.8" stroke-linecap="round" stroke-linejoin="round"/>
<path d="M163.811 168.989C166.732 168.464 168.138 167.435 169.865 165.097C169.967 164.957 170.123 164.49 170.042 164.313C169.987 164.192 170.065 163.97 170.065 163.831V162.69C170.065 162.365 170.012 162.067 170.055 161.741C170.096 161.43 170.09 161.112 170.113 160.8C170.132 160.552 170.164 160.363 170.121 160.108C170.092 159.932 170.045 159.561 169.882 159.458C169.558 159.253 169.261 158.958 168.939 158.735C168.492 158.426 167.956 158.086 167.625 157.647C167.306 157.224 167.232 156.703 167.166 156.191C167.119 155.825 167.306 155.191 167.579 154.931C167.838 154.684 168.061 154.487 168.452 154.492C168.904 154.497 169.5 154.718 169.855 154.994C170.151 155.225 170.451 155.441 170.74 155.684C170.919 155.835 171.4 156.266 171.626 156.342C171.665 155.467 172.074 154.773 172.38 153.98C172.625 153.348 173.019 152.861 173.346 152.28C173.447 152.1 173.574 151.927 173.698 151.76C173.883 151.514 174.033 151.64 174.311 151.687C175.293 151.854 176.464 151.769 177.319 151.222C178.133 150.7 178.881 150.148 179.651 149.57C180.149 149.197 180.375 149.267 180.935 149.507C182.281 150.084 182.022 151.667 182.385 152.848C182.7 153.871 182.717 155.01 182.895 156.077C183.193 157.864 183.123 159.78 183.091 161.594C183.081 162.156 182.827 163.203 182.434 163.652C182.28 163.828 182.142 164.042 181.988 164.23C181.84 164.411 181.543 164.424 181.347 164.543C180.496 165.06 179.723 165.151 178.804 165.381C177.977 166.608 179.166 170.532 180.454 171.328C181.139 171.752 181.919 173.068 182.434 173.704C183.066 174.486 183.851 175.234 184.743 175.753C186.204 176.603 188.469 178.566 189.105 180.141C190.251 182.974 192.354 185.666 193.339 188.59C195.167 194.013 199.295 198.473 201.973 203.241C203.372 205.733 206.2 208.09 208.094 210.276C209.689 212.116 211.331 214.012 213.942 214.012C215.377 214.012 220.982 216.197 217.919 217.928C217.42 218.21 217.348 218.737 216.746 218.907C216.193 219.064 215.606 219.235 215.096 219.488C213.931 220.064 212.218 219.889 210.991 219.542C209.665 219.167 207.92 217.287 206.775 216.478C204.978 215.208 203.145 213.937 201.423 212.543C199.442 210.939 197.886 208.657 196.364 206.65C195.096 204.978 193.355 203.287 192.331 201.464C190.999 199.091 189.87 196.57 188.391 194.284C187.235 192.498 186.665 190.411 185.33 188.699C184.551 187.7 183.63 186.739 182.507 186.088C181.851 185.708 180.499 187.869 180.069 188.264C177.182 190.916 174.353 193.569 171.069 195.734C169.172 196.986 165.441 200.145 164.929 202.425C164.393 204.811 164.288 206.907 164.288 209.442V215.97C164.288 217.227 163.897 219.009 163.463 220.213C162.938 221.666 163.736 223.052 163.371 224.456C162.698 225.189 162.921 224.968 161.153 225.108C160.277 224.723 158.701 224.76 158.02 224.087C156.906 223.867 154.383 222.472 153.342 221.442C152.886 220.992 153.24 220.718 153.052 220.068C152.765 219.076 151.545 217.995 151.421 216.949C151.228 215.329 150.194 215.771 149.276 216.478C147.704 217.687 146.569 219.215 145.152 220.539C142.933 222.612 136.557 214.96 135.089 213.83C133.47 212.584 131.448 211.374 133.77 209.587C137.109 207.018 138.932 202.41 142.659 200.304C145.233 198.849 146.968 194.981 148.286 192.634C149.528 190.423 149.757 187.946 150.504 185.544C151.165 183.418 151.421 180.652 151.421 178.436C151.421 175.661 154.656 171.787 157.506 171.274C159.635 170.891 161.612 169.385 163.811 168.989Z" fill="#F4F1DE"/>
<path d="M169.896 165.055C168.155 167.423 166.749 168.461 163.811 168.989C161.612 169.385 159.635 170.891 157.506 171.274C154.656 171.787 151.421 175.661 151.421 178.436C151.421 180.652 151.165 183.418 150.504 185.544C149.757 187.946 149.528 190.423 148.286 192.634C146.968 194.981 145.233 198.849 142.659 200.304C138.932 202.41 137.109 207.018 133.77 209.587C131.448 211.374 133.47 212.584 135.089 213.83C136.557 214.96 142.933 222.612 145.152 220.539C146.569 219.215 147.704 217.687 149.276 216.478C150.194 215.771 151.228 215.329 151.421 216.949C151.545 217.995 152.765 219.076 153.052 220.068C153.24 220.718 152.886 220.992 153.342 221.442C154.383 222.472 156.906 223.867 158.02 224.087C158.701 224.76 160.277 224.723 161.153 225.108C162.921 224.968 162.698 225.189 163.371 224.456C163.736 223.052 162.938 221.666 163.463 220.213C163.897 219.009 164.288 217.227 164.288 215.97V209.442C164.288 206.907 164.393 204.811 164.929 202.425C165.441 200.145 169.172 196.986 171.069 195.734C174.353 193.569 177.182 190.916 180.069 188.264C180.499 187.869 181.851 185.708 182.507 186.088C183.63 186.739 184.551 187.7 185.33 188.699C186.665 190.411 187.235 192.498 188.391 194.284C189.87 196.57 190.999 199.091 192.331 201.464C193.355 203.287 195.096 204.978 196.364 206.65C197.886 208.657 199.442 210.939 201.423 212.543C203.145 213.937 204.978 215.208 206.775 216.478C207.92 217.287 209.665 219.167 210.991 219.542C212.218 219.889 213.931 220.064 215.096 219.488C215.606 219.235 216.193 219.064 216.746 218.907C217.348 218.737 217.42 218.21 217.919 217.928C220.982 216.197 215.377 214.012 213.942 214.012C211.331 214.012 209.689 212.116 208.094 210.276C206.2 208.09 203.372 205.733 201.973 203.241C199.295 198.473 195.167 194.013 193.339 188.59C192.354 185.666 190.251 182.974 189.105 180.141C188.469 178.566 186.204 176.603 184.743 175.753C183.851 175.234 183.066 174.486 182.434 173.704C181.919 173.068 181.139 171.752 180.454 171.328C179.166 170.532 177.977 166.608 178.804 165.381C179.723 165.151 180.496 165.06 181.347 164.543C181.543 164.424 181.84 164.411 181.988 164.23C182.142 164.042 182.28 163.828 182.434 163.652C182.827 163.203 183.081 162.156 183.091 161.594C183.123 159.78 183.193 157.864 182.895 156.077C182.717 155.01 182.7 153.871 182.385 152.848C182.022 151.667 182.281 150.084 180.935 149.507C180.375 149.267 180.149 149.197 179.651 149.57C178.881 150.148 178.133 150.7 177.319 151.222C176.464 151.769 175.293 151.854 174.311 151.687C174.033 151.64 173.883 151.514 173.698 151.76C173.574 151.927 173.447 152.1 173.346 152.28C173.019 152.861 172.625 153.348 172.38 153.98C172.074 154.773 171.665 155.467 171.626 156.342C171.4 156.266 170.919 155.835 170.74 155.684C170.451 155.441 170.151 155.225 169.855 154.994C169.5 154.718 168.904 154.497 168.452 154.492C168.061 154.487 167.838 154.684 167.579 154.931C167.306 155.191 167.119 155.825 167.166 156.191C167.232 156.703 167.306 157.224 167.625 157.647C167.956 158.086 168.492 158.426 168.939 158.735C169.261 158.958 169.558 159.253 169.882 159.458C170.045 159.561 170.092 159.932 170.121 160.108C170.164 160.363 170.132 160.552 170.113 160.8C170.09 161.112 170.096 161.43 170.055 161.741C170.012 162.067 170.065 162.365 170.065 162.69V163.831C170.065 163.97 169.987 164.192 170.042 164.313C170.123 164.49 169.967 164.957 169.865 165.097" stroke="#2C3B51" stroke-width="0.6" stroke-linecap="round" stroke-linejoin="round"/>
<path d="M151.532 183.354C151.532 189.389 153.016 194.768 154.345 200.561C154.669 201.976 155.085 203.397 155.228 204.843C155.37 206.266 155.725 207.591 155.725 209.021C155.725 210.682 156.049 212.345 156.251 213.993C156.448 215.608 156.522 217.248 156.849 218.847C157.08 219.971 157.729 220.273 158.777 219.882C159.842 219.486 160.194 218.874 160.194 217.797C160.194 217.323 160.245 216.82 160.186 216.35C160.142 215.991 159.944 215.612 159.931 215.256C159.892 214.196 159.73 213.016 159.507 211.981C159.24 210.738 159.221 209.497 159.135 208.235C159.085 207.504 158.893 206.766 158.879 206.032C158.865 205.289 158.879 204.365 158.682 203.653C158.438 202.768 158.485 201.599 158.485 200.679C158.485 198.821 158.222 196.992 158.222 195.135C158.222 193.715 158.222 192.295 158.222 190.875C158.222 189.249 158.616 187.686 158.616 186.073C158.616 184.712 158.985 183.41 159.011 182.034C159.031 180.929 159.274 179.927 159.274 178.803" stroke="#2C3B51" stroke-width="0.6" stroke-linecap="round" stroke-linejoin="round"/>
<path d="M70.4953 267.072C71.1561 254.279 192.129 244.929 185.256 261.49C174.838 277.721 68.0672 280.305 70.4953 267.072Z" fill="#F4F1DE" stroke="#2C3B51" stroke-width="0.6"/>
<path d="M70.4951 267.073C97.486 261.017 176.335 258.941 185.538 261.882" stroke="#2C3B51" stroke-width="0.6"/>
<path d="M71.5835 269.415C102.412 264.79 168.819 260.927 183.686 263.43" stroke="#2C3B51" stroke-width="0.6"/>
<path d="M148.638 192.549C149.568 193.58 150.479 194.522 151.617 195.212C151.855 195.356 152.128 195.522 152.341 195.703C152.547 195.879 152.799 195.954 152.979 196.167" stroke="#2C3B51" stroke-width="0.6" stroke-linecap="round" stroke-linejoin="round"/>
<path d="M158.767 198.337C159.16 198.841 159.843 199.163 160.435 199.42C161.294 199.793 162.041 200.347 162.887 200.729C163.472 200.992 163.999 201.365 164.579 201.633C164.807 201.739 165.071 201.823 165.279 201.955" stroke="#2C3B51" stroke-width="0.6" stroke-linecap="round" stroke-linejoin="round"/>
<path d="M180.78 149.457C181.704 150.663 182.55 152.828 182.55 154.349C182.55 154.834 182.861 155.286 182.872 155.792C182.889 156.657 183.096 160.659 183.122 161.521C183.122 163.303 180.878 165.474 179.006 165.474C177.92 165.474 177.31 165.535 176.305 165.204C175.818 165.044 175.435 164.964 174.952 164.777C174.506 164.604 173.425 164.219 173.218 163.826" stroke="#2C3B51" stroke-width="0.6" stroke-linecap="round" stroke-linejoin="round"/>
<path d="M169.841 159.65C169.339 159.26 168.739 159.008 168.285 158.565C167.965 158.251 167.54 157.778 167.359 157.366C167.014 156.579 166.884 154.968 167.816 154.543C168.626 154.173 169.137 154.639 169.767 155.001C170.424 155.379 170.871 155.881 171.47 156.32" stroke="#2C3B51" stroke-width="0.6" stroke-linecap="round" stroke-linejoin="round"/>
<path d="M169.044 159.069C169.178 159.519 169.22 160.402 168.849 160.817" stroke="#2C3B51" stroke-width="0.6" stroke-linecap="round" stroke-linejoin="round"/>
<path d="M182.023 152.118C181.432 152.105 180.501 151.879 180.501 152.667C180.501 152.968 180.815 152.99 181.086 152.916C181.37 152.839 181.601 152.817 181.91 152.817C182.033 152.817 182.248 152.944 182.248 152.944C182.248 152.944 182.126 152.683 182.079 152.548C182.051 152.466 181.989 152.317 181.882 152.317C181.658 152.317 181.826 152.663 181.684 152.733C181.658 152.747 181.445 152.366 181.415 152.317C181.333 152.186 181.19 152.599 181.152 152.667C180.973 152.984 180.67 151.926 180.67 152.567" stroke="#2C3B51" stroke-width="0.6" stroke-linecap="round" stroke-linejoin="round"/>
<path d="M178.929 153.38C179.052 153.341 179.053 153.155 179.019 152.96C179.049 152.852 179.054 152.705 179.019 152.627C178.896 152.353 178.661 152.312 178.457 152.438C178.06 152.684 177.509 152.827 177.064 152.854C176.77 152.873 176.773 152.986 176.604 153.174C176.414 153.385 176.306 153.535 176.622 153.535H178.272C178.498 153.535 178.714 153.448 178.929 153.38Z" fill="#F4F1DE"/>
<path d="M178.899 152.476C178.922 152.609 179.18 153.3 178.929 153.38C178.714 153.448 178.498 153.535 178.272 153.535C177.722 153.535 177.172 153.535 176.622 153.535C176.306 153.535 176.414 153.385 176.604 153.174C176.773 152.986 176.77 152.873 177.064 152.854C177.509 152.827 178.06 152.684 178.457 152.438C178.661 152.312 178.896 152.353 179.019 152.627C179.098 152.802 178.972 153.322 178.831 152.968C178.718 152.687 178.365 152.868 178.506 153.065C178.705 153.342 178.622 153.182 178.423 153.065C178.336 153.013 178.213 152.958 178.117 152.934C177.917 152.885 178.127 153.133 178.151 153.195C178.306 153.582 177.666 153.328 177.611 153.115C177.547 152.865 177.518 153.451 177.283 153.216C177.209 153.142 177.202 153.064 177.117 153.14C177.084 153.169 176.838 153.157 176.928 153.157" stroke="#2C3B51" stroke-width="0.6" stroke-linecap="round" stroke-linejoin="round"/>
<path d="M179.335 154.691C179.149 154.609 178.958 154.561 178.767 154.495C178.63 154.448 178.488 154.471 178.349 154.437C178.182 154.396 177.958 154.379 177.813 154.511C177.747 154.571 177.655 154.594 177.587 154.646C177.487 154.722 177.402 154.82 177.307 154.903C177.192 155.001 177.135 155.21 177.004 155.281" stroke="#2C3B51" stroke-width="0.6" stroke-linecap="round" stroke-linejoin="round"/>
<path d="M178.105 154.407C178.273 154.538 178.775 154.99 178.173 154.99C178.034 154.99 177.949 154.995 177.889 154.881C177.849 154.804 177.935 154.621 178.014 154.589" stroke="#2C3B51" stroke-width="0.6" stroke-linecap="round" stroke-linejoin="round"/>
<path d="M182.248 154.177C181.78 154.061 181.419 154.101 181.083 154.408" stroke="#2C3B51" stroke-width="0.6" stroke-linecap="round" stroke-linejoin="round"/>
<path d="M181.956 154.407C182.028 154.407 182.083 154.407 182.248 154.407" stroke="#2C3B51" stroke-width="0.6" stroke-linecap="round" stroke-linejoin="round"/>
<path d="M181.375 161.982C180.776 161.982 179.336 161.716 179.336 160.816" stroke="#2C3B51" stroke-width="0.6" stroke-linecap="round" stroke-linejoin="round"/>
<path d="M179.335 160.816C179.272 160.997 179.222 161.33 179.043 161.399" stroke="#2C3B51" stroke-width="0.6" stroke-linecap="round" stroke-linejoin="round"/>
<path d="M181.083 156.448C181.233 157.399 181.478 158.254 181.905 159.103C182.177 159.645 181.307 160.232 181.083 159.786" stroke="#2C3B51" stroke-width="0.6" stroke-linecap="round" stroke-linejoin="round"/>
<path d="M180.208 148.112C179.186 146.913 178.006 146.052 176.604 145.328C175.898 144.964 175.01 144.929 174.236 144.827C172.537 144.604 171.145 145.624 169.835 146.535C168.881 147.2 167.931 148.04 167.33 149.037C167.034 149.529 166.846 150.096 166.515 150.566C166.127 151.116 166.035 151.855 165.704 152.444C165.164 153.405 164.907 155.094 165.157 156.173C165.412 157.275 166.046 158.519 166.754 159.4C166.967 159.665 167.126 159.937 167.335 160.203C167.531 160.452 167.908 160.942 168.165 161.099C168.332 161.2 168.509 161.477 168.605 161.644C168.659 161.738 168.868 162.19 168.868 161.868" stroke="#2C3B51" stroke-width="0.6" stroke-linecap="round" stroke-linejoin="round"/>
<path d="M168.976 161.981C168.325 161.324 167.87 160.351 167.511 159.508C167.321 159.061 167.053 158.641 166.958 158.157C166.878 157.75 166.75 157.33 166.633 156.932C166.359 156.003 166.63 155.077 166.905 154.193C167.107 153.547 167.256 152.876 167.524 152.254C167.743 151.744 168.014 151.25 168.29 150.767C168.569 150.278 168.859 149.781 169.134 149.287C169.355 148.889 169.709 148.583 169.947 148.198C170.148 147.874 170.495 147.583 170.743 147.289C170.986 147.001 171.235 146.749 171.509 146.499C171.955 146.091 172.521 145.754 173.074 145.508C173.485 145.326 173.92 145.086 174.383 145.086" stroke="#2C3B51" stroke-width="0.6" stroke-linecap="round" stroke-linejoin="round"/>
<path d="M174.966 145.086C174.708 145.086 174.411 145.123 174.174 145.228C174.072 145.273 173.961 145.281 173.856 145.316C173.667 145.379 173.506 145.512 173.316 145.571C172.834 145.719 172.365 145.865 171.939 146.143C171.385 146.506 170.878 146.925 170.367 147.358C170.045 147.63 169.709 147.877 169.377 148.136C169.26 148.227 169.11 148.321 169.025 148.444C168.918 148.599 168.883 148.763 168.783 148.919C168.595 149.212 168.391 149.501 168.208 149.8C168.091 149.992 167.925 150.156 167.814 150.351C167.676 150.596 167.576 150.837 167.44 151.088C167.236 151.466 166.986 151.86 166.824 152.258C166.753 152.432 166.675 152.647 166.56 152.797C166.43 152.965 166.379 153.364 166.306 153.57C166.197 153.874 166.106 154.225 166.032 154.542C165.897 155.117 165.944 155.713 165.944 156.299C165.944 156.855 166.367 157.536 166.614 158.006C166.819 158.396 166.999 158.792 167.196 159.185C167.455 159.704 167.577 160.352 167.924 160.816" stroke="#2C3B51" stroke-width="0.6" stroke-linecap="round" stroke-linejoin="round"/>
<path d="M168.267 158.485C168.473 159.071 168.752 159.608 168.986 160.175C169.151 160.573 169.247 161.047 168.94 161.398" stroke="#2C3B51" stroke-width="0.6" stroke-linecap="round" stroke-linejoin="round"/>
<path d="M179.401 148.973C179.739 149.165 179.992 149.207 180.354 149.328C180.43 149.354 180.812 149.474 180.791 149.454C180.666 149.333 180.591 149.2 180.435 149.082C180.154 148.871 179.704 148.874 179.336 148.874" stroke="#2C3B51" stroke-width="0.6" stroke-linecap="round" stroke-linejoin="round"/>
<path d="M181.404 150.196C181.278 149.506 181.175 149.274 180.582 148.998C180.126 148.786 179.63 149.085 179.243 149.327C177.828 150.212 176.523 151.18 174.805 151.378C173.872 151.486 173.071 151.611 172.171 151.29C171.894 151.191 171.617 151.088 171.4 150.876C171.205 150.684 171.026 150.536 171.389 150.628C171.84 150.743 172.333 150.728 172.797 150.728C173.28 150.728 173.689 150.495 174.15 150.462C175.016 150.399 175.818 149.834 176.464 149.297C177.269 148.628 178.26 148 179.323 148C180.025 148 180.559 148.178 181.142 148.558C181.685 148.913 181.666 149.312 181.666 149.929" stroke="#2C3B51" stroke-width="0.6" stroke-linecap="round" stroke-linejoin="round"/>
<path d="M181.666 148.9C180.89 147.944 179.18 147.327 177.94 147.431C176.167 147.581 175.151 148.918 173.884 149.924C173.184 150.48 171.988 150.641 171.129 150.82C170.812 150.886 170.42 150.938 170.096 150.88C169.851 150.837 170.227 150.946 170.294 150.962C170.747 151.072 171.221 151.188 171.642 151.382C172.084 151.585 172.757 151.46 173.225 151.46" stroke="#2C3B51" stroke-width="0.6" stroke-linecap="round" stroke-linejoin="round"/>
<path d="M173.219 151.787C172.338 152.476 172.155 153.278 171.892 154.233C171.781 154.635 171.713 155.04 171.685 155.452C171.663 155.786 171.618 156.423 171.18 156.035" stroke="#2C3B51" stroke-width="0.6" stroke-linecap="round" stroke-linejoin="round"/>
<path d="M171.47 151.787C170.922 152.285 170.622 153.204 170.451 153.951C170.367 154.317 170.43 155.131 170.014 155.283" stroke="#2C3B51" stroke-width="0.6" stroke-linecap="round" stroke-linejoin="round"/>
<path d="M181.666 150.231C181.666 149.633 181.513 148.935 181.085 148.48C180.838 148.218 180.682 147.971 180.375 147.767C179.898 147.451 179.409 147.296 178.861 147.155C178.035 146.941 176.967 146.652 176.128 146.989C175.521 147.233 174.876 147.685 174.5 148.221C174.248 148.58 173.876 148.881 173.661 149.258C173.504 149.534 173.106 149.759 172.843 149.921C172.298 150.257 171.616 150.544 171.014 150.75C170.394 150.961 169.756 151.101 169.142 151.319C168.865 151.416 168.266 151.398 168.266 151.398C168.266 151.398 169.579 151.787 170.253 151.787C170.518 151.787 170.769 151.731 171.028 151.722C171.391 151.709 171.672 151.424 171.982 151.268" stroke="#2C3B51" stroke-width="0.6" stroke-linecap="round" stroke-linejoin="round"/>
<path d="M170.596 151.787C170.309 152.34 170.115 152.955 170.014 153.589C169.939 154.064 169.805 154.734 169.431 154.991" stroke="#2C3B51" stroke-width="0.6" stroke-linecap="round" stroke-linejoin="round"/>
<path d="M169.14 152.078C168.643 152.822 168.28 153.746 167.684 154.408" stroke="#2C3B51" stroke-width="0.6" stroke-linecap="round" stroke-linejoin="round"/>
<path d="M177.879 146.446C176.829 146.041 175.566 146.321 174.574 146.792C173.432 147.334 172.413 147.821 171.659 148.857C171.407 149.204 171.174 149.571 170.865 149.873C170.672 150.062 170.527 150.348 170.281 150.479C169.946 150.657 169.657 150.862 169.278 150.955C168.843 151.061 168.09 151.376 167.683 151.078" stroke="#2C3B51" stroke-width="0.6" stroke-linecap="round" stroke-linejoin="round"/>
<path d="M168.266 152.078C168.037 152.418 167.947 152.77 167.827 153.159C167.772 153.338 167.615 153.663 167.717 153.826" stroke="#2C3B51" stroke-width="0.6" stroke-linecap="round" stroke-linejoin="round"/>
<path d="M169.621 160.714C169.803 161.248 170.044 161.772 170.222 162.306C170.349 162.688 170.204 163.087 170.293 163.473C170.426 164.057 170.257 164.498 170.257 165.055" stroke="#2C3B51" stroke-width="0.6" stroke-linecap="round" stroke-linejoin="round"/>
<path d="M134.89 208.985C135.217 209.183 135.918 209.342 136.183 208.944C136.416 208.594 136.384 208.043 136.094 207.743" stroke="#2C3B51" stroke-width="0.6" stroke-linecap="round" stroke-linejoin="round"/>
<path d="M134.441 209.698C134.346 209.907 134.059 210.334 134.208 210.576C134.305 210.734 134.616 210.77 134.785 210.801C135.062 210.85 135.3 210.906 135.489 210.695C135.611 210.559 135.581 210.573 135.625 210.755C135.673 210.951 135.688 211.198 135.919 211.295C136.411 211.501 137.057 211.22 136.982 210.686C136.962 210.545 136.876 210.439 137.078 210.48C137.436 210.553 137.752 210.595 138.037 210.352C138.319 210.112 138.45 209.786 138.31 209.446C138.272 209.354 137.89 209.19 137.892 209.181C137.953 208.982 138.363 208.887 138.462 208.662C138.561 208.435 138.503 208.087 138.249 207.957C138.016 207.838 137.747 208.005 137.521 208.005C137.506 208.005 137.558 207.9 137.558 207.898C137.586 207.803 137.592 207.693 137.579 207.596C137.534 207.271 137.235 207.152 136.946 207.021" stroke="#2C3B51" stroke-width="0.6" stroke-linecap="round" stroke-linejoin="round"/>
<path d="M148.554 198.202C148.519 199.082 149.109 199.974 150.012 199.511C150.446 199.289 150.377 198.957 150.289 198.541C150.206 198.147 149.989 197.76 149.642 197.593C148.906 197.24 148.565 197.676 148.184 198.304" stroke="#2C3B51" stroke-width="0.6" stroke-linecap="round" stroke-linejoin="round"/>
<path d="M149.107 197.192C148.646 196.984 147.968 196.604 147.476 196.963C146.958 197.341 147.698 197.56 147.644 197.907C147.626 198.022 147.209 198.058 147.124 198.106C146.886 198.24 146.778 198.47 146.745 198.761C146.69 199.24 146.959 199.439 147.318 199.427C147.381 199.425 147.703 199.311 147.741 199.358C147.807 199.441 147.636 199.959 147.635 200.073C147.628 200.709 148.003 201.412 148.631 200.928C148.696 200.877 148.864 200.606 148.869 200.808C148.876 201.084 148.862 201.292 149.045 201.504C149.285 201.78 149.611 201.821 149.944 201.802C150.486 201.771 150.474 201.317 150.539 200.843C150.543 200.809 150.872 201.018 150.957 201.007C151.282 200.964 151.775 200.73 151.799 200.316C151.821 199.953 151.751 199.51 151.372 199.432C151.157 199.388 151.382 199.012 151.402 198.801C151.438 198.44 151.448 198.043 151.209 197.773C151.057 197.602 150.916 197.613 150.737 197.728C150.662 197.776 150.701 196.683 150.684 196.501C150.598 195.574 148.794 196.043 149.186 197.37" stroke="#2C3B51" stroke-width="0.6" stroke-linecap="round" stroke-linejoin="round"/>
<path d="M135.63 216.329C135.387 215.215 134.796 214.491 134.608 213.345C136.778 215.852 141.822 220.809 144.08 220.809C143.679 222.034 144.08 223.324 144.08 224.625C144.08 227.808 144.251 231.462 142.73 234.311C141.581 236.461 139.481 238.017 137.679 239.571C136.763 240.361 135.552 241.686 134.485 242.152C133.382 242.634 132.693 243.9 131.604 244.426C130.609 244.906 129.685 245.763 128.891 246.528C125.802 249.502 122.424 252.071 120.478 256.041C120.076 256.86 119.627 257.653 119.224 258.474C118.815 259.309 118.328 260.524 117.777 261.178C117.139 261.938 117.079 263.118 116.644 264.005C116.324 264.66 116.128 265.344 115.825 265.996C114.992 267.789 113.64 267.011 112.401 266.046C109.804 264.02 111.433 260.227 112.618 257.811C113.315 256.39 114.263 255.26 115.101 253.939C115.963 252.582 116.523 251.069 117.343 249.674C119.303 246.343 121.35 243.951 124.287 241.439C128.359 237.957 134.283 235.444 136.052 229.935C136.81 227.571 137.293 225.255 137.124 222.757C137.035 221.44 136.341 220.174 136.269 218.873C136.219 217.987 135.813 217.169 135.63 216.329Z" fill="#F4F1DE" stroke="#2C3B51" stroke-width="0.6" stroke-linecap="round" stroke-linejoin="round"/>
<path d="M153.527 235.024C153.527 230.499 153.311 226.02 153.311 221.491C153.397 222.191 155.289 224.006 162.169 225.672C162.169 228.294 162.385 231.082 162.385 233.814C162.385 236.174 162.07 238.413 161.953 240.733C161.788 244.003 158.602 245.339 156.252 246.796C153.907 248.25 151.251 249.386 148.774 250.647C147.015 251.543 145.482 252.663 143.804 253.618C141.378 254.999 140.262 257.532 139.483 260.109C139.002 261.703 138.199 264.836 135.906 264.058C133.767 263.332 131.273 260.889 131.273 258.569C131.273 256.148 133.277 254.324 135.138 253.08C136.897 251.904 138.484 250.505 140.347 249.486C141.738 248.725 143.217 248.129 144.596 247.359C147.726 245.611 150.674 243.776 152.495 240.586C153.487 238.847 153.527 237.025 153.527 235.024Z" fill="#F4F1DE" stroke="#2C3B51" stroke-width="0.6" stroke-linecap="round" stroke-linejoin="round"/>
<path d="M143.666 216.335C143.491 216.426 143.265 216.513 143.265 216.743C143.265 216.989 143.474 217.256 143.681 217.364C143.879 217.469 144.341 217.514 144.387 217.192C144.415 216.992 144.51 216.674 144.364 216.496C144.181 216.271 144.088 216.245 143.801 216.245" stroke="#2C3B51" stroke-width="0.6" stroke-linecap="round" stroke-linejoin="round"/>
<path d="M145.152 215.525C145.421 215.525 145.639 215.512 145.803 215.755C146.001 216.048 146.213 216.395 146.044 216.747C145.92 217.003 145.748 217.043 145.523 217.112C145.345 217.167 145.631 217.25 145.693 217.283C145.879 217.38 146.093 217.525 146.099 217.759C146.107 218.051 145.705 218.441 145.423 218.455C145.184 218.467 144.882 217.977 144.882 218.319C144.882 218.684 144.599 218.892 144.266 219.006C143.944 219.116 143.416 219.182 143.199 218.845C143.127 218.734 143.169 218.518 143.169 218.387C143.169 218.093 141.92 218.361 141.644 218.177C141.433 218.036 141.299 217.535 141.439 217.303C141.566 217.09 141.884 216.922 142.135 216.922C142.281 216.922 142.581 216.852 142.438 216.669C142.31 216.506 142.071 216.429 141.977 216.241C141.908 216.104 141.83 215.904 141.819 215.75C141.809 215.602 141.788 215.353 141.894 215.234C142.128 214.973 142.678 215.012 142.959 215.149C143.114 215.225 143.249 215.344 143.384 215.45C143.429 215.484 143.512 215.594 143.527 215.54C143.577 215.367 143.514 215.165 143.585 214.989C143.762 214.547 144.856 214.688 145.13 214.951C145.232 215.05 145.197 215.216 145.197 215.345" stroke="#2C3B51" stroke-width="0.6" stroke-linecap="round" stroke-linejoin="round"/>
<path d="M162.68 201.005C162.343 201.467 162.693 201.845 163.115 202.113C163.489 202.352 163.902 202.028 164.031 201.641" stroke="#2C3B51" stroke-width="0.6" stroke-linecap="round" stroke-linejoin="round"/>
<path d="M161.924 200.607C161.479 200.616 161.132 200.829 160.859 201.186C160.747 201.334 160.81 201.615 160.93 201.742C161.094 201.916 161.274 201.958 161.487 201.871C161.507 201.862 161.214 202.265 161.155 202.361C161.012 202.596 161.029 202.747 161.2 202.953C161.386 203.177 161.516 203.271 161.813 203.271C161.888 203.271 161.942 203.26 162.012 203.231C162.052 203.214 162.251 203.055 162.264 203.065C162.558 203.306 162.436 203.915 162.975 203.807C163.317 203.739 163.426 203.554 163.633 203.295C163.651 203.272 163.758 203.431 163.779 203.447C163.91 203.551 164.108 203.585 164.267 203.542C164.498 203.479 164.733 203.243 164.803 203.012C164.877 202.769 164.865 202.491 164.865 202.237" stroke="#2C3B51" stroke-width="0.6" stroke-linecap="round" stroke-linejoin="round"/>
<path d="M151.556 207.781C151.379 207.916 151.153 208.066 151.126 208.309C151.113 208.429 151.089 208.754 151.22 208.827C151.619 209.049 152.048 209.038 152.394 208.741C152.691 208.487 152.534 208.221 152.303 208.023C152.033 207.792 151.885 207.685 151.508 207.685" stroke="#2C3B51" stroke-width="0.6" stroke-linecap="round" stroke-linejoin="round"/>
<path d="M152.612 207.253C153.034 207.072 153.24 206.822 153.666 207.133C154.083 207.438 153.969 207.811 153.62 208.16C153.482 208.299 153.376 208.293 153.61 208.413C153.885 208.554 154.209 208.716 154.341 209.014C154.496 209.365 154.379 209.542 154.103 209.771C153.879 209.959 153.794 209.934 153.524 209.846C153.395 209.804 153.293 209.773 153.178 209.702C153.02 209.605 153.187 209.807 153.212 209.846C153.476 210.257 153.011 210.743 152.684 210.927C152.131 211.237 151.917 210.887 151.846 210.353C151.84 210.311 151.876 210.122 151.795 210.134C151.698 210.149 151.583 210.285 151.513 210.337C151.317 210.482 151.107 210.647 150.885 210.751C150.537 210.915 149.932 210.616 149.981 210.193C150.003 210.006 150.161 209.896 150.285 209.771C150.307 209.75 150.619 209.501 150.584 209.473C150.472 209.381 150.007 209.44 149.853 209.403C149.52 209.323 149.252 209.201 149.012 208.952C148.702 208.63 149.139 208.077 149.501 208.032C149.545 208.026 149.995 208.059 150.01 207.992C150.052 207.803 149.718 207.481 149.645 207.33C149.416 206.862 149.748 206.533 150.21 206.495C150.377 206.481 150.556 206.483 150.717 206.532C150.748 206.541 150.861 206.607 150.853 206.596C150.732 206.426 150.855 206.143 150.99 206.015C151.328 205.691 152.215 205.582 152.334 206.169C152.392 206.451 152.399 206.738 152.468 207.012" stroke="#2C3B51" stroke-width="0.6" stroke-linecap="round" stroke-linejoin="round"/>
<path d="M157.965 223.619C158.254 223.238 158.516 222.983 159.028 222.983C159.349 222.983 160.006 222.999 160.159 223.374C160.259 223.622 160.216 223.915 160.216 224.182" stroke="#2C3B51" stroke-width="0.6" stroke-linecap="round" stroke-linejoin="round"/>
<path d="M156.981 223.198C156.913 222.819 156.864 222.225 157.31 222.052C157.479 221.986 157.698 222.043 157.862 222.096C158.015 222.145 157.945 222.149 157.971 221.997C158.072 221.42 158.591 221.455 159.044 221.463C159.321 221.468 159.51 221.601 159.701 221.791C159.889 221.979 159.857 222.041 160.039 221.838C160.346 221.497 161.144 221.482 161.381 221.911C161.526 222.175 161.428 222.55 161.274 222.773C161.059 223.086 161.605 223.034 161.826 223.162C162.472 223.535 161.659 224.123 161.529 224.511" stroke="#2C3B51" stroke-width="0.6" stroke-linecap="round" stroke-linejoin="round"/>
<path d="M163.98 212.914C163.671 213.025 163.348 213.104 163.348 213.473C163.348 213.61 163.341 213.75 163.348 213.886C163.366 214.198 163.792 214.47 164.078 214.47" stroke="#2C3B51" stroke-width="0.6" stroke-linecap="round" stroke-linejoin="round"/>
<path d="M163.98 212.088C163.758 211.758 163.432 211.451 163.024 211.38C162.725 211.328 162.344 211.352 162.208 211.655C162.098 211.901 162.142 212.109 162.354 212.271C162.371 212.284 162.55 212.383 162.473 212.404C162.204 212.474 161.823 212.324 161.579 212.455C161.4 212.551 161.409 212.872 161.393 213.038C161.362 213.353 161.56 213.551 161.881 213.519C161.974 213.51 162.24 213.438 162.1 213.616C161.884 213.89 161.469 214.379 162.011 214.591C162.162 214.65 162.311 214.673 162.473 214.664C162.659 214.654 162.537 214.91 162.524 215.067C162.472 215.713 163.542 216.269 163.883 215.588" stroke="#2C3B51" stroke-width="0.6" stroke-linecap="round" stroke-linejoin="round"/>
<path d="M221.429 145.53C219.556 144.97 217.674 144.495 215.782 144.01" stroke="#2C3B51" stroke-width="0.8" stroke-linecap="round" stroke-linejoin="round"/>
<path d="M213.827 147.051C212.331 147.324 210.939 147.721 209.484 148.137" stroke="#2C3B51" stroke-width="0.8" stroke-linecap="round" stroke-linejoin="round"/>
<path d="M210.57 154.436C209.62 155.15 208.68 155.874 207.746 156.607" stroke="#2C3B51" stroke-width="0.8" stroke-linecap="round" stroke-linejoin="round"/>
<path d="M213.392 160.08C213.197 160.745 212.977 161.386 212.741 162.035" stroke="#2C3B51" stroke-width="0.8" stroke-linecap="round" stroke-linejoin="round"/>
<circle cx="367.5" cy="157.5" r="37.5" fill="#F4F1DE"/>
<circle cx="367.621" cy="157.621" r="31.3391" stroke="#6A97D8" stroke-width="2"/>
<path d="M368.18 148.562C370.098 148.812 371.954 149.649 373.547 150.982C373.664 151.079 373.796 151.126 373.928 151.126C374.143 151.126 374.356 150.999 374.487 150.764C374.698 150.386 374.618 149.87 374.31 149.612C372.533 148.125 370.463 147.192 368.322 146.913C367.951 146.865 367.618 147.194 367.578 147.65C367.539 148.105 367.808 148.514 368.18 148.562Z" fill="#6A97D8"/>
<path d="M366.872 144.104C367.26 144.104 367.575 143.787 367.575 143.396V140.593C367.575 140.202 367.26 139.886 366.872 139.886C366.483 139.886 366.168 140.202 366.168 140.593V143.396C366.168 143.787 366.483 144.104 366.872 144.104Z" fill="#6A97D8"/>
<path d="M357.82 146.527C357.951 146.776 358.188 146.915 358.432 146.915C358.552 146.915 358.674 146.882 358.785 146.811C359.123 146.597 359.239 146.122 359.044 145.75L357.645 143.086C357.449 142.714 357.017 142.587 356.68 142.801C356.342 143.016 356.226 143.491 356.421 143.862L357.82 146.527Z" fill="#6A97D8"/>
<path d="M349.685 151.039L352.349 152.438C352.471 152.502 352.605 152.533 352.736 152.533C353.005 152.533 353.266 152.406 353.41 152.18C353.624 151.842 353.497 151.41 353.126 151.214L350.461 149.815C350.09 149.62 349.615 149.736 349.4 150.074C349.186 150.412 349.313 150.844 349.685 151.039Z" fill="#6A97D8"/>
<path d="M383.041 160.273C383.041 160.662 383.358 160.976 383.748 160.976H386.551C386.942 160.976 387.259 160.662 387.259 160.273C387.259 159.885 386.942 159.57 386.551 159.57H383.748C383.358 159.57 383.041 159.885 383.041 160.273Z" fill="#6A97D8"/>
<path d="M347.191 160.976H349.994C350.385 160.976 350.702 160.662 350.702 160.273C350.702 159.885 350.385 159.57 349.994 159.57H347.191C346.801 159.57 346.484 159.885 346.484 160.273C346.484 160.662 346.801 160.976 347.191 160.976Z" fill="#6A97D8"/>
<path d="M381.007 152.533C381.138 152.533 381.272 152.502 381.394 152.438L384.059 151.039C384.43 150.844 384.558 150.412 384.343 150.074C384.129 149.736 383.654 149.62 383.282 149.815L380.618 151.214C380.246 151.41 380.119 151.842 380.333 152.18C380.477 152.406 380.738 152.533 381.007 152.533Z" fill="#6A97D8"/>
<path d="M374.957 146.811C375.069 146.882 375.19 146.915 375.31 146.915C375.554 146.915 375.792 146.776 375.923 146.527L377.322 143.862C377.517 143.491 377.401 143.016 377.063 142.801C376.725 142.587 376.293 142.714 376.098 143.086L374.699 145.75C374.504 146.122 374.62 146.597 374.957 146.811Z" fill="#6A97D8"/>
<path d="M361.256 166.594H349.991C349.607 166.594 349.296 166.909 349.296 167.297C349.296 167.685 349.607 168 349.991 168H361.256C361.639 168 361.95 167.685 361.95 167.297C361.95 166.909 361.639 166.594 361.256 166.594Z" fill="#6A97D8"/>
<path d="M378.171 169.406H371.04C370.679 169.406 370.387 169.721 370.387 170.109C370.387 170.498 370.679 170.812 371.04 170.812H378.171C378.531 170.812 378.823 170.498 378.823 170.109C378.823 169.721 378.531 169.406 378.171 169.406Z" fill="#6A97D8"/>
<path d="M382.262 172.216H379.601C379.171 172.216 378.823 172.531 378.823 172.919C378.823 173.307 379.171 173.622 379.601 173.622H382.262C382.692 173.622 383.041 173.307 383.041 172.919C383.041 172.531 382.692 172.216 382.262 172.216Z" fill="#6A97D8"/>
<path d="M389.386 163.777H379.568C379.811 162.731 379.935 161.656 379.935 160.569C379.935 157.161 378.717 153.892 376.507 151.366C376.253 151.076 375.82 151.053 375.539 151.316C375.259 151.578 375.237 152.025 375.491 152.316C377.473 154.581 378.565 157.513 378.565 160.569C378.565 161.659 378.427 162.736 378.156 163.777H361.229C360.851 163.777 360.544 164.094 360.544 164.485C360.544 164.877 360.851 165.193 361.229 165.193H389.386C389.764 165.193 390.071 164.877 390.071 164.485C390.071 164.094 389.764 163.777 389.386 163.777Z" fill="#6A97D8"/>
<path d="M359.283 164.477C359.283 164.085 358.975 163.768 358.595 163.768H355.568C355.296 162.725 355.157 161.645 355.157 160.554C355.157 154.374 359.633 149.115 365.568 148.321C365.945 148.271 366.211 147.915 366.162 147.526C366.113 147.138 365.768 146.864 365.391 146.914C358.772 147.8 353.78 153.664 353.78 160.554C353.78 161.641 353.905 162.72 354.148 163.768H344.359C343.979 163.768 343.671 164.085 343.671 164.477C343.671 164.869 343.979 165.187 344.359 165.187H358.595C358.975 165.187 359.283 164.869 359.283 164.477Z" fill="#6A97D8"/>
<circle cx="202.5" cy="37.5" r="37.5" fill="#F4F1DE"/>
<circle cx="202.31" cy="37.3107" r="31.3391" stroke="#6A97D8" stroke-width="2"/>
<path d="M200.942 34.7089C201.247 39.0982 204.404 42.4199 208.098 42.2396C211.793 42.059 214.711 38.4406 214.713 34.0361C214.713 34.0317 214.713 34.0277 214.713 34.023L214.683 32.1319C214.676 28.1136 211.941 24.8598 208.567 24.8564H191.021C187.647 24.8601 184.913 28.1149 184.907 32.1336L184.885 34.0297V34.0395C184.888 38.5738 187.971 42.2494 191.778 42.2561C195.386 42.2561 198.355 38.9314 198.649 34.7095L200.942 34.7089ZM197.515 34.0257C197.52 37.8038 194.952 40.8709 191.78 40.8763C188.608 40.8817 186.033 37.823 186.029 34.0445L186.042 32.146V32.1359C186.042 28.8792 188.287 26.2342 191.021 26.2342H208.567C211.304 26.2366 213.523 28.8781 213.526 32.1386V32.1504L213.557 34.0435C213.56 36.4916 212.464 38.7548 210.683 39.9775C208.902 41.2002 206.709 41.1959 204.932 39.9657C203.155 38.7359 202.065 36.4681 202.075 34.02C202.075 33.8319 202.014 33.651 201.905 33.5151C201.799 33.3809 201.652 33.3021 201.497 33.2954L198.094 33.3143C197.771 33.325 197.514 33.6409 197.515 34.0257Z" fill="#6A97D8"/>
<path d="M220.306 18.6426H215.645C215.302 18.6426 215.024 18.9267 215.024 19.2772C215.024 19.6277 215.302 19.9119 215.645 19.9119H217.432V46.8046C217.432 51.1352 214.005 54.6583 209.764 54.6583H208.754C204.75 54.6533 201.418 51.5148 201.089 47.4393H202.906C203.25 47.4393 203.528 47.1551 203.528 46.8046V42.8382C203.528 42.4877 203.25 42.2035 202.906 42.2035H197.935C197.592 42.2035 197.314 42.4877 197.314 42.8382V46.8046C197.314 47.1551 197.592 47.4393 197.935 47.4393H199.844C200.175 52.217 204.064 55.9217 208.754 55.9276H209.764C214.69 55.9276 218.675 51.8349 218.675 46.8046V19.9119H220.306C220.649 19.9119 220.927 19.6277 220.927 19.2772C220.927 18.9267 220.649 18.6426 220.306 18.6426ZM198.556 43.4728H202.285V46.17H198.556V43.4728Z" fill="#6A97D8"/>
<circle cx="304.5" cy="352.5" r="37.5" fill="#F4F1DE"/>
<circle cx="304.621" cy="352.621" r="31.3391" stroke="#6A97D8" stroke-width="2"/>
<path d="M316.55 370.416H312.85L308.467 342.467H308.575C308.934 342.467 309.222 342.167 309.222 341.791V337.922C309.222 334.879 306.851 332.399 303.941 332.399C301.031 332.399 298.66 334.879 298.66 337.922V341.753C298.66 342.129 298.948 342.43 299.307 342.43H299.666L295.032 370.379H291.26V370.416C290.901 370.416 290.614 370.717 290.614 371.093C290.614 371.468 290.901 371.769 291.26 371.769H295.535H312.311H316.55C316.909 371.769 317.197 371.468 317.197 371.093C317.197 370.717 316.909 370.416 316.55 370.416ZM303.905 333.752C306.096 333.752 307.893 335.63 307.893 337.922V341.077H307.677H300.385H299.918V337.922H299.882C299.882 335.63 301.678 333.752 303.905 333.752ZM307.246 342.955C307.21 342.955 307.21 342.955 307.174 342.993L300.241 346.637L300.924 342.467H307.174L307.246 342.955ZM299.954 348.252L307.462 344.308L308.288 349.53L298.948 354.413L299.954 348.252ZM298.66 356.104L308.503 350.957L309.294 356.179L297.619 362.302L298.66 356.104ZM306.348 370.416H301.462V366.585C301.462 365.195 302.54 364.03 303.905 364.03C305.234 364.03 306.348 365.157 306.348 366.585V370.416ZM307.641 370.416V366.585C307.641 364.443 305.953 362.678 303.905 362.678C301.858 362.678 300.169 364.443 300.169 366.585V370.416H296.29L297.367 363.955L309.545 357.569L311.557 370.416H307.641Z" fill="#6A97D8"/>
<circle cx="100.5" cy="352.5" r="37.5" fill="#F4F1DE"/>
<circle cx="100.621" cy="352.621" r="31.3391" stroke="#6A97D8" stroke-width="2"/>
<path d="M115.754 348.803L91.9288 338.889V337.671C91.9288 337.386 91.6711 337.155 91.3536 337.155C91.0361 337.155 90.7784 337.386 90.7784 337.671V339.217V356.231V357.777V367.573C90.7784 367.858 91.0361 368.088 91.3536 368.088C91.6711 368.088 91.9288 367.858 91.9288 367.573V358.128L115.722 349.75C115.937 349.675 116.08 349.492 116.087 349.286C116.094 349.08 115.963 348.89 115.754 348.803ZM91.9288 357.021V356.231V340.025L114.051 349.231L91.9288 357.021Z" fill="#6A97D8"/>
<circle cx="37.5" cy="157.5" r="37.5" fill="#F4F1DE"/>
<circle cx="37.6208" cy="157.621" r="32.3391" fill="#6A97D8"/>
<path d="M42.6479 164.648C40.8199 164.648 38.7817 164.069 36.6045 162.509C29.2357 157.233 24.2348 162.215 24.026 162.43C23.7621 162.7 23.3299 162.706 23.0596 162.444C22.7888 162.181 22.7815 161.75 23.0427 161.479C23.102 161.417 29.0516 155.418 37.4004 161.397C44.7272 166.645 50.1065 159.333 50.3321 159.019C50.5532 158.712 50.9808 158.643 51.2863 158.863C51.5931 159.083 51.6628 159.51 51.4426 159.817C51.3957 159.882 47.8905 164.647 42.6479 164.648Z" fill="#F4F1DE"/>
<path d="M42.6473 160.339C40.8193 160.339 38.7811 159.76 36.6038 158.201C29.205 152.901 24.2346 157.904 24.0268 158.119C23.7642 158.391 23.332 158.399 23.0599 158.137C22.7877 157.875 22.7804 157.442 23.0421 157.17C23.1013 157.109 29.0509 151.109 37.3998 157.089C44.7257 162.335 50.1059 155.024 50.3315 154.71C50.5526 154.403 50.9802 154.335 51.2857 154.554C51.5925 154.774 51.6622 155.202 51.442 155.508C51.3951 155.574 47.8899 160.339 42.6473 160.339Z" fill="#F4F1DE"/>
<path d="M42.6496 155.601C40.8216 155.601 38.7834 155.022 36.6061 153.463C29.2374 148.186 24.2365 153.168 24.0277 153.383C23.7637 153.653 23.3316 153.659 23.0612 153.397C22.7905 153.135 22.7832 152.703 23.0444 152.432C23.1036 152.37 29.0532 146.371 37.4021 152.351C44.7289 157.598 50.1082 150.286 50.3338 149.972C50.5549 149.665 50.9825 149.596 51.288 149.816C51.5948 150.036 51.6645 150.464 51.4443 150.77C51.3974 150.836 47.8922 155.6 42.6496 155.601Z" fill="#F4F1DE"/>
</svg>
