<svg width="316" height="294" viewBox="0 0 316 294" fill="none" xmlns="http://www.w3.org/2000/svg">
<circle cx="76.5" cy="259.5" r="29.5" fill="#F4F1DE" stroke="#F4F1DE" stroke-width="10"/>
<circle cx="76.5" cy="259.5" r="28.5" stroke="#6A97D8" stroke-width="2"/>
<path d="M90.3815 255.832L90.3817 255.832C90.6388 255.94 90.8178 256.183 90.8083 256.464C90.7989 256.744 90.6056 256.977 90.3422 257.069L90.3815 255.832ZM90.3815 255.832L68.7711 246.839V245.862C68.7711 245.471 68.4252 245.192 68.0464 245.192C67.6676 245.192 67.3217 245.471 67.3217 245.862V247.273V262.792V264.203V273.139C67.3217 273.529 67.6676 273.809 68.0464 273.809C68.4252 273.809 68.7711 273.529 68.7711 273.139V264.665L90.342 257.07L90.3815 255.832ZM68.7711 262.792V248.309L88.1931 256.392L68.7711 263.231V262.792Z" fill="#6A97D8" stroke="#6A97D8" stroke-width="0.4"/>
<circle cx="242.5" cy="259.5" r="29.5" fill="#F4F1DE" stroke="#F4F1DE" stroke-width="10"/>
<circle cx="242.5" cy="259.5" r="28.5" stroke="#6A97D8" stroke-width="2"/>
<path d="M230.608 276.618H230.508V276.661C230.16 276.711 229.9 277.02 229.9 277.389C229.9 277.794 230.211 278.125 230.608 278.125H234.628H250.405H254.392C254.789 278.125 255.1 277.794 255.1 277.389C255.1 276.985 254.789 276.653 254.392 276.653H250.998L246.907 250.568C247.297 250.56 247.6 250.231 247.6 249.832V246.193C247.6 243.281 245.33 240.9 242.534 240.9C239.738 240.9 237.468 243.281 237.468 246.193V249.797C237.468 250.201 237.778 250.533 238.176 250.533H238.396L234.071 276.618H230.608ZM238.85 246.193V246.093H238.817C238.869 244.036 240.497 242.372 242.5 242.372C244.501 242.372 246.15 244.089 246.15 246.193V249.061H246.047H239.189H238.85V246.193ZM245.488 250.568L245.532 250.864C245.529 250.866 245.528 250.868 245.526 250.87C245.522 250.873 245.518 250.878 245.513 250.882L239.185 254.208L239.781 250.568H245.488ZM237.969 261.522L238.874 255.974L245.768 252.353L246.512 257.055L237.969 261.522ZM236.72 268.94L237.658 263.358L246.746 258.606L247.458 263.308L236.72 268.94ZM240.303 276.653V273.15C240.303 271.893 241.277 270.847 242.5 270.847C243.692 270.847 244.697 271.859 244.697 273.15V276.653H240.303ZM246.114 276.653V273.15C246.114 271.085 244.485 269.376 242.5 269.376C240.515 269.376 238.886 271.085 238.886 273.15V276.653H235.456L236.442 270.742L247.727 264.824L249.579 276.653H246.114Z" fill="#6A97D8" stroke="#6A97D8" stroke-width="0.2"/>
<circle cx="281.5" cy="118.5" r="29.5" fill="#F4F1DE" stroke="#F4F1DE" stroke-width="10"/>
<circle cx="281.5" cy="118.5" r="28.5" stroke="#6A97D8" stroke-width="2"/>
<path d="M283.322 111.129L283.322 111.129C282.914 111.076 282.648 110.64 282.687 110.19L283.322 111.129ZM283.322 111.129C285.052 111.354 286.727 112.109 288.167 113.314L288.167 113.314M283.322 111.129L288.167 113.314M288.167 113.314C288.29 113.417 288.434 113.469 288.578 113.469C288.817 113.469 289.041 113.329 289.176 113.088L289.176 113.088M288.167 113.314L289.176 113.088M289.176 113.088C289.389 112.705 289.313 112.181 288.991 111.911L288.991 111.911M289.176 113.088L288.991 111.911M288.991 111.911C287.357 110.544 285.451 109.684 283.478 109.426L283.478 109.426M288.991 111.911L283.478 109.426M283.478 109.426C283.065 109.374 282.726 109.738 282.687 110.19L283.478 109.426Z" fill="#6A97D8" stroke="#6A97D8" stroke-width="0.2"/>
<path d="M282.142 107.057C282.551 107.057 282.883 106.723 282.883 106.312V103.755C282.883 103.344 282.551 103.009 282.142 103.009C281.731 103.009 281.4 103.344 281.4 103.755V106.312C281.4 106.723 281.731 107.057 282.142 107.057Z" fill="#6A97D8" stroke="#6A97D8" stroke-width="0.2"/>
<path d="M274.819 109.512L274.819 109.512C274.701 109.587 274.572 109.623 274.444 109.623C274.182 109.623 273.932 109.473 273.797 109.215L274.819 109.512ZM274.819 109.512C275.174 109.286 275.29 108.795 275.09 108.413C275.09 108.413 275.09 108.413 275.09 108.413L273.814 105.983L273.814 105.982C273.611 105.597 273.153 105.456 272.791 105.685L272.791 105.685C272.436 105.911 272.32 106.403 272.52 106.784L272.52 106.784L273.797 109.215L274.819 109.512Z" fill="#6A97D8" stroke="#6A97D8" stroke-width="0.2"/>
<path d="M268.848 114.655L268.848 114.655C268.975 114.722 269.112 114.753 269.248 114.753C269.523 114.753 269.795 114.624 269.947 114.385L269.947 114.384C270.176 114.023 270.035 113.565 269.649 113.362L269.649 113.362L267.219 112.086L267.219 112.086C266.837 111.886 266.346 112.001 266.12 112.356L266.12 112.356C265.89 112.718 266.031 113.176 266.417 113.379C266.417 113.379 266.417 113.379 266.417 113.379L268.848 114.655Z" fill="#6A97D8" stroke="#6A97D8" stroke-width="0.2"/>
<path d="M296.791 121.707C296.791 122.117 297.126 122.448 297.537 122.448H300.094C300.505 122.448 300.839 122.117 300.839 121.707C300.839 121.297 300.505 120.965 300.094 120.965H297.537C297.126 120.965 296.791 121.297 296.791 121.707Z" fill="#6A97D8" stroke="#6A97D8" stroke-width="0.2"/>
<path d="M264.189 122.448H266.746C267.157 122.448 267.491 122.117 267.491 121.707C267.491 121.297 267.157 120.965 266.746 120.965H264.189C263.778 120.965 263.444 121.297 263.444 121.707C263.444 122.117 263.778 122.448 264.189 122.448Z" fill="#6A97D8" stroke="#6A97D8" stroke-width="0.2"/>
<path d="M295.436 114.655L295.436 114.655C295.31 114.722 295.171 114.753 295.036 114.753C294.761 114.753 294.489 114.624 294.337 114.385L294.337 114.384C294.108 114.023 294.249 113.565 294.635 113.362L294.635 113.362L297.065 112.086C297.447 111.886 297.938 112.001 298.164 112.356L295.436 114.655ZM295.436 114.655L297.867 113.379M295.436 114.655L297.867 113.379M297.867 113.379C298.253 113.176 298.394 112.718 298.164 112.356L297.867 113.379Z" fill="#6A97D8" stroke="#6A97D8" stroke-width="0.2"/>
<path d="M289.464 109.512L289.465 109.512L290.398 109.168L290.487 109.215L290.487 109.215L291.763 106.784C291.964 106.403 291.848 105.911 291.493 105.685L291.492 105.685C291.131 105.456 290.673 105.597 290.47 105.983L290.47 105.983L289.194 108.413C289.194 108.413 289.194 108.413 289.194 108.413C288.994 108.795 289.109 109.286 289.464 109.512Z" fill="#6A97D8" stroke="#6A97D8" stroke-width="0.2"/>
<path d="M277.019 127.379H266.743C266.336 127.379 266.009 127.712 266.009 128.12C266.009 128.528 266.336 128.861 266.743 128.861H277.019C277.425 128.861 277.753 128.528 277.753 128.12C277.753 127.712 277.425 127.379 277.019 127.379Z" fill="#6A97D8" stroke="#6A97D8" stroke-width="0.2"/>
<path d="M292.449 129.944H285.944C285.553 129.944 285.248 130.283 285.248 130.685C285.248 131.088 285.553 131.427 285.944 131.427H292.449C292.839 131.427 293.144 131.088 293.144 130.685C293.144 130.283 292.84 129.944 292.449 129.944Z" fill="#6A97D8" stroke="#6A97D8" stroke-width="0.2"/>
<path d="M296.181 132.508H293.754C293.316 132.508 292.944 132.831 292.944 133.25C292.944 133.669 293.316 133.991 293.754 133.991H296.181C296.619 133.991 296.991 133.669 296.991 133.25C296.991 132.831 296.619 132.508 296.181 132.508Z" fill="#6A97D8" stroke="#6A97D8" stroke-width="0.2"/>
<path d="M302.68 124.804H293.849C294.053 123.88 294.158 122.933 294.158 121.977C294.158 118.844 293.039 115.839 291.007 113.516L291.006 113.516C290.738 113.209 290.278 113.185 289.98 113.463L289.98 113.463C289.685 113.739 289.662 114.209 289.929 114.514C291.721 116.562 292.708 119.213 292.708 121.977C292.708 122.937 292.59 123.885 292.358 124.804H276.995C276.592 124.804 276.27 125.141 276.27 125.549C276.27 125.958 276.592 126.295 276.995 126.295H302.68C303.083 126.295 303.405 125.958 303.405 125.549C303.405 125.141 303.083 124.804 302.68 124.804Z" fill="#6A97D8" stroke="#6A97D8" stroke-width="0.2"/>
<path d="M280.778 109.428L280.778 109.428C274.688 110.243 270.1 115.636 270.1 121.969C270.1 122.926 270.205 123.876 270.41 124.801H261.606C261.201 124.801 260.878 125.138 260.878 125.548C260.878 125.958 261.201 126.295 261.606 126.295H274.592C274.996 126.295 275.319 125.958 275.319 125.548C275.319 125.138 274.996 124.801 274.592 124.801H271.909C271.675 123.881 271.555 122.93 271.555 121.969C271.555 116.38 275.604 111.627 280.966 110.909C281.367 110.856 281.645 110.479 281.594 110.073C281.543 109.666 281.18 109.374 280.778 109.428Z" fill="#6A97D8" stroke="#6A97D8" stroke-width="0.2"/>
<path d="M188 29.5C188 45.2401 175.24 58 159.5 58C143.76 58 131 45.2401 131 29.5C131 13.7599 143.76 1 159.5 1C175.24 1 188 13.7599 188 29.5Z" fill="#F4F1DE" stroke="#6A97D8" stroke-width="2"/>
<path d="M144.237 24.6387V24.6398L144.225 26.4543C144.225 26.4545 144.225 26.4547 144.225 26.4549C144.229 30.0139 146.607 32.8433 149.478 32.8384C152.349 32.8334 154.72 29.9957 154.717 26.437C154.717 26.4368 154.717 26.4367 154.717 26.4366L154.867 26.4365C154.865 26.0684 155.106 25.7663 155.41 25.756L144.237 24.6387ZM144.237 24.6387V24.6291C144.237 21.5698 146.304 19.1347 148.765 19.1347H165.25C167.714 19.1369 169.757 21.568 169.76 24.6318L169.76 24.6429L169.76 24.6453L169.789 26.4537C169.789 26.454 169.789 26.4544 169.789 26.4548C169.791 28.755 168.778 30.8691 167.152 32.0058C165.531 33.139 163.539 33.135 161.921 31.9949L161.921 31.9949C160.298 30.8514 159.291 28.7323 159.3 26.4316V26.4312C159.301 26.2209 159.234 26.0143 159.109 25.8555L144.237 24.6387ZM171.175 26.4465V26.4464V26.4464V26.4464V26.4464V26.4463V26.4463V26.4463V26.4463V26.4462V26.4462V26.4462V26.4462V26.4461V26.4461V26.4461V26.4461V26.446V26.446V26.446V26.446V26.4459V26.4459V26.4459V26.4459V26.4458V26.4458V26.4458V26.4458V26.4457V26.4457V26.4457V26.4457V26.4456V26.4456V26.4456V26.4456V26.4455V26.4455V26.4455V26.4455V26.4454V26.4454V26.4454V26.4454V26.4454V26.4453V26.4453V26.4453V26.4453V26.4452V26.4452V26.4452V26.4452V26.4451V26.4451V26.4451V26.4451V26.445V26.445V26.445V26.445V26.4449V26.4449V26.4449V26.4449V26.4448V26.4448V26.4448V26.4448V26.4447V26.4447V26.4447V26.4447V26.4447V26.4446V26.4446V26.4446V26.4446V26.4445V26.4445V26.4445V26.4445V26.4444V26.4444V26.4444V26.4444V26.4443V26.4443V26.4443V26.4443V26.4442V26.4442V26.4442V26.4442V26.4441V26.4441V26.4441V26.4441V26.4441V26.444V26.444V26.444V26.444V26.4439V26.4439V26.4439V26.4439V26.4438V26.4438V26.4438V26.4438V26.4437V26.4437V26.4437V26.4437V26.4436V26.4436V26.4436V26.4436V26.4435V26.4435V26.4435V26.4435V26.4435V26.4434V26.4434V26.4434V26.4434V26.4433V26.4433V26.4433V26.4433V26.4432V26.4432V26.4432V26.4432V26.4431V26.4431V26.4431V26.4431V26.443V26.443V26.443V26.443V26.443V26.4429V26.4429V26.4429V26.4429V26.4428V26.4428V26.4428V26.4428V26.4427V26.4427V26.4427V26.4427V26.4426V26.4426V26.4426V26.4426V26.4425V26.4425V26.4425V26.4425V26.4424V26.4424V26.4424V26.4424V26.4424V26.4423V26.4423V26.4423V26.4423V26.4422V26.4422V26.4422V26.4422V26.4421V26.4421V26.4421V26.4421V26.442V26.442V26.442V26.442V26.4419V26.4419V26.4419V26.4419V26.4419V26.4418V26.4418V26.4418V26.4418V26.4417V26.4417V26.4417V26.4417V26.4416V26.4416V26.4416V26.4416V26.4415V26.4415V26.4415V26.4415V26.4414V26.4414V26.4414V26.4414V26.4413V26.4413V26.4413V26.4413V26.4413V26.4412V26.4412V26.4412V26.4412V26.4411V26.4411V26.4411V26.4411V26.441V26.441V26.441V26.441V26.4409V26.4409V26.4409V26.4409V26.4408V26.4408V26.4408V26.4408V26.4408V26.4407V26.4407V26.4407V26.4407V26.4406V26.4406V26.4406V26.4406V26.4405V26.4405V26.4405V26.4405V26.4404V26.4404V26.4404V26.4404V26.4403V26.4403V26.4403V26.4403V26.4402V26.4402V26.4402V26.4402V26.4402V26.4401V26.4401V26.4401V26.4401V26.44V26.44V26.44V26.44V26.4399V26.4399V26.4399V26.4399V26.4398V26.4398V26.4398V26.4398V26.4397V26.4397V26.4397V26.4397V26.4396V26.4396V26.4396V26.4396V26.4395V26.4395V26.4395V26.4395V26.4395V26.4394V26.4394V26.4394V26.4394V26.4393V26.4393V26.4393V26.4393V26.4392V26.4392V26.4392V26.4392V26.4391V26.4391V26.4391V26.4391V26.439V26.439V26.439V26.439V26.4389V26.4389V26.4389V26.4389V26.4388V26.4388V26.4388V26.4388V26.4387V26.4387V26.4387V26.4387V26.4387V26.4386V26.4386V26.4386V26.4386V26.4385V26.4385V26.4385V26.4385V26.4384V26.4384V26.4384V26.4384V26.4383V26.4383V26.4383V26.4383V26.4382V26.4382V26.4382V26.4382V26.4381V26.4381V26.4381V26.4381V26.438V26.438V26.438V26.438V26.4379V26.4379V26.4379V26.4379V26.4378V26.4378V26.4378V26.4378V26.4377V26.4377V26.4377V26.4377V26.4376V26.4376V26.4376V26.4376V26.4375V26.4375V26.4375V26.4375V26.4374V26.4374V26.4374V26.4374V26.4373V26.4373V26.4373V26.4373V26.4372V26.4372V26.4372V26.4372V26.4371V26.4371V26.4371V26.4371V26.437V26.437V26.437V26.437V26.437V26.4369V26.4369V26.4369V26.4369V26.4368V26.4368V26.4368V26.4368V26.4367V26.4367V26.4367V26.4367V26.4366V26.4366V26.4366V26.4366V26.4365V26.4365V26.4365V26.4365V26.4364V26.4364V26.4364V26.4363V26.4363V26.4363V26.4363V26.4362V26.4362V26.4362V26.4362V26.4361V26.4361V26.4361V26.4361V26.436V26.436V26.436V26.436V26.4359V26.4359V26.4359V26.4359V26.4358V26.4358V26.4358V26.4358V26.4357V26.4357V26.4357V26.4357V26.4356V26.4356V26.4356V26.4356V26.4355V26.4355V26.4355V26.4355V26.4354V26.4354V26.4354V26.4354V26.4353V26.4353V26.4353V26.4353V26.4352V26.4352V26.4352V26.4352V26.4351V26.4351V26.4351V26.4351V26.435V26.435V26.435V26.4349V26.4349V26.4349V26.4349V26.4348V26.4348V26.4348V26.4348V26.4347V26.4347V26.4347V26.4347V26.4346V26.4346V26.4346V26.4346V26.4345V26.4345V26.4345V26.4345V26.4344V26.4344V26.4344V26.4344V26.4343V26.4343V26.4343V26.4342V26.4342V26.4342V26.4342V26.4341V26.4341V26.4341V26.4341V26.434V26.434V26.434V26.434V26.4339V26.4339L171.175 26.4339L171.175 26.4315L171.146 24.625C171.146 24.6246 171.146 24.6243 171.146 24.6239C171.139 20.7268 168.528 17.5203 165.251 17.517H165.251L148.765 17.517L148.764 17.517C145.487 17.5207 142.876 20.7283 142.87 24.6259C142.87 24.6261 142.87 24.6264 142.87 24.6266L142.85 26.4386H142.85V26.4403L142.85 26.4496L142.85 26.4497C142.852 30.8408 145.791 34.4514 149.476 34.458H149.476C152.929 34.458 155.737 31.2648 156.071 27.2404L157.947 27.2399C158.293 31.4237 161.279 34.6178 164.817 34.4421C168.392 34.2642 171.173 30.7126 171.175 26.4465Z" fill="#6A97D8" stroke="#6A97D8" stroke-width="0.3"/>
<path d="M165.379 48.15H165.379H166.32C171.001 48.15 174.772 44.1226 174.772 39.1915V13.3755H176.142C176.552 13.3755 176.871 13.0259 176.871 12.6128C176.871 12.1997 176.552 11.85 176.142 11.85H171.8C171.389 11.85 171.071 12.1997 171.071 12.6128C171.071 13.0259 171.389 13.3755 171.8 13.3755H173.314V39.1915C173.314 43.2987 170.18 46.6245 166.32 46.6245H165.38C161.786 46.6199 158.774 43.7392 158.402 39.9543H159.931C160.342 39.9543 160.66 39.6046 160.66 39.1915V35.3617C160.66 34.9486 160.342 34.5989 159.931 34.5989H155.3C154.889 34.5989 154.571 34.9486 154.571 35.3617V39.1915C154.571 39.6046 154.889 39.9543 155.3 39.9543H156.939C157.315 44.5712 160.968 48.1443 165.379 48.15ZM156.029 36.1245H159.202V38.4287H156.029V36.1245Z" fill="#6A97D8" stroke="#6A97D8" stroke-width="0.3"/>
<path d="M85.8756 202.696C108.793 209.776 161.004 215.848 186.514 183.496C218.4 143.056 174.897 111.47 166.846 112.19C179.558 109.39 199.671 110.878 216.705 134.398C227.292 149.307 246.422 183.84 238.247 202.696" stroke="#2C3B51" stroke-width="0.8"/>
<path d="M128.892 183.649C137.988 180.896 157.09 170.938 160.728 153.129" stroke="#2C3B51" stroke-width="0.8"/>
<path d="M141.1 182.811C149.039 180.298 165.42 168.401 167.431 140.921" stroke="#2C3B51" stroke-width="0.8"/>
<path d="M163.96 143.195C167.191 135.615 169.705 113.753 151.154 103.938" stroke="#2C3B51" stroke-width="0.8"/>
<path d="M165.636 172.4C170.703 165.577 179.017 146.715 171.74 125.842" stroke="#2C3B51" stroke-width="0.8"/>
<path d="M176.647 165.218C179.559 162.185 184.594 153.321 181.434 142.118" stroke="#2C3B51" stroke-width="0.8"/>
<path d="M189.582 117.176C193.571 118.652 204.435 124.027 209.126 132.931" stroke="#2C3B51" stroke-width="0.8"/>
<path d="M129.371 212.613C142.217 213.212 170.686 211.728 181.793 201.004" stroke="#2C3B51" stroke-width="0.8"/>
<path d="M115.727 216.804C135.834 220.115 179.759 221.065 194.6 198.372" stroke="#2C3B51" stroke-width="0.8"/>
<path d="M162.763 223.265C178.242 221.111 210.709 209.358 216.741 179.58" stroke="#2C3B51" stroke-width="0.8"/>
<path d="M43.4362 195.378C46.3086 196.974 56.8649 200.955 76.1104 204.115" stroke="#2C3B51" stroke-width="0.8"/>
<path d="M170.151 121.236C169.879 121.449 169.791 121.542 169.925 121.87C170.009 122.077 170.237 122.048 170.395 121.969C170.698 121.818 170.71 121.495 170.436 121.282C170.225 121.118 169.997 121.695 169.997 121.842C169.997 122.173 170.314 121.752 170.314 121.562" stroke="#2C3B51" stroke-width="0.8" stroke-linecap="round" stroke-linejoin="round"/>
<path d="M160.072 178.21C159.999 178.297 159.88 178.285 159.798 178.223C159.768 178.218 159.74 178.209 159.714 178.202C159.602 178.17 159.565 177.966 159.666 177.897C159.698 177.875 159.736 177.868 159.776 177.87C159.793 177.854 159.82 177.844 159.856 177.844C159.951 177.844 159.976 177.895 160.035 177.963C160.037 177.966 160.039 177.968 160.041 177.971C160.128 178.033 160.152 178.113 160.072 178.21Z" fill="#F4F1DE"/>
<path d="M159.738 177.963C159.613 178.174 159.931 178.379 160.072 178.21C160.156 178.109 160.125 178.026 160.03 177.963C159.943 177.906 159.768 177.827 159.666 177.897C159.565 177.966 159.602 178.17 159.714 178.202C159.781 178.221 159.87 178.249 159.938 178.212C160.009 178.174 160.105 178.043 160.035 177.963C159.976 177.895 159.951 177.844 159.856 177.844C159.728 177.844 159.721 177.973 159.833 178.011" stroke="#2C3B51" stroke-width="0.8" stroke-linecap="round" stroke-linejoin="round"/>
<path d="M203.192 191.301C203.179 191.296 203.167 191.29 203.156 191.284C203.144 191.283 203.131 191.282 203.118 191.281C202.57 191.226 202.656 190.647 202.988 190.498C203.116 190.441 203.28 190.447 203.459 190.571C203.601 190.669 203.878 190.958 203.714 191.151C203.599 191.287 203.359 191.375 203.192 191.301Z" fill="#F4F1DE"/>
<path d="M203.01 190.386C202.954 190.696 202.82 191.138 203.192 191.301C203.359 191.375 203.599 191.287 203.714 191.151C203.878 190.958 203.601 190.669 203.459 190.571C202.815 190.125 202.36 191.205 203.118 191.281C203.805 191.349 203.393 190.618 203.168 190.744C202.95 190.865 203.006 191.18 203.274 191.061C203.393 191.008 203.443 190.919 203.327 190.861" stroke="#2C3B51" stroke-width="0.8" stroke-linecap="round" stroke-linejoin="round"/>
<path d="M42 173.594C66.8149 182.531 122.142 194.252 144.93 169.644C167.718 145.037 162.085 123.725 156.42 116.145C155.303 113.113 150.076 106.546 138.108 104.535C123.147 102.022 179.519 86.8218 233.138 129.071C242.254 136.024 262.711 163.935 268 199.518" stroke="#2C3B51" stroke-width="0.8"/>
<path d="M215.407 154.176C215.477 154.278 215.466 154.386 215.412 154.484C215.417 154.514 215.42 154.551 215.42 154.599C215.42 154.956 214.977 154.794 214.834 154.571C214.619 154.236 215.228 153.916 215.407 154.176Z" fill="#F4F1DE"/>
<path d="M215.025 154.176C214.938 154.305 214.83 154.439 214.975 154.568C215.067 154.65 215.206 154.722 215.307 154.621C215.435 154.493 215.512 154.328 215.407 154.176C215.228 153.916 214.619 154.236 214.834 154.571C214.977 154.794 215.42 154.956 215.42 154.599C215.42 154.193 215.226 154.522 215.194 154.458" stroke="#2C3B51" stroke-width="0.8" stroke-linecap="round" stroke-linejoin="round"/>
<path d="M126.268 126.892C128.594 126.474 129.714 125.655 131.089 123.793C131.17 123.681 131.294 123.309 131.23 123.168C131.187 123.072 131.249 122.895 131.249 122.785V121.875C131.249 121.617 131.206 121.379 131.24 121.12C131.273 120.872 131.268 120.619 131.287 120.371C131.302 120.173 131.327 120.023 131.293 119.819C131.27 119.679 131.233 119.384 131.103 119.302C130.844 119.139 130.608 118.904 130.352 118.726C129.995 118.48 129.569 118.209 129.305 117.86C129.051 117.523 128.992 117.108 128.94 116.7C128.902 116.408 129.051 115.903 129.269 115.696C129.475 115.5 129.652 115.343 129.964 115.347C130.324 115.351 130.799 115.527 131.081 115.747C131.317 115.93 131.556 116.102 131.786 116.296C131.929 116.416 132.312 116.76 132.492 116.82C132.523 116.123 132.849 115.57 133.092 114.939C133.287 114.436 133.601 114.048 133.861 113.585C133.942 113.442 134.043 113.304 134.142 113.171C134.289 112.975 134.408 113.075 134.63 113.113C135.412 113.246 136.345 113.178 137.026 112.742C137.674 112.327 138.27 111.887 138.883 111.427C139.279 111.13 139.459 111.185 139.905 111.377C140.977 111.836 140.771 113.097 141.06 114.038C141.311 114.852 141.325 115.76 141.466 116.609C141.703 118.033 141.648 119.558 141.622 121.003C141.614 121.451 141.412 122.284 141.099 122.642C140.976 122.782 140.867 122.952 140.744 123.102C140.626 123.246 140.39 123.257 140.233 123.352C139.556 123.763 138.94 123.836 138.208 124.019C137.55 124.996 138.497 128.121 139.522 128.755C140.068 129.092 140.689 130.14 141.099 130.647C141.603 131.27 142.228 131.866 142.938 132.279C144.102 132.956 145.905 134.519 146.412 135.773C147.325 138.03 148.999 140.174 149.784 142.503C151.239 146.821 154.527 150.373 156.66 154.171C157.774 156.155 160.027 158.033 161.535 159.773C162.805 161.239 164.113 162.748 166.192 162.748C167.335 162.748 171.798 164.488 169.359 165.867C168.962 166.092 168.905 166.511 168.425 166.647C167.985 166.772 167.517 166.908 167.111 167.109C166.183 167.568 164.819 167.429 163.841 167.152C162.786 166.854 161.397 165.357 160.484 164.712C159.053 163.701 157.594 162.689 156.222 161.578C154.644 160.301 153.405 158.484 152.193 156.885C151.183 155.554 149.797 154.207 148.981 152.755C147.92 150.866 147.021 148.858 145.843 147.037C144.923 145.615 144.468 143.953 143.405 142.589C142.785 141.794 142.052 141.029 141.157 140.51C140.635 140.207 139.558 141.929 139.216 142.243C136.916 144.355 134.663 146.468 132.048 148.192C130.537 149.189 127.566 151.705 127.158 153.521C126.731 155.421 126.647 157.09 126.647 159.109V164.308C126.647 165.309 126.337 166.728 125.99 167.687C125.573 168.844 126.208 169.948 125.918 171.066C125.382 171.65 125.559 171.474 124.151 171.586C123.454 171.279 122.198 171.309 121.656 170.772C120.769 170.597 118.759 169.486 117.93 168.666C117.567 168.307 117.849 168.089 117.699 167.571C117.471 166.781 116.499 165.921 116.4 165.088C116.247 163.797 115.423 164.149 114.692 164.712C113.44 165.676 112.536 166.893 111.408 167.947C109.641 169.598 104.563 163.503 103.394 162.604C102.104 161.611 100.494 160.647 102.343 159.225C105.002 157.179 106.454 153.509 109.422 151.831C111.472 150.673 112.854 147.592 113.904 145.723C114.893 143.962 115.075 141.989 115.67 140.077C116.197 138.383 116.4 136.18 116.4 134.416C116.4 132.206 118.976 129.12 121.246 128.712C122.942 128.407 124.516 127.208 126.268 126.892Z" fill="#F4F1DE"/>
<path d="M131.114 123.759C129.728 125.645 128.608 126.472 126.268 126.892C124.516 127.208 122.942 128.407 121.246 128.712C118.976 129.12 116.4 132.206 116.4 134.416C116.4 136.18 116.197 138.383 115.67 140.077C115.075 141.989 114.893 143.962 113.904 145.723C112.854 147.592 111.472 150.673 109.422 151.831C106.454 153.509 105.002 157.179 102.343 159.225C100.494 160.647 102.104 161.611 103.394 162.604C104.563 163.503 109.641 169.598 111.408 167.947C112.536 166.893 113.44 165.676 114.692 164.712C115.423 164.149 116.247 163.797 116.4 165.088C116.499 165.921 117.471 166.781 117.699 167.571C117.849 168.089 117.567 168.307 117.93 168.666C118.759 169.486 120.769 170.597 121.656 170.772C122.198 171.309 123.454 171.279 124.151 171.586C125.559 171.474 125.382 171.65 125.918 171.066C126.208 169.948 125.573 168.844 125.99 167.687C126.337 166.728 126.647 165.309 126.647 164.308V159.109C126.647 157.09 126.731 155.421 127.158 153.521C127.566 151.705 130.537 149.189 132.048 148.192C134.663 146.468 136.916 144.355 139.216 142.243C139.558 141.929 140.635 140.207 141.157 140.51C142.052 141.029 142.785 141.794 143.405 142.589C144.468 143.953 144.923 145.615 145.843 147.037C147.021 148.858 147.92 150.866 148.981 152.755C149.797 154.207 151.183 155.554 152.193 156.885C153.405 158.484 154.644 160.301 156.222 161.578C157.594 162.689 159.053 163.701 160.484 164.712C161.397 165.357 162.786 166.854 163.841 167.152C164.819 167.429 166.183 167.568 167.111 167.109C167.517 166.908 167.985 166.772 168.425 166.647C168.905 166.511 168.962 166.092 169.359 165.867C171.798 164.488 167.335 162.748 166.192 162.748C164.113 162.748 162.805 161.239 161.535 159.773C160.027 158.033 157.774 156.155 156.66 154.171C154.527 150.373 151.239 146.821 149.784 142.503C148.999 140.174 147.325 138.03 146.412 135.773C145.905 134.519 144.102 132.956 142.938 132.279C142.228 131.866 141.603 131.27 141.099 130.647C140.689 130.14 140.068 129.092 139.522 128.755C138.497 128.121 137.55 124.996 138.208 124.019C138.94 123.836 139.556 123.763 140.233 123.352C140.39 123.257 140.626 123.246 140.744 123.102C140.867 122.952 140.976 122.782 141.099 122.642C141.412 122.284 141.614 121.451 141.622 121.003C141.648 119.558 141.703 118.033 141.466 116.609C141.325 115.76 141.311 114.852 141.06 114.038C140.771 113.097 140.977 111.836 139.905 111.377C139.459 111.185 139.279 111.13 138.883 111.427C138.27 111.887 137.674 112.327 137.026 112.742C136.345 113.178 135.412 113.246 134.63 113.113C134.408 113.075 134.289 112.975 134.142 113.171C134.043 113.304 133.942 113.442 133.861 113.585C133.601 114.048 133.287 114.436 133.092 114.939C132.849 115.57 132.523 116.123 132.492 116.82C132.312 116.76 131.929 116.416 131.786 116.296C131.556 116.102 131.317 115.93 131.081 115.747C130.799 115.527 130.324 115.351 129.964 115.347C129.652 115.343 129.475 115.5 129.269 115.696C129.051 115.903 128.902 116.408 128.94 116.7C128.992 117.108 129.051 117.523 129.305 117.86C129.569 118.209 129.995 118.48 130.352 118.726C130.608 118.904 130.844 119.139 131.103 119.302C131.233 119.384 131.27 119.679 131.293 119.819C131.327 120.023 131.302 120.173 131.287 120.371C131.268 120.619 131.273 120.872 131.24 121.12C131.206 121.379 131.249 121.617 131.249 121.875V122.785C131.249 122.895 131.187 123.072 131.23 123.168C131.294 123.309 131.17 123.681 131.089 123.793" stroke="#2C3B51" stroke-width="0.6" stroke-linecap="round" stroke-linejoin="round"/>
<path d="M116.489 138.333C116.489 143.139 117.67 147.423 118.729 152.037C118.988 153.163 119.318 154.295 119.433 155.446C119.545 156.579 119.828 157.635 119.828 158.774C119.828 160.096 120.086 161.421 120.247 162.733C120.404 164.02 120.463 165.326 120.724 166.599C120.907 167.494 121.424 167.734 122.259 167.424C123.107 167.108 123.387 166.621 123.387 165.763C123.387 165.385 123.428 164.985 123.381 164.611C123.346 164.325 123.188 164.023 123.178 163.739C123.146 162.895 123.018 161.955 122.84 161.131C122.628 160.141 122.613 159.153 122.544 158.148C122.504 157.566 122.351 156.978 122.34 156.394C122.329 155.802 122.34 155.066 122.183 154.499C121.988 153.794 122.026 152.863 122.026 152.13C122.026 150.651 121.817 149.194 121.817 147.715C121.817 146.584 121.817 145.453 121.817 144.323C121.817 143.028 122.131 141.783 122.131 140.498C122.131 139.414 122.424 138.377 122.445 137.281C122.461 136.401 122.654 135.603 122.654 134.708" stroke="#2C3B51" stroke-width="0.6" stroke-linecap="round" stroke-linejoin="round"/>
<path d="M51.9512 205.006C52.4775 194.818 148.82 187.371 143.347 200.56C135.049 213.487 50.0175 215.544 51.9512 205.006Z" fill="#F4F1DE" stroke="#2C3B51" stroke-width="0.6"/>
<path d="M51.9511 205.006C73.4466 200.183 136.242 198.529 143.571 200.872" stroke="#2C3B51" stroke-width="0.6"/>
<path d="M52.8179 206.872C77.37 203.189 130.256 200.113 142.097 202.105" stroke="#2C3B51" stroke-width="0.6"/>
<path d="M114.184 145.655C114.924 146.477 115.65 147.226 116.557 147.776C116.746 147.891 116.964 148.023 117.133 148.167C117.297 148.307 117.498 148.367 117.641 148.536" stroke="#2C3B51" stroke-width="0.6" stroke-linecap="round" stroke-linejoin="round"/>
<path d="M122.251 150.266C122.564 150.667 123.108 150.923 123.579 151.128C124.263 151.425 124.858 151.867 125.532 152.17C125.998 152.38 126.418 152.677 126.879 152.891C127.061 152.975 127.271 153.042 127.437 153.147" stroke="#2C3B51" stroke-width="0.6" stroke-linecap="round" stroke-linejoin="round"/>
<path d="M139.782 111.337C140.517 112.298 141.191 114.022 141.191 115.233C141.191 115.619 141.44 115.979 141.448 116.382C141.462 117.071 141.627 120.258 141.647 120.945C141.647 122.364 139.86 124.093 138.369 124.093C137.504 124.093 137.018 124.141 136.218 123.878C135.83 123.75 135.525 123.687 135.141 123.538C134.785 123.4 133.925 123.093 133.76 122.78" stroke="#2C3B51" stroke-width="0.6" stroke-linecap="round" stroke-linejoin="round"/>
<path d="M131.07 119.455C130.67 119.144 130.193 118.944 129.831 118.59C129.576 118.341 129.237 117.963 129.094 117.636C128.819 117.009 128.715 115.726 129.457 115.387C130.103 115.093 130.509 115.464 131.011 115.752C131.534 116.053 131.89 116.453 132.368 116.803" stroke="#2C3B51" stroke-width="0.6" stroke-linecap="round" stroke-linejoin="round"/>
<path d="M130.436 118.992C130.542 119.351 130.575 120.053 130.28 120.384" stroke="#2C3B51" stroke-width="0.6" stroke-linecap="round" stroke-linejoin="round"/>
<path d="M140.772 113.456C140.302 113.446 139.559 113.266 139.559 113.894C139.559 114.134 139.809 114.151 140.026 114.092C140.252 114.031 140.436 114.013 140.682 114.013C140.779 114.013 140.951 114.114 140.951 114.114C140.951 114.114 140.854 113.906 140.817 113.799C140.794 113.733 140.745 113.615 140.659 113.615C140.481 113.615 140.615 113.89 140.502 113.947C140.481 113.957 140.312 113.654 140.288 113.615C140.222 113.511 140.108 113.84 140.078 113.894C139.936 114.146 139.694 113.304 139.694 113.814" stroke="#2C3B51" stroke-width="0.6" stroke-linecap="round" stroke-linejoin="round"/>
<path d="M138.308 114.461C138.406 114.43 138.406 114.282 138.379 114.127C138.403 114.041 138.408 113.924 138.38 113.862C138.282 113.644 138.094 113.611 137.932 113.712C137.616 113.907 137.176 114.021 136.822 114.043C136.589 114.057 136.59 114.147 136.456 114.297C136.304 114.466 136.219 114.585 136.471 114.585H137.784C137.965 114.585 138.137 114.516 138.308 114.461Z" fill="#F4F1DE"/>
<path d="M138.284 113.742C138.302 113.847 138.508 114.398 138.308 114.461C138.137 114.516 137.965 114.585 137.784 114.585C137.347 114.585 136.909 114.585 136.471 114.585C136.219 114.585 136.304 114.466 136.456 114.297C136.59 114.147 136.589 114.057 136.822 114.043C137.176 114.021 137.616 113.907 137.932 113.712C138.094 113.611 138.282 113.644 138.38 113.862C138.442 114.001 138.342 114.416 138.229 114.133C138.14 113.909 137.858 114.054 137.971 114.21C138.129 114.431 138.063 114.303 137.905 114.21C137.835 114.169 137.738 114.125 137.661 114.106C137.502 114.067 137.669 114.265 137.688 114.314C137.811 114.622 137.302 114.42 137.258 114.25C137.207 114.052 137.184 114.518 136.997 114.331C136.938 114.272 136.932 114.21 136.865 114.271C136.838 114.294 136.642 114.284 136.714 114.284" stroke="#2C3B51" stroke-width="0.6" stroke-linecap="round" stroke-linejoin="round"/>
<path d="M138.631 115.506C138.483 115.44 138.331 115.402 138.179 115.349C138.07 115.312 137.956 115.33 137.846 115.303C137.713 115.27 137.534 115.257 137.419 115.362C137.367 115.41 137.293 115.428 137.239 115.469C137.159 115.53 137.092 115.608 137.016 115.674C136.925 115.752 136.879 115.918 136.775 115.975" stroke="#2C3B51" stroke-width="0.6" stroke-linecap="round" stroke-linejoin="round"/>
<path d="M137.652 115.279C137.785 115.383 138.185 115.743 137.706 115.743C137.595 115.743 137.527 115.748 137.479 115.656C137.447 115.596 137.516 115.45 137.579 115.424" stroke="#2C3B51" stroke-width="0.6" stroke-linecap="round" stroke-linejoin="round"/>
<path d="M140.951 115.097C140.578 115.004 140.291 115.036 140.023 115.281" stroke="#2C3B51" stroke-width="0.6" stroke-linecap="round" stroke-linejoin="round"/>
<path d="M140.719 115.279C140.776 115.279 140.82 115.279 140.951 115.279" stroke="#2C3B51" stroke-width="0.6" stroke-linecap="round" stroke-linejoin="round"/>
<path d="M140.256 121.312C139.779 121.312 138.632 121.1 138.632 120.384" stroke="#2C3B51" stroke-width="0.6" stroke-linecap="round" stroke-linejoin="round"/>
<path d="M138.631 120.384C138.581 120.527 138.541 120.792 138.399 120.848" stroke="#2C3B51" stroke-width="0.6" stroke-linecap="round" stroke-linejoin="round"/>
<path d="M140.023 116.905C140.143 117.662 140.338 118.344 140.678 119.02C140.894 119.451 140.202 119.919 140.023 119.563" stroke="#2C3B51" stroke-width="0.6" stroke-linecap="round" stroke-linejoin="round"/>
<path d="M139.327 110.266C138.512 109.311 137.573 108.625 136.456 108.049C135.894 107.759 135.187 107.731 134.57 107.65C133.217 107.472 132.109 108.285 131.066 109.01C130.305 109.539 129.549 110.208 129.07 111.003C128.834 111.395 128.685 111.846 128.421 112.22C128.112 112.658 128.039 113.247 127.775 113.716C127.345 114.481 127.141 115.827 127.34 116.686C127.543 117.563 128.048 118.554 128.612 119.256C128.781 119.467 128.908 119.684 129.074 119.895C129.23 120.093 129.531 120.484 129.736 120.609C129.868 120.689 130.01 120.91 130.086 121.043C130.128 121.117 130.296 121.478 130.296 121.221" stroke="#2C3B51" stroke-width="0.6" stroke-linecap="round" stroke-linejoin="round"/>
<path d="M130.381 121.312C129.863 120.788 129.5 120.014 129.215 119.342C129.063 118.987 128.849 118.651 128.774 118.266C128.711 117.942 128.608 117.608 128.515 117.291C128.297 116.551 128.513 115.814 128.732 115.109C128.893 114.595 129.012 114.06 129.225 113.565C129.399 113.159 129.615 112.766 129.835 112.381C130.057 111.991 130.288 111.595 130.507 111.203C130.683 110.885 130.965 110.642 131.155 110.335C131.314 110.077 131.591 109.845 131.789 109.611C131.982 109.382 132.18 109.181 132.399 108.982C132.754 108.657 133.204 108.388 133.645 108.193C133.973 108.047 134.319 107.856 134.688 107.856" stroke="#2C3B51" stroke-width="0.6" stroke-linecap="round" stroke-linejoin="round"/>
<path d="M135.152 107.856C134.946 107.856 134.709 107.886 134.521 107.97C134.44 108.006 134.351 108.012 134.268 108.04C134.117 108.09 133.989 108.196 133.837 108.242C133.454 108.361 133.08 108.477 132.741 108.699C132.3 108.987 131.896 109.321 131.489 109.666C131.233 109.882 130.965 110.079 130.7 110.285C130.607 110.358 130.488 110.433 130.42 110.531C130.335 110.654 130.307 110.785 130.227 110.909C130.078 111.142 129.915 111.373 129.77 111.611C129.676 111.764 129.544 111.894 129.456 112.05C129.346 112.245 129.266 112.437 129.158 112.637C128.995 112.938 128.797 113.251 128.667 113.568C128.611 113.707 128.549 113.878 128.457 113.997C128.354 114.131 128.313 114.449 128.255 114.613C128.168 114.856 128.096 115.135 128.037 115.387C127.929 115.845 127.966 116.32 127.966 116.787C127.966 117.229 128.303 117.771 128.5 118.146C128.663 118.456 128.807 118.772 128.963 119.085C129.169 119.498 129.267 120.014 129.544 120.384" stroke="#2C3B51" stroke-width="0.6" stroke-linecap="round" stroke-linejoin="round"/>
<path d="M129.816 118.527C129.981 118.993 130.203 119.422 130.389 119.873C130.52 120.19 130.597 120.568 130.353 120.847" stroke="#2C3B51" stroke-width="0.6" stroke-linecap="round" stroke-linejoin="round"/>
<path d="M138.684 110.952C138.953 111.105 139.154 111.138 139.443 111.235C139.503 111.255 139.807 111.351 139.791 111.335C139.691 111.238 139.631 111.132 139.507 111.039C139.283 110.871 138.925 110.873 138.632 110.873" stroke="#2C3B51" stroke-width="0.6" stroke-linecap="round" stroke-linejoin="round"/>
<path d="M140.279 111.925C140.178 111.376 140.097 111.191 139.624 110.972C139.261 110.803 138.866 111.041 138.558 111.234C137.431 111.938 136.391 112.709 135.024 112.867C134.28 112.953 133.643 113.053 132.926 112.797C132.705 112.718 132.484 112.636 132.312 112.467C132.156 112.314 132.014 112.196 132.303 112.27C132.662 112.361 133.055 112.349 133.424 112.349C133.809 112.349 134.135 112.164 134.502 112.137C135.191 112.087 135.83 111.638 136.345 111.21C136.986 110.677 137.775 110.177 138.622 110.177C139.181 110.177 139.606 110.318 140.07 110.621C140.503 110.904 140.487 111.222 140.487 111.713" stroke="#2C3B51" stroke-width="0.6" stroke-linecap="round" stroke-linejoin="round"/>
<path d="M140.487 110.894C139.869 110.132 138.508 109.641 137.52 109.724C136.108 109.843 135.299 110.908 134.29 111.709C133.733 112.152 132.78 112.28 132.096 112.423C131.843 112.475 131.531 112.516 131.273 112.471C131.078 112.436 131.378 112.523 131.431 112.536C131.792 112.623 132.169 112.716 132.505 112.87C132.857 113.032 133.393 112.932 133.765 112.932" stroke="#2C3B51" stroke-width="0.6" stroke-linecap="round" stroke-linejoin="round"/>
<path d="M133.76 113.192C133.059 113.741 132.913 114.38 132.703 115.14C132.615 115.461 132.561 115.783 132.539 116.111C132.521 116.377 132.486 116.884 132.136 116.576" stroke="#2C3B51" stroke-width="0.6" stroke-linecap="round" stroke-linejoin="round"/>
<path d="M132.368 113.192C131.931 113.589 131.692 114.321 131.556 114.916C131.489 115.208 131.539 115.856 131.208 115.976" stroke="#2C3B51" stroke-width="0.6" stroke-linecap="round" stroke-linejoin="round"/>
<path d="M140.487 111.954C140.487 111.477 140.365 110.922 140.025 110.559C139.828 110.351 139.704 110.154 139.459 109.991C139.079 109.739 138.69 109.616 138.254 109.504C137.596 109.334 136.745 109.104 136.077 109.372C135.594 109.566 135.08 109.926 134.781 110.353C134.58 110.639 134.283 110.878 134.112 111.179C133.987 111.399 133.67 111.578 133.461 111.707C133.027 111.974 132.484 112.203 132.004 112.367C131.511 112.535 131.002 112.647 130.513 112.82C130.293 112.898 129.816 112.883 129.816 112.883C129.816 112.883 130.861 113.193 131.399 113.193C131.609 113.193 131.809 113.149 132.016 113.141C132.304 113.131 132.528 112.904 132.775 112.78" stroke="#2C3B51" stroke-width="0.6" stroke-linecap="round" stroke-linejoin="round"/>
<path d="M131.672 113.192C131.443 113.632 131.288 114.122 131.208 114.628C131.148 115.006 131.042 115.539 130.744 115.744" stroke="#2C3B51" stroke-width="0.6" stroke-linecap="round" stroke-linejoin="round"/>
<path d="M130.512 113.425C130.116 114.017 129.827 114.753 129.352 115.281" stroke="#2C3B51" stroke-width="0.6" stroke-linecap="round" stroke-linejoin="round"/>
<path d="M137.471 108.939C136.636 108.616 135.629 108.839 134.84 109.214C133.93 109.646 133.118 110.034 132.518 110.859C132.317 111.135 132.132 111.427 131.886 111.667C131.732 111.818 131.617 112.046 131.42 112.15C131.153 112.292 130.923 112.456 130.622 112.529C130.275 112.614 129.676 112.865 129.352 112.628" stroke="#2C3B51" stroke-width="0.6" stroke-linecap="round" stroke-linejoin="round"/>
<path d="M129.816 113.425C129.633 113.696 129.561 113.976 129.466 114.286C129.422 114.428 129.297 114.687 129.379 114.817" stroke="#2C3B51" stroke-width="0.6" stroke-linecap="round" stroke-linejoin="round"/>
<path d="M130.895 120.302C131.04 120.727 131.232 121.144 131.373 121.569C131.475 121.874 131.359 122.192 131.43 122.499C131.536 122.964 131.402 123.316 131.402 123.759" stroke="#2C3B51" stroke-width="0.6" stroke-linecap="round" stroke-linejoin="round"/>
<path d="M103.235 158.745C103.496 158.902 104.054 159.029 104.265 158.712C104.45 158.433 104.425 157.995 104.194 157.756" stroke="#2C3B51" stroke-width="0.6" stroke-linecap="round" stroke-linejoin="round"/>
<path d="M102.878 159.312C102.802 159.479 102.574 159.819 102.692 160.012C102.769 160.137 103.017 160.166 103.152 160.19C103.372 160.23 103.562 160.275 103.712 160.107C103.809 159.998 103.785 160.009 103.821 160.154C103.859 160.31 103.871 160.507 104.055 160.584C104.446 160.748 104.961 160.524 104.901 160.099C104.885 159.987 104.817 159.903 104.977 159.935C105.263 159.993 105.514 160.026 105.741 159.833C105.966 159.642 106.07 159.382 105.959 159.112C105.929 159.038 105.624 158.908 105.626 158.901C105.674 158.742 106.001 158.666 106.08 158.487C106.159 158.306 106.112 158.029 105.91 157.926C105.724 157.831 105.51 157.964 105.33 157.964C105.319 157.964 105.36 157.88 105.36 157.878C105.382 157.803 105.387 157.716 105.376 157.638C105.341 157.379 105.103 157.285 104.873 157.181" stroke="#2C3B51" stroke-width="0.6" stroke-linecap="round" stroke-linejoin="round"/>
<path d="M114.117 150.158C114.089 150.859 114.559 151.569 115.278 151.2C115.624 151.023 115.569 150.759 115.499 150.428C115.433 150.114 115.26 149.806 114.984 149.673C114.398 149.391 114.126 149.739 113.823 150.239" stroke="#2C3B51" stroke-width="0.6" stroke-linecap="round" stroke-linejoin="round"/>
<path d="M114.557 149.353C114.19 149.187 113.651 148.885 113.259 149.171C112.846 149.472 113.435 149.647 113.392 149.923C113.378 150.014 113.046 150.043 112.978 150.081C112.789 150.188 112.703 150.371 112.676 150.603C112.633 150.984 112.847 151.143 113.133 151.133C113.183 151.132 113.44 151.041 113.469 151.078C113.522 151.144 113.386 151.557 113.385 151.648C113.379 152.154 113.678 152.714 114.178 152.328C114.23 152.288 114.364 152.072 114.368 152.233C114.374 152.453 114.362 152.619 114.508 152.787C114.699 153.008 114.959 153.04 115.224 153.025C115.656 153 115.646 152.639 115.698 152.261C115.702 152.234 115.963 152.401 116.031 152.392C116.29 152.357 116.682 152.171 116.701 151.842C116.719 151.552 116.663 151.199 116.361 151.137C116.191 151.102 116.369 150.803 116.386 150.635C116.414 150.347 116.422 150.031 116.231 149.816C116.11 149.68 115.998 149.688 115.856 149.78C115.796 149.819 115.827 148.948 115.814 148.803C115.745 148.065 114.308 148.438 114.62 149.495" stroke="#2C3B51" stroke-width="0.6" stroke-linecap="round" stroke-linejoin="round"/>
<path d="M103.824 164.594C103.631 163.707 103.16 163.131 103.011 162.218C104.738 164.215 108.756 168.162 110.554 168.162C110.235 169.138 110.554 170.166 110.554 171.202C110.554 173.737 110.69 176.646 109.479 178.915C108.564 180.627 106.891 181.866 105.456 183.104C104.727 183.734 103.762 184.788 102.912 185.16C102.034 185.544 101.485 186.552 100.618 186.971C99.8257 187.353 99.09 188.036 98.4578 188.645C95.9977 191.014 93.3074 193.059 91.757 196.221C91.4372 196.873 91.0795 197.505 90.7586 198.159C90.4328 198.824 90.0448 199.791 89.6066 200.312C89.0979 200.918 89.0506 201.857 88.7042 202.564C88.4488 203.085 88.2928 203.63 88.0514 204.15C87.3882 205.577 86.3114 204.958 85.3251 204.189C83.2564 202.576 84.5541 199.555 85.4979 197.63C86.0526 196.499 86.8081 195.599 87.4754 194.547C88.1613 193.466 88.6074 192.261 89.261 191.15C90.8219 188.498 92.4518 186.592 94.7906 184.592C98.0335 181.819 102.752 179.818 104.16 175.43C104.765 173.547 105.149 171.703 105.015 169.714C104.944 168.665 104.391 167.656 104.333 166.621C104.293 165.915 103.97 165.263 103.824 164.594Z" fill="#F4F1DE" stroke="#2C3B51" stroke-width="0.6" stroke-linecap="round" stroke-linejoin="round"/>
<path d="M118.077 179.483C118.077 175.879 117.905 172.312 117.905 168.705C117.974 169.262 119.481 170.708 124.96 172.035C124.96 174.123 125.132 176.343 125.132 178.519C125.132 180.399 124.881 182.181 124.788 184.029C124.657 186.633 122.119 187.698 120.247 188.858C118.38 190.016 116.265 190.92 114.292 191.925C112.891 192.638 111.671 193.53 110.334 194.291C108.402 195.391 107.513 197.408 106.893 199.46C106.51 200.73 105.871 203.225 104.044 202.605C102.341 202.027 100.354 200.081 100.354 198.234C100.354 196.306 101.95 194.853 103.433 193.862C104.834 192.926 106.098 191.812 107.581 191C108.689 190.394 109.866 189.92 110.965 189.306C113.458 187.914 115.805 186.453 117.255 183.912C118.046 182.527 118.077 181.076 118.077 179.483Z" fill="#F4F1DE" stroke="#2C3B51" stroke-width="0.6" stroke-linecap="round" stroke-linejoin="round"/>
<path d="M110.224 164.599C110.085 164.671 109.905 164.74 109.905 164.924C109.905 165.119 110.072 165.332 110.236 165.419C110.394 165.502 110.762 165.538 110.798 165.281C110.821 165.122 110.897 164.869 110.78 164.727C110.634 164.548 110.56 164.527 110.332 164.527" stroke="#2C3B51" stroke-width="0.6" stroke-linecap="round" stroke-linejoin="round"/>
<path d="M111.408 163.953C111.622 163.953 111.796 163.943 111.927 164.137C112.084 164.37 112.253 164.647 112.118 164.927C112.02 165.13 111.883 165.163 111.703 165.218C111.561 165.261 111.789 165.328 111.839 165.353C111.987 165.431 112.157 165.547 112.162 165.732C112.168 165.965 111.849 166.275 111.623 166.287C111.433 166.296 111.193 165.907 111.193 166.179C111.193 166.47 110.967 166.635 110.702 166.725C110.446 166.813 110.025 166.866 109.852 166.598C109.795 166.509 109.829 166.338 109.829 166.233C109.829 165.999 108.834 166.212 108.614 166.065C108.446 165.953 108.34 165.554 108.45 165.369C108.552 165.2 108.805 165.066 109.005 165.066C109.122 165.066 109.36 165.011 109.246 164.865C109.144 164.734 108.954 164.674 108.879 164.524C108.825 164.414 108.762 164.256 108.754 164.133C108.745 164.015 108.729 163.817 108.813 163.722C109 163.514 109.437 163.545 109.661 163.654C109.785 163.715 109.892 163.809 110 163.894C110.035 163.921 110.101 164.009 110.114 163.965C110.153 163.827 110.104 163.667 110.16 163.527C110.3 163.175 111.172 163.287 111.39 163.497C111.471 163.575 111.444 163.707 111.444 163.81" stroke="#2C3B51" stroke-width="0.6" stroke-linecap="round" stroke-linejoin="round"/>
<path d="M125.367 152.39C125.099 152.758 125.377 153.059 125.713 153.272C126.012 153.462 126.34 153.205 126.443 152.896" stroke="#2C3B51" stroke-width="0.6" stroke-linecap="round" stroke-linejoin="round"/>
<path d="M124.765 152.073C124.411 152.08 124.134 152.25 123.917 152.534C123.827 152.652 123.878 152.876 123.973 152.977C124.104 153.115 124.247 153.149 124.417 153.079C124.433 153.073 124.199 153.393 124.153 153.47C124.039 153.657 124.052 153.777 124.188 153.941C124.337 154.12 124.44 154.194 124.677 154.194C124.737 154.194 124.78 154.186 124.835 154.163C124.867 154.149 125.026 154.022 125.036 154.031C125.27 154.222 125.173 154.707 125.602 154.622C125.874 154.567 125.961 154.42 126.126 154.214C126.141 154.195 126.226 154.322 126.242 154.335C126.347 154.417 126.505 154.445 126.631 154.41C126.815 154.36 127.002 154.172 127.058 153.988C127.117 153.795 127.107 153.573 127.107 153.371" stroke="#2C3B51" stroke-width="0.6" stroke-linecap="round" stroke-linejoin="round"/>
<path d="M116.508 157.786C116.367 157.894 116.187 158.014 116.166 158.207C116.155 158.303 116.136 158.562 116.24 158.619C116.558 158.796 116.9 158.788 117.175 158.551C117.411 158.349 117.287 158.138 117.103 157.98C116.888 157.796 116.77 157.71 116.469 157.71" stroke="#2C3B51" stroke-width="0.6" stroke-linecap="round" stroke-linejoin="round"/>
<path d="M117.349 157.366C117.685 157.221 117.849 157.022 118.188 157.27C118.521 157.513 118.43 157.81 118.152 158.088C118.042 158.199 117.957 158.194 118.144 158.29C118.363 158.402 118.621 158.531 118.726 158.768C118.849 159.048 118.756 159.189 118.537 159.372C118.358 159.521 118.29 159.501 118.076 159.431C117.972 159.397 117.892 159.373 117.799 159.316C117.674 159.239 117.807 159.4 117.827 159.431C118.037 159.758 117.667 160.146 117.406 160.292C116.966 160.539 116.796 160.26 116.739 159.835C116.734 159.801 116.763 159.651 116.699 159.661C116.621 159.672 116.53 159.78 116.473 159.822C116.318 159.938 116.15 160.069 115.974 160.152C115.696 160.282 115.214 160.044 115.254 159.707C115.271 159.559 115.397 159.47 115.496 159.372C115.513 159.354 115.762 159.156 115.734 159.134C115.645 159.061 115.274 159.108 115.152 159.078C114.887 159.015 114.673 158.917 114.482 158.719C114.235 158.463 114.583 158.023 114.871 157.986C114.906 157.982 115.265 158.008 115.277 157.954C115.31 157.804 115.045 157.547 114.986 157.427C114.803 157.054 115.068 156.793 115.436 156.762C115.569 156.751 115.712 156.753 115.84 156.792C115.864 156.799 115.955 156.851 115.948 156.843C115.852 156.708 115.95 156.482 116.057 156.38C116.326 156.122 117.033 156.035 117.128 156.503C117.173 156.727 117.179 156.956 117.234 157.174" stroke="#2C3B51" stroke-width="0.6" stroke-linecap="round" stroke-linejoin="round"/>
<path d="M121.612 170.4C121.842 170.096 122.051 169.894 122.459 169.894C122.715 169.894 123.237 169.906 123.359 170.205C123.439 170.402 123.405 170.635 123.405 170.848" stroke="#2C3B51" stroke-width="0.6" stroke-linecap="round" stroke-linejoin="round"/>
<path d="M120.829 170.065C120.774 169.763 120.736 169.29 121.09 169.152C121.225 169.1 121.399 169.145 121.53 169.187C121.652 169.227 121.596 169.229 121.617 169.109C121.697 168.648 122.11 168.677 122.472 168.683C122.692 168.687 122.843 168.793 122.994 168.945C123.144 169.094 123.119 169.143 123.264 168.982C123.508 168.711 124.144 168.698 124.332 169.04C124.448 169.25 124.37 169.548 124.247 169.727C124.076 169.976 124.511 169.934 124.687 170.036C125.201 170.333 124.554 170.801 124.451 171.11" stroke="#2C3B51" stroke-width="0.6" stroke-linecap="round" stroke-linejoin="round"/>
<path d="M126.403 161.875C126.156 161.964 125.899 162.026 125.899 162.32C125.899 162.429 125.893 162.541 125.899 162.649C125.913 162.897 126.252 163.114 126.48 163.114" stroke="#2C3B51" stroke-width="0.6" stroke-linecap="round" stroke-linejoin="round"/>
<path d="M126.402 161.216C126.225 160.954 125.966 160.709 125.641 160.653C125.402 160.612 125.099 160.631 124.991 160.872C124.904 161.068 124.938 161.233 125.107 161.363C125.121 161.373 125.264 161.452 125.202 161.468C124.988 161.524 124.684 161.404 124.49 161.509C124.348 161.586 124.355 161.842 124.342 161.974C124.317 162.225 124.475 162.382 124.731 162.356C124.805 162.349 125.017 162.292 124.905 162.434C124.733 162.652 124.402 163.041 124.834 163.21C124.955 163.257 125.073 163.276 125.202 163.268C125.35 163.26 125.253 163.464 125.243 163.589C125.202 164.104 126.054 164.546 126.325 164.004" stroke="#2C3B51" stroke-width="0.6" stroke-linecap="round" stroke-linejoin="round"/>
<path d="M172.155 108.209C170.663 107.763 169.165 107.384 167.657 106.998" stroke="#2C3B51" stroke-width="0.8" stroke-linecap="round" stroke-linejoin="round"/>
<path d="M166.101 109.421C164.909 109.639 163.801 109.955 162.641 110.286" stroke="#2C3B51" stroke-width="0.8" stroke-linecap="round" stroke-linejoin="round"/>
<path d="M163.506 115.302C162.75 115.871 162.001 116.447 161.258 117.031" stroke="#2C3B51" stroke-width="0.8" stroke-linecap="round" stroke-linejoin="round"/>
<path d="M165.754 119.797C165.599 120.327 165.424 120.837 165.236 121.354" stroke="#2C3B51" stroke-width="0.8" stroke-linecap="round" stroke-linejoin="round"/>
<circle cx="34.5" cy="118.5" r="32" fill="#6A97D8" stroke="#F4F1DE" stroke-width="5"/>
<path d="M22.17 122.959L22.1701 122.959C22.2593 122.867 23.4326 121.696 25.4131 121.144C27.3879 120.593 30.1777 120.654 33.5143 123.043C35.5159 124.477 37.3952 125.013 39.0855 125.013C41.5074 125.013 43.5236 123.912 44.9356 122.81C46.3481 121.708 47.1645 120.599 47.1893 120.565L47.1894 120.564C47.4223 120.24 47.3486 119.788 47.0239 119.555C46.7005 119.322 46.2479 119.395 46.0139 119.72L46.0139 119.72C45.914 119.859 44.6467 121.583 42.5792 122.677C41.5469 123.223 40.3176 123.611 38.9356 123.569C37.5544 123.526 36.0134 123.053 34.3569 121.867C30.523 119.121 27.23 119.121 24.8857 119.823C22.5472 120.523 21.1627 121.918 21.1297 121.952L21.1294 121.952C20.8529 122.24 20.8607 122.696 21.1472 122.974L21.1472 122.974C21.4334 123.252 21.8908 123.245 22.17 122.959Z" fill="#F4F1DE" stroke="#F4F1DE" stroke-width="0.2"/>
<path d="M46.0134 115.795L46.0135 115.795C46.2475 115.47 46.7 115.397 47.0233 115.629C47.3482 115.862 47.4219 116.315 47.1889 116.64L47.1888 116.64C47.164 116.674 46.3476 117.784 44.9352 118.886C43.5231 119.987 41.5069 121.088 39.0851 121.088C37.3947 121.088 35.5154 120.552 33.5139 119.119C30.1634 116.719 27.3738 116.657 25.4028 117.21C23.4265 117.764 22.2605 118.94 22.1712 119.032C22.1712 119.032 22.1711 119.032 22.1711 119.032L22.0992 118.963L46.0134 115.795ZM46.0134 115.795C45.9135 115.934 44.646 117.658 42.5785 118.752C41.5461 119.298 40.3168 119.686 38.9348 119.643C37.5536 119.601 36.0128 119.128 34.3564 117.942C30.5225 115.196 27.2295 115.196 24.8852 115.898C22.5469 116.598 21.1624 117.993 21.1289 118.028L46.0134 115.795Z" fill="#F4F1DE" stroke="#F4F1DE" stroke-width="0.2"/>
<path d="M46.0156 111.474L46.0157 111.474C46.2496 111.149 46.7021 111.076 47.0256 111.308C47.3503 111.542 47.4241 111.994 47.1911 112.319L47.191 112.319C47.1662 112.353 46.3498 113.463 44.9373 114.564C43.5253 115.666 41.5091 116.767 39.0872 116.767C37.3969 116.767 35.5176 116.231 33.5161 114.798C30.1794 112.408 27.3897 112.347 25.4148 112.898C23.4343 113.45 22.261 114.621 22.1719 114.713L46.0156 111.474ZM46.0156 111.474C45.9157 111.613 44.6484 113.337 42.581 114.431C41.5486 114.978 40.3194 115.365 38.9373 115.323C37.5561 115.28 36.0151 114.807 34.3586 113.621C30.5247 110.875 27.2317 110.875 24.8874 111.577M46.0156 111.474L24.8874 111.577M24.8874 111.577C22.549 112.277 21.1645 113.672 21.1311 113.707L24.8874 111.577ZM21.149 114.728L21.2185 114.656L21.1311 113.707C20.8546 113.994 20.8623 114.45 21.149 114.728Z" fill="#F4F1DE" stroke="#F4F1DE" stroke-width="0.2"/>
</svg>
