<svg width="400" height="380" viewBox="0 0 400 380" fill="none" xmlns="http://www.w3.org/2000/svg">
<path d="M235.87 43.4783C235.87 64.7292 218.642 81.9565 197.391 81.9565C176.14 81.9565 158.913 64.7292 158.913 43.4783C158.913 22.2273 176.14 5 197.391 5C218.642 5 235.87 22.2273 235.87 43.4783Z" fill="#F4F1DE"/>
<path d="M235.87 43.4783C235.87 64.7292 218.642 81.9565 197.391 81.9565C176.14 81.9565 158.913 64.7292 158.913 43.4783C158.913 22.2273 176.14 5 197.391 5C218.642 5 235.87 22.2273 235.87 43.4783Z" stroke="#F4F1DE" stroke-width="10"/>
<path d="M234.87 43.4783C234.87 64.1769 218.09 80.9565 197.391 80.9565C176.693 80.9565 159.913 64.1769 159.913 43.4783C159.913 22.7796 176.693 6 197.391 6C218.09 6 234.87 22.7796 234.87 43.4783Z" stroke="#F6B563" stroke-width="2"/>
<path d="M195.547 40.3346C195.921 45.8102 199.79 49.954 204.317 49.7291C208.845 49.5037 212.421 44.9899 212.424 39.4954C212.424 39.4899 212.424 39.4849 212.424 39.479L212.387 37.1199C212.378 32.1071 209.026 28.0481 204.892 28.0439H183.389C179.254 28.0486 175.903 32.1088 175.896 37.122L175.87 39.4874V39.4996C175.873 45.1561 179.651 49.7412 184.316 49.7496C188.738 49.7496 192.377 45.6021 192.737 40.3355L195.547 40.3346ZM191.348 39.4824C191.353 44.1955 188.206 48.0216 184.319 48.0284C180.432 48.0351 177.276 44.2195 177.271 39.5059L177.287 37.1375V37.1249C177.287 33.0622 180.038 29.7627 183.389 29.7627H204.892C208.246 29.7656 210.965 33.0609 210.969 37.1283V37.143L211.007 39.5046C211.01 42.5586 209.667 45.3818 207.485 46.9071C205.303 48.4324 202.614 48.427 200.437 46.8924C198.259 45.3583 196.923 42.5292 196.935 39.4752C196.936 39.2407 196.861 39.0149 196.728 38.8454C196.597 38.678 196.417 38.5798 196.227 38.5714L192.056 38.5949C191.661 38.6083 191.346 39.0023 191.348 39.4824Z" fill="#F6B563"/>
<path d="M219.098 20.6523H213.434C213.017 20.6523 212.679 21.0102 212.679 21.4516C212.679 21.893 213.017 22.2509 213.434 22.2509H215.605V56.1195C215.605 61.5734 211.44 66.0103 206.287 66.0103H205.06C200.195 66.0041 196.145 62.0515 195.746 56.9188H197.954C198.371 56.9188 198.709 56.5609 198.709 56.1195V51.1241C198.709 50.6827 198.371 50.3249 197.954 50.3249H191.913C191.496 50.3249 191.157 50.6827 191.157 51.1241V56.1195C191.157 56.5609 191.496 56.9188 191.913 56.9188H194.232C194.635 62.9358 199.361 67.6014 205.06 67.6089H206.287C212.273 67.6089 217.116 62.4547 217.116 56.1195V22.2509H219.098C219.515 22.2509 219.853 21.893 219.853 21.4516C219.853 21.0102 219.515 20.6523 219.098 20.6523ZM192.668 51.9234H197.199V55.3202H192.668V51.9234Z" fill="#F6B563"/>
<path d="M70.2983 199.426L71.3327 214.166L242.527 308.038C245.802 309.504 253.802 310.883 259.594 304.677C265.387 298.47 300.281 261.921 317.004 244.422V229.682" stroke="#2C3B51" stroke-width="0.8"/>
<path d="M202.007 180.114L139.862 149.257C122.191 164.17 86.8488 194.616 86.8488 197.098L236.579 278.04L289.334 223.475L231.304 194.783" stroke="#2C3B51" stroke-width="0.8"/>
<path d="M204.935 167.249C176.183 152.707 153.231 140.9 149.43 138.397C140.948 132.811 134.173 136.069 131.845 138.397L70.8154 195.548C68.7466 199.892 72.5394 203.909 74.6944 205.374C127.966 233.045 240.716 295.109 241.492 295.626C242.268 296.143 253.129 299.247 256.75 295.626C260.37 292.006 311.521 240.13 315.452 233.303C319.383 226.476 315.194 222.356 312.608 221.149C296.397 213.099 266.017 197.937 243.844 186.834C242.03 185.925 215.95 172.807 214.14 171.898M204.935 167.249C205.491 167.529 213.58 171.616 214.14 171.898M204.935 167.249L214.14 171.898" stroke="#2C3B51" stroke-width="0.8"/>
<path d="M272.741 252.892C273.234 252.275 273.77 251.877 274.511 251.636C274.854 251.378 275.033 251.161 275.496 251.017C276.525 250.695 278.1 251.689 278.894 252.3C280.778 253.75 281.131 257.03 278.972 258.404C277.384 259.414 275.298 258.512 273.85 257.597C272.981 257.047 272.136 256.194 272.117 255.102C272.101 254.19 272.163 253.614 272.741 252.892Z" stroke="#2C3B51" stroke-width="0.8" stroke-linecap="round" stroke-linejoin="round"/>
<path d="M236.732 175.977L237.031 174.639L240.916 176.647L240.617 177.986L236.732 175.977Z" fill="#EBD1B1"/>
<path d="M226.265 173.258L226.871 170.48L239.596 176.035L238.99 179.368L226.265 173.258Z" fill="#EBD1B1"/>
<path d="M209.38 131.641C209.515 130.589 209.974 130.457 210.753 130.493C211.245 130.517 211.776 131.45 211.903 131.987C212.041 132.569 212.066 133.086 212.032 133.672C212.01 134.046 211.763 134.284 211.658 134.61C211.625 134.712 210.988 135.821 211.126 135.821" stroke="#2C3B51" stroke-width="0.8" stroke-linecap="round" stroke-linejoin="round"/>
<path d="M212.046 134.044C212.959 134.699 214.032 134.933 215.601 134.933" stroke="#2C3B51" stroke-width="0.8" stroke-linecap="round" stroke-linejoin="round"/>
<path d="M201.453 135.204C201.371 135.4 201.33 135.539 201.492 135.709C201.696 135.925 202.009 135.794 202.191 135.598C202.45 135.32 201.999 135.089 201.836 134.932" stroke="#2C3B51" stroke-width="0.8" stroke-linecap="round" stroke-linejoin="round"/>
<path d="M197.071 190.309C196.875 190.919 196.791 191.804 197.561 191.804C198.042 191.804 198.296 191.902 198.597 191.43C199.064 190.698 198.031 189.678 197.439 190.16" stroke="#2C3B51" stroke-width="0.8" stroke-linecap="round" stroke-linejoin="round"/>
<path d="M200.981 189.8C202.976 190.44 202.395 191.888 200.998 192.749C200.789 192.878 200.068 192.883 200.068 192.897C200.068 193.461 200.066 193.891 199.459 194.164C198.589 194.555 195.365 194.833 195.365 193.39C195.365 193.217 195.812 192.122 195.771 192.084C195.19 191.547 193.796 191.568 193.065 191.177C191.567 190.375 193.392 189.124 194.266 188.831C195.123 188.542 196.295 189.232 196.718 188.471C197.307 187.413 198.321 186.918 199.374 187.892C199.734 188.224 199.796 188.482 199.95 188.924C200.041 189.187 199.909 189.727 200.068 189.8" stroke="#2C3B51" stroke-width="0.8" stroke-linecap="round" stroke-linejoin="round"/>
<path d="M206.713 178.9C207.41 179.787 208.668 180.576 210.119 180.129C211.112 179.823 211.651 177.885 210.535 177.592" stroke="#2C3B51" stroke-width="0.8" stroke-linecap="round" stroke-linejoin="round"/>
<path d="M206.256 179.855C205.937 180.467 205.585 181.132 206.047 181.754C206.466 182.319 207.03 181.891 207.621 181.736C207.784 181.694 208.397 182.61 208.761 182.765C209.62 183.131 210.314 182.83 210.646 182.183C210.75 181.981 210.667 181.771 210.754 181.572C210.824 181.412 211.132 181.701 211.282 181.76C211.986 182.034 212.598 181.915 213.166 181.483C213.678 181.096 213.952 180.273 213.764 179.749C213.691 179.549 213.455 179.529 213.546 179.303C213.66 179.023 213.655 178.773 213.655 178.479" stroke="#2C3B51" stroke-width="0.8" stroke-linecap="round" stroke-linejoin="round"/>
<path d="M219.331 200.492C219.159 198.735 219.289 197.561 221.009 198.216C221.566 198.429 221.954 199.16 221.78 199.818C221.702 200.111 221.05 200.625 220.814 200.671C220.012 200.829 219.791 200.267 219.156 199.923" stroke="#2C3B51" stroke-width="0.8" stroke-linecap="round" stroke-linejoin="round"/>
<path d="M220.933 196.979C222.117 196.252 223.631 195.603 223.631 197.499C223.631 198.119 222.393 198.494 223.411 198.494C224.4 198.494 225.377 198.555 225.377 199.604C225.377 200.27 224.761 200.26 224.424 200.699" stroke="#2C3B51" stroke-width="0.8" stroke-linecap="round" stroke-linejoin="round"/>
<path d="M220.518 203.365C220.29 202.913 220.346 201.759 219.872 202.13C219.583 202.357 219.101 202.298 218.776 202.267C217.796 202.175 216.656 198.564 217.975 198.564C218.229 198.564 218.234 198.263 218.234 198C218.234 196.942 217.993 196.282 218.794 195.576C219.55 194.91 220.691 195.958 220.933 196.918" stroke="#2C3B51" stroke-width="0.8" stroke-linecap="round" stroke-linejoin="round"/>
<path d="M231.953 185.59C230.27 186.902 235.172 186.602 234.113 185.716" stroke="#2C3B51" stroke-width="0.8" stroke-linecap="round" stroke-linejoin="round"/>
<path d="M229.744 184.699C228.934 185.341 227.118 186.388 228.619 187.149C229.061 187.374 229.712 187.301 230.118 187.576C230.183 187.62 230.006 187.688 229.949 187.741C229.763 187.914 229.664 188.153 229.558 188.38C229.036 189.502 229.954 189.963 230.928 190.02C231.53 190.055 231.994 190.038 232.463 189.606C232.574 189.503 232.946 188.89 233.005 188.925C233.261 189.076 233.303 189.374 233.652 189.387C233.967 189.398 234.461 189.377 234.702 189.15C235.196 188.685 235.38 188.281 235.198 187.635C235.135 187.412 235.167 187.595 235.437 187.658C235.77 187.737 236.176 187.86 236.487 187.635C237.235 187.093 236.904 186.04 236.464 185.445" stroke="#2C3B51" stroke-width="0.8" stroke-linecap="round" stroke-linejoin="round"/>
<path d="M201.381 203.134C201.882 203.282 202.444 203.509 202.947 203.239C203.292 203.053 203.609 202.798 203.848 202.544C204.243 202.123 204.008 201.879 203.505 201.587" stroke="#2C3B51" stroke-width="0.8" stroke-linecap="round" stroke-linejoin="round"/>
<path d="M201.42 203.766C201.235 204.624 201.71 205.337 202.834 205.094C203.075 205.041 203.856 204.494 203.856 204.247C203.856 204.14 203.903 204.422 204.076 204.587C204.915 205.388 206.198 204.533 206.563 203.749C206.632 203.603 206.732 203.434 206.718 203.272C206.694 202.985 206.32 202.689 206.376 202.409C206.426 202.16 208.059 202.081 208.33 201.707C208.833 201.01 208.073 200.189 207.191 200.189C206.999 200.189 206.677 200.288 206.498 200.346C206.32 200.405 206.095 200.703 206.095 200.703C206.095 200.703 206.225 200.405 206.268 200.251C206.375 199.873 206.243 199.45 205.973 199.143C205.582 198.697 204.726 199.06 204.202 199.06" stroke="#2C3B51" stroke-width="0.8" stroke-linecap="round" stroke-linejoin="round"/>
<path d="M241.197 180.642C241.73 188.821 219.956 204.801 219.956 204.801C219.956 204.801 209.882 212.002 209.882 217.119C209.882 220.873 210.298 228.492 209.882 232.226C209.763 233.289 209.594 237.378 208.741 237.682C206.824 238.365 207.315 238.229 205.457 237.682C202.688 236.867 200.281 235.266 200.281 232.226C200.281 229.684 200.213 227.254 199.905 224.728C199.279 219.59 197.388 213.621 199.008 208.525C200.643 203.378 203.012 199.291 206.584 195.196C209.573 191.769 213.498 187.602 217.563 185.574" stroke="#2C3B51" stroke-width="0.8" stroke-linecap="round" stroke-linejoin="round"/>
<path d="M186.991 201.722C188.988 204.226 191.482 205.418 194.221 206.697C194.851 206.99 198.597 208.352 199.037 207.427" stroke="#2C3B51" stroke-width="0.8" stroke-linecap="round" stroke-linejoin="round"/>
<path d="M199.706 207.745C202.329 210.845 206.68 212.869 210.514 214.121" stroke="#2C3B51" stroke-width="0.8" stroke-linecap="round" stroke-linejoin="round"/>
<path d="M197.428 128.416C196.632 130.31 196.452 131.466 196.909 133.515C197.386 135.655 198.631 137.556 198.918 139.773C198.958 140.082 198.953 142.074 199.175 142.199C199.461 142.361 200.096 141.658 200.353 141.549C201.001 141.273 202.346 143.805 202.591 144.413C203.334 146.266 205.553 146.968 207.31 146.719C208.401 146.564 209.237 146.659 210.252 145.962C211.184 145.322 211.5 144.48 212.039 143.564C213.07 141.812 213.516 139.44 214.215 137.528" stroke="#2C3B51" stroke-width="0.8" stroke-linecap="round" stroke-linejoin="round"/>
<path d="M198.762 133.79C198.688 133.231 198.692 132.867 199.036 132.455C199.246 132.204 199.737 131.812 200.066 131.885C200.6 132.003 201.742 132.128 202.279 131.882C202.581 131.743 202.339 132.108 202.222 132.212C202.02 132.391 201.756 132.465 201.534 132.608C201.214 132.815 200.728 132.658 200.38 132.874C200.095 133.051 199.971 133.445 199.688 133.596C199.407 133.746 199.199 133.878 198.942 133.63C198.821 133.514 199.114 132.947 199.208 132.847C199.441 132.598 199.712 132.495 200.006 132.37" stroke="#2C3B51" stroke-width="0.8" stroke-linecap="round" stroke-linejoin="round"/>
<path d="M200.375 136.076C200.736 135.403 200.922 134.958 201.426 134.52C202.06 133.97 202.903 134.13 203.567 134.04" stroke="#2C3B51" stroke-width="0.8" stroke-linecap="round" stroke-linejoin="round"/>
<path d="M204.789 143.751C205.418 143.363 205.973 142.99 206.347 142.361C206.628 141.889 206.524 141.255 206.818 140.773" stroke="#2C3B51" stroke-width="0.8" stroke-linecap="round" stroke-linejoin="round"/>
<path d="M204.391 158.223C204.813 157.171 204.851 156.106 205.083 155.021C205.309 153.961 206.215 152.988 206.66 151.982C207.199 150.763 208.406 149.503 208.406 148.185" stroke="#2C3B51" stroke-width="0.8" stroke-linecap="round" stroke-linejoin="round"/>
<path d="M213.09 148.186C213.74 147.339 214.113 146.518 214.428 145.509" stroke="#2C3B51" stroke-width="0.8" stroke-linecap="round" stroke-linejoin="round"/>
<path d="M204.391 160.948L204.725 158.892L227.813 170.546L227.478 172.945L213.425 165.061L204.391 160.948Z" fill="#EBD1B1"/>
<path d="M200.135 232.809C197.265 234.515 196.615 233.723 193.577 233.162C191.319 232.745 192.355 232.153 192.182 230.099C191.56 222.698 188.583 215.771 187.75 208.343C187.001 201.662 185.726 195.433 190.212 189.797C192.123 187.396 195.068 185.649 197.639 184.066C200.274 182.444 203.176 180.754 205.928 179.356C209.026 177.783 213.239 175.17 213.663 171.292C213.977 168.426 213.55 167.329 212.022 164.915C211.486 163.688 210.547 161.234 211.083 161.234" stroke="#2C3B51" stroke-width="0.8" stroke-linecap="round" stroke-linejoin="round"/>
<path d="M196.636 129.737C196.667 128.225 197.194 128.168 198.42 127.889C200.231 127.478 202.505 128.514 204.133 129.156C205.679 129.767 207.517 130.647 209.251 130.473C210.08 130.39 210.978 130.105 211.587 129.51C211.944 129.161 212.056 129.085 211.643 129.1C211.201 129.116 210.783 129.227 210.327 129.227C209.9 129.227 209.037 129.263 208.67 129.029C208.339 128.818 207.767 128.598 207.396 128.463C206.898 128.282 206.409 127.952 205.909 127.741C204.968 127.343 204.156 126.835 203.163 126.551C202.281 126.299 201.397 126.322 200.515 126.141C199.529 125.938 198.772 126.134 197.938 126.679C196.719 127.476 196.8 128.519 196.516 129.801C196.363 130.485 195.56 128.883 195.517 128.661C195.334 127.708 195.418 126.424 195.999 125.631C197.214 123.974 199.077 124.003 200.961 124.003C201.523 124.003 202.066 124.13 202.618 124.13C203.276 124.13 203.963 124.752 204.543 125.022C205.911 125.661 206.892 126.602 208.132 127.401C209.045 127.989 210.099 129.227 211.289 129.227" stroke="#2C3B51" stroke-width="0.8" stroke-linecap="round" stroke-linejoin="round"/>
<path d="M197.656 124.259C200.315 122.338 204.246 122.156 206.858 124.188C207.995 125.072 209.114 126.033 210.136 127.055C210.638 127.557 211.604 127.818 211.927 128.463" stroke="#2C3B51" stroke-width="0.8" stroke-linecap="round" stroke-linejoin="round"/>
<path d="M213.328 134.326C212.745 133.3 212.714 132.438 212.408 131.367C212.245 130.799 212.184 130.126 211.926 129.611" stroke="#2C3B51" stroke-width="0.8" stroke-linecap="round" stroke-linejoin="round"/>
<path d="M212.054 128.846C212.853 129.69 213.578 131.061 213.866 132.215C213.97 132.63 214.149 133.077 214.213 133.497C214.285 133.963 214.195 134.376 214.348 134.835" stroke="#2C3B51" stroke-width="0.8" stroke-linecap="round" stroke-linejoin="round"/>
<path d="M201.472 122.677C203.041 122.253 204.45 122.064 205.985 122.702C207.665 123.4 209.267 124.397 210.889 125.223C211.519 125.545 212.229 126.121 212.957 126.194C213.184 126.217 214.215 126.462 214.066 126.673C213.766 127.1 212.729 128.123 212.137 128.123" stroke="#2C3B51" stroke-width="0.8" stroke-linecap="round" stroke-linejoin="round"/>
<path d="M215.201 134.705C215.201 133.987 215.214 133.268 215.201 132.549C215.185 131.706 214.874 130.775 214.734 129.934C214.601 129.137 214.099 128.254 213.385 127.897" stroke="#2C3B51" stroke-width="0.8" stroke-linecap="round" stroke-linejoin="round"/>
<path d="M195.458 126.536C195.743 125.799 195.907 124.726 196.479 124.153C197.326 123.307 198.128 122.54 199.139 121.884C200.271 121.151 201.801 121.166 203.092 121.096C204.379 121.026 205.427 121.384 206.672 121.65C208.63 122.07 210.249 123.889 211.81 125.017C212.364 125.417 212.89 125.979 213.499 126.284C213.781 126.425 214.124 126.424 214.293 126.763" stroke="#2C3B51" stroke-width="0.8" stroke-linecap="round" stroke-linejoin="round"/>
<path d="M214.293 126.763C214.672 127.742 215.088 129.116 215.088 130.167" stroke="#2C3B51" stroke-width="0.8" stroke-linecap="round" stroke-linejoin="round"/>
<path d="M206.426 152.687C207.551 150.9 207.617 149.295 207.901 147.238C209.218 146.949 210.74 146.247 211.328 144.925C211.904 143.627 212.773 142.223 213.031 140.803C213.261 139.538 214.237 138.467 214.592 137.224C214.692 136.875 215.115 136.578 215.306 136.273C215.643 135.734 216.323 136.945 216.553 137.129C216.923 137.425 217.126 137.958 217.496 138.329C218.368 139.201 219.107 140.196 220.161 140.899C222.047 142.156 223.921 143.093 225.955 144.11L226.062 144.164C228.813 145.539 231.724 146.837 234.353 148.437C236.634 149.826 238.302 152.458 239.151 154.939C240.658 159.346 241.532 163.957 243.101 168.35C243.823 170.372 244.304 172.448 244.928 174.499C245.597 176.698 246.106 179.097 246.965 181.22C247.82 183.331 248.225 185.608 248.945 187.768C249.648 189.876 250.943 191.993 252.277 193.708C252.996 194.633 256.977 197.589 254.847 198.772C254.266 199.095 253.504 199.007 252.857 198.972C252.17 198.935 250.494 198.959 249.973 198.467C249.238 197.773 248.518 197.277 248.07 196.316C247.718 195.564 247.527 194.733 247.232 193.956C246.909 193.103 246.379 192.358 246.071 191.5C245.514 189.948 244.843 188.521 244.234 186.997C243.739 185.76 243.558 184.417 242.853 183.257C242.523 182.712 242.444 182.134 242.092 181.581C241.865 181.224 241.317 180.356 241.317 179.936C241.317 180.72 240.743 181.404 240.743 182.169C240.743 182.92 240.259 184.005 239.881 184.642C239.783 184.808 239.402 185.95 239.371 185.958C238.258 186.276 236.815 185.95 235.701 185.751C234.165 185.477 232.663 185.548 231.122 185.169C229.589 184.791 227.992 184.774 226.464 184.387C224.941 184.001 223.278 183.823 221.797 183.31C220.831 182.976 220.056 182.422 219.205 181.874C218.432 181.377 217.474 180.966 216.796 180.335C216 179.594 215.007 179.041 214.251 178.285C213.804 177.837 213.108 177.662 212.775 177.064C212.532 176.627 211.978 175.843 212.201 175.341C212.688 174.246 213.749 173.075 213.749 171.823C213.749 170.311 213.796 168.46 213.016 167.02C212.97 167.64 212.639 168.665 212.6 168.768C211.887 170.63 211.109 172.474 210.478 174.368C210.213 175.163 210.348 175.955 210.303 176.777C210.252 177.693 208.339 178.171 207.686 178.388C206.149 178.901 204.772 179.809 203.299 180.399C202.994 180.52 202.617 180.833 202.374 181.053C201.959 181.425 202.118 180.47 202.118 180.271C202.118 178.855 202.052 177.43 202.23 176.027C202.348 175.099 202.388 174.043 202.405 173.108C202.424 172.121 202.673 171.11 202.804 170.124C202.994 168.704 202.861 167.296 203.091 165.865C203.505 163.292 204.179 160.683 204.272 158.079C204.34 156.181 205.434 154.262 206.426 152.687Z" fill="#F4F1DE"/>
<path d="M207.901 147.238C207.617 149.295 207.551 150.9 206.426 152.687C205.434 154.262 204.34 156.181 204.272 158.079C204.179 160.683 203.505 163.292 203.091 165.865C202.861 167.296 202.994 168.704 202.804 170.124C202.673 171.11 202.424 172.121 202.405 173.108C202.388 174.043 202.348 175.099 202.23 176.027C202.052 177.43 202.118 178.855 202.118 180.271C202.118 180.47 201.959 181.425 202.374 181.053C202.617 180.833 202.994 180.52 203.299 180.399C204.772 179.809 206.149 178.901 207.686 178.388C208.339 178.171 210.252 177.693 210.303 176.777C210.348 175.955 210.213 175.163 210.478 174.368C211.109 172.474 211.887 170.63 212.6 168.768C212.661 168.609 213.418 166.245 212.744 166.582C213.806 168.07 213.749 170.153 213.749 171.823C213.749 173.075 212.688 174.246 212.201 175.341C211.978 175.843 212.532 176.627 212.775 177.064C213.108 177.662 213.804 177.837 214.251 178.285C215.007 179.041 216 179.594 216.796 180.335C217.474 180.966 218.432 181.377 219.205 181.874C220.056 182.422 220.831 182.976 221.797 183.31C223.278 183.823 224.941 184.001 226.464 184.387C227.992 184.774 229.589 184.791 231.122 185.169C232.663 185.548 234.165 185.477 235.701 185.751C236.815 185.95 238.258 186.276 239.371 185.958C239.402 185.95 239.783 184.808 239.881 184.642C240.259 184.005 240.743 182.92 240.743 182.169C240.743 181.404 241.317 180.72 241.317 179.936C241.317 180.356 241.865 181.224 242.092 181.581C242.444 182.134 242.523 182.712 242.853 183.257C243.558 184.417 243.739 185.76 244.234 186.997C244.843 188.521 245.514 189.948 246.071 191.5C246.379 192.358 246.909 193.103 247.232 193.956C247.527 194.733 247.718 195.564 248.07 196.316C248.518 197.277 249.238 197.773 249.973 198.467C250.494 198.959 252.17 198.935 252.857 198.972C253.504 199.007 254.266 199.095 254.847 198.772C256.977 197.589 252.996 194.633 252.277 193.708C250.943 191.993 249.648 189.876 248.945 187.768C248.225 185.608 247.82 183.331 246.965 181.22C246.106 179.097 245.597 176.698 244.928 174.499C244.304 172.448 243.823 170.372 243.101 168.35C241.532 163.957 240.658 159.346 239.151 154.939C238.302 152.458 236.634 149.826 234.353 148.437C231.724 146.837 228.813 145.539 226.062 144.164L225.955 144.11C223.921 143.093 222.047 142.156 220.161 140.899C219.107 140.196 218.368 139.201 217.496 138.329C217.126 137.958 216.923 137.425 216.553 137.129C216.323 136.945 215.643 135.734 215.306 136.273C215.115 136.578 214.692 136.875 214.592 137.224C214.237 138.467 213.261 139.538 213.031 140.803C212.773 142.223 211.904 143.627 211.328 144.925C210.74 146.247 209.218 146.949 207.901 147.238Z" stroke="#2C3B51" stroke-width="0.8" stroke-linecap="round" stroke-linejoin="round"/>
<path d="M210.926 160.863C211.079 161.791 211.223 162.701 211.646 163.547C211.744 163.743 211.813 163.94 211.889 164.145C211.984 164.401 212.146 164.632 212.225 164.894C212.298 165.132 212.346 165.364 212.448 165.594C212.696 166.151 212.966 166.676 213.052 167.283" stroke="#2C3B51" stroke-width="0.8" stroke-linecap="round" stroke-linejoin="round"/>
<path d="M230.661 156.092C231.608 158.369 232.68 160.514 233.752 162.718C234.296 163.836 234.749 164.968 235.064 166.17C235.41 167.491 236.208 168.641 236.729 169.891C237.147 170.895 237.636 171.917 238.111 172.894C238.72 174.146 239.298 175.457 239.837 176.742C240.047 177.244 240.228 177.726 240.493 178.204C240.722 178.615 241.053 179.013 241.184 179.472C241.262 179.744 241.443 180.11 241.598 180.344" stroke="#2C3B51" stroke-width="0.8" stroke-linecap="round" stroke-linejoin="round"/>
<path d="M213.7 173.052C214.574 173.86 215.652 174.35 216.554 175.112C217.02 175.507 217.523 175.844 218.024 176.191C218.429 176.471 218.745 176.793 219.209 176.975C220.157 177.346 220.988 177.968 221.947 178.322C223.645 178.95 225.332 179.506 227.094 179.947C228.364 180.264 229.696 180.386 230.996 180.519C231.787 180.6 232.537 180.878 233.338 180.898C234.111 180.917 234.877 181.05 235.654 181.056C236.824 181.066 237.983 180.995 239.141 180.819C239.667 180.739 240.379 180.502 240.885 180.502" stroke="#2C3B51" stroke-width="0.8" stroke-linecap="round" stroke-linejoin="round"/>
<path d="M189.57 229.967C187.743 231.028 186.922 231.453 186.972 233.753C187.004 235.23 188.159 235.657 189.196 236.317C189.941 236.791 190.654 236.623 191.488 236.767C192.674 236.971 193.475 237.37 194.544 237.828C195.537 238.253 196.468 238.219 197.516 238.219C198.269 238.219 198.3 238.333 198.823 238.906C200.096 240.301 200.614 241.736 202.49 242.506C203.783 243.036 204.924 243.385 206.328 243.185C207.842 242.968 209.143 243.065 210.623 243.227C212.388 243.421 214.553 242.897 214.63 240.731C214.661 239.879 214.6 238.992 214.248 238.21C213.954 237.556 213.868 236.415 214.028 235.697C214.115 235.305 214.346 234.638 213.866 234.398" stroke="#2C3B51" stroke-width="0.8" stroke-linecap="round" stroke-linejoin="round"/>
<path d="M188.805 226.299C188.312 226.55 187.893 226.874 187.421 227.139C186.677 227.558 185.737 227.473 184.917 227.598C184.229 227.702 183.33 227.665 182.786 228.209C181.775 229.22 180.91 230.781 182.115 231.987C182.814 232.685 183.391 232.988 183.61 234.024C183.845 235.143 183.578 235.967 184.374 236.851C185.323 237.906 186.268 238.887 187.43 239.712C188.012 240.126 188.729 240.017 189.399 240.086C190.209 240.169 190.964 240.344 191.708 240.663" stroke="#2C3B51" stroke-width="0.8" stroke-linecap="round" stroke-linejoin="round"/>
<path d="M220.284 235.772C219.921 238.416 222.857 242.629 220.029 244.551C218.268 245.747 216.291 245.453 214.29 245.739C213.306 245.88 212.984 246.135 212.177 246.681C210.952 247.51 209.681 247.091 208.365 246.775" stroke="#2C3B51" stroke-width="0.8" stroke-linecap="round" stroke-linejoin="round"/>
<path d="M185.137 218.506C183.529 219.345 181.269 218.948 179.5 218.964C177.978 218.978 176.265 220.519 175.833 221.97C175.57 222.851 175.241 224.039 175.205 224.958C175.182 225.531 175.486 226.099 175.256 226.664C175.012 227.263 174.118 227.454 173.677 227.895C173.017 228.555 172.555 229.384 172.301 230.272" stroke="#2C3B51" stroke-width="0.8" stroke-linecap="round" stroke-linejoin="round"/>
<path d="M230.064 238.676C230.064 240.663 230.248 242.593 229.529 244.474C228.94 246.014 227.555 246.934 226.133 247.632C225.259 248.061 224.407 248.489 223.501 248.846C222.73 249.151 222.139 249.763 221.387 250.103C220.443 250.529 219.646 251.931 219.061 252.734" stroke="#2C3B51" stroke-width="0.8" stroke-linecap="round" stroke-linejoin="round"/>
<path d="M235.87 250.441C234.899 251.623 233.844 252.849 232.356 253.345" stroke="#2C3B51" stroke-width="0.8" stroke-linecap="round" stroke-linejoin="round"/>
<circle cx="35" cy="160.218" r="32.5" fill="#E2DFD1" stroke="#F4F1DE" stroke-width="5"/>
<path d="M39.6634 166.739C37.9676 166.739 36.0768 166.202 34.057 164.755C27.2213 159.86 22.5821 164.482 22.3884 164.681C22.1435 164.932 21.7426 164.937 21.4918 164.694C21.2406 164.45 21.2338 164.05 21.4762 163.799C21.5311 163.742 27.0504 158.176 34.7954 163.723C41.5922 168.591 46.5824 161.808 46.7918 161.517C46.9969 161.232 47.3936 161.168 47.6769 161.372C47.9615 161.576 48.0262 161.973 47.822 162.257C47.7784 162.318 44.5267 166.738 39.6634 166.739Z" fill="#2C3B51" fill-opacity="0.5"/>
<path d="M39.6627 162.749C37.9669 162.749 36.0761 162.211 34.0564 160.765C27.1927 155.848 22.5818 160.489 22.389 160.689C22.1454 160.941 21.7445 160.949 21.492 160.705C21.2396 160.462 21.2328 160.061 21.4755 159.809C21.5305 159.751 27.0498 154.186 34.7947 159.733C41.5907 164.6 46.5818 157.818 46.7911 157.527C46.9962 157.242 47.3929 157.178 47.6763 157.382C47.9609 157.586 48.0256 157.982 47.8213 158.267C47.7778 158.328 44.5261 162.748 39.6627 162.749Z" fill="#2C3B51" fill-opacity="0.5"/>
<path d="M39.6649 158.354C37.9691 158.354 36.0783 157.817 34.0585 156.37C27.2228 151.475 22.5836 156.097 22.3899 156.296C22.145 156.547 21.7441 156.553 21.4933 156.309C21.2421 156.066 21.2354 155.666 21.4777 155.414C21.5327 155.357 27.0519 149.792 34.7969 155.339C41.5938 160.207 46.584 153.424 46.7933 153.132C46.9984 152.848 47.3951 152.783 47.6784 152.987C47.963 153.192 48.0277 153.588 47.8235 153.873C47.7799 153.933 44.5282 158.353 39.6649 158.354Z" fill="#2C3B51" fill-opacity="0.5"/>
<circle cx="89.7826" cy="344.131" r="32.5" fill="#E0DFD0" stroke="#F4F1DE" stroke-width="5"/>
<path d="M103.821 340.588L81.7193 331.39V330.26C81.7193 329.996 81.4803 329.782 81.1858 329.782C80.8912 329.782 80.6522 329.996 80.6522 330.26V331.695V347.478V348.913V358C80.6522 358.264 80.8912 358.478 81.1858 358.478C81.4803 358.478 81.7193 358.264 81.7193 358V349.238L103.792 341.466C103.991 341.396 104.124 341.227 104.13 341.036C104.137 340.844 104.015 340.668 103.821 340.588ZM81.7193 348.211V347.478V332.444L102.241 340.985L81.7193 348.211Z" fill="#868D91"/>
<circle cx="306.304" cy="344.131" r="32.5" fill="#E2DFD1" stroke="#F4F1DE" stroke-width="5"/>
<path d="M318.625 361.136H315.193L311.127 335.209H311.227C311.561 335.209 311.827 334.93 311.827 334.581V330.992C311.827 328.169 309.628 325.869 306.929 325.869C304.229 325.869 302.03 328.169 302.03 330.992V334.547C302.03 334.895 302.296 335.174 302.63 335.174H302.963L298.664 361.101H295.165V361.136C294.832 361.136 294.565 361.415 294.565 361.764C294.565 362.112 294.832 362.391 295.165 362.391H299.131H314.693H318.625C318.959 362.391 319.225 362.112 319.225 361.764C319.225 361.415 318.959 361.136 318.625 361.136ZM306.895 327.124C308.928 327.124 310.594 328.866 310.594 330.992V333.919H310.394H303.629H303.196V330.992H303.163C303.163 328.866 304.829 327.124 306.895 327.124ZM309.994 335.662C309.961 335.662 309.961 335.662 309.928 335.697L303.496 339.077L304.129 335.209H309.928L309.994 335.662ZM303.23 340.575L310.194 336.916L310.961 341.76L302.296 346.291L303.23 340.575ZM302.03 347.859L311.161 343.085L311.894 347.929L301.063 353.609L302.03 347.859ZM309.161 361.136H304.629V357.582C304.629 356.292 305.629 355.212 306.895 355.212C308.128 355.212 309.161 356.257 309.161 357.582V361.136V361.136ZM310.361 361.136V357.582C310.361 355.595 308.795 353.957 306.895 353.957C304.996 353.957 303.429 355.595 303.429 357.582V361.136H299.83L300.83 355.142L312.127 349.218L313.993 361.136H310.361Z" fill="#878D91"/>
<circle cx="356.522" cy="159.565" r="40.9783" fill="#F6B563" stroke="#F4F1DE" stroke-width="5"/>
<path d="M358.915 149.82C361.198 150.118 363.406 151.113 365.301 152.699C365.44 152.815 365.598 152.871 365.754 152.871C366.011 152.871 366.264 152.72 366.42 152.441C366.67 151.991 366.576 151.377 366.209 151.07C364.095 149.3 361.631 148.19 359.085 147.858C358.644 147.801 358.247 148.193 358.2 148.735C358.153 149.277 358.473 149.763 358.915 149.82Z" fill="#F4F1DE"/>
<path d="M357.359 144.508C357.82 144.508 358.195 144.131 358.195 143.666V140.331C358.195 139.866 357.82 139.489 357.359 139.489C356.896 139.489 356.522 139.866 356.522 140.331V143.666C356.522 144.131 356.896 144.508 357.359 144.508Z" fill="#F4F1DE"/>
<path d="M346.589 147.392C346.745 147.688 347.027 147.854 347.318 147.854C347.46 147.854 347.605 147.814 347.737 147.73C348.139 147.475 348.277 146.909 348.045 146.468L346.38 143.297C346.148 142.855 345.634 142.704 345.232 142.959C344.83 143.214 344.692 143.779 344.924 144.221L346.589 147.392Z" fill="#F4F1DE"/>
<path d="M336.909 152.769L340.079 154.434C340.225 154.51 340.384 154.546 340.54 154.546C340.86 154.546 341.17 154.396 341.342 154.126C341.597 153.724 341.445 153.21 341.003 152.977L337.833 151.313C337.391 151.081 336.826 151.218 336.571 151.62C336.316 152.023 336.467 152.537 336.909 152.769Z" fill="#F4F1DE"/>
<path d="M376.597 163.748C376.597 164.21 376.975 164.584 377.439 164.584H380.774C381.239 164.584 381.616 164.21 381.616 163.748C381.616 163.286 381.239 162.911 380.774 162.911H377.439C376.975 162.911 376.597 163.286 376.597 163.748Z" fill="#F4F1DE"/>
<path d="M333.942 164.584H337.277C337.742 164.584 338.119 164.21 338.119 163.748C338.119 163.286 337.742 162.911 337.277 162.911H333.942C333.477 162.911 333.1 163.286 333.1 163.748C333.1 164.21 333.477 164.584 333.942 164.584Z" fill="#F4F1DE"/>
<path d="M374.178 154.546C374.334 154.546 374.493 154.51 374.639 154.434L377.809 152.769C378.251 152.537 378.403 152.023 378.147 151.62C377.892 151.218 377.327 151.081 376.885 151.313L373.715 152.977C373.273 153.21 373.121 153.724 373.376 154.126C373.548 154.396 373.858 154.546 374.178 154.546Z" fill="#F4F1DE"/>
<path d="M366.98 147.73C367.113 147.814 367.257 147.854 367.4 147.854C367.69 147.854 367.973 147.688 368.128 147.392L369.793 144.221C370.025 143.779 369.887 143.214 369.485 142.959C369.084 142.704 368.57 142.855 368.337 143.297L366.673 146.468C366.441 146.91 366.578 147.475 366.98 147.73V147.73Z" fill="#F4F1DE"/>
<path d="M350.677 171.276H337.273C336.817 171.276 336.447 171.651 336.447 172.113C336.447 172.575 336.817 172.949 337.273 172.949H350.677C351.133 172.949 351.503 172.575 351.503 172.113C351.503 171.651 351.133 171.276 350.677 171.276Z" fill="#F4F1DE"/>
<path d="M370.802 174.622H362.318C361.889 174.622 361.541 174.997 361.541 175.459C361.541 175.921 361.889 176.295 362.318 176.295H370.802C371.231 176.295 371.579 175.921 371.579 175.459C371.579 174.997 371.232 174.622 370.802 174.622Z" fill="#F4F1DE"/>
<path d="M375.671 177.966H372.505C371.994 177.966 371.579 178.34 371.579 178.802C371.579 179.265 371.994 179.639 372.505 179.639H375.671C376.183 179.639 376.598 179.265 376.598 178.802C376.598 178.34 376.183 177.966 375.671 177.966Z" fill="#F4F1DE"/>
<path d="M384.147 167.916H372.465C372.754 166.671 372.902 165.392 372.902 164.099C372.902 160.043 371.453 156.154 368.823 153.148C368.522 152.803 368.006 152.777 367.672 153.089C367.338 153.401 367.312 153.933 367.614 154.278C369.973 156.974 371.271 160.462 371.271 164.099C371.271 165.396 371.108 166.677 370.785 167.916H350.645C350.195 167.916 349.83 168.293 349.83 168.758C349.83 169.224 350.195 169.601 350.645 169.601H384.147C384.598 169.601 384.963 169.224 384.963 168.758C384.963 168.293 384.598 167.916 384.147 167.916Z" fill="#F4F1DE"/>
<path d="M348.33 168.757C348.33 168.291 347.963 167.913 347.511 167.913H343.91C343.586 166.672 343.42 165.387 343.42 164.088C343.42 156.736 348.746 150.479 355.809 149.534C356.257 149.474 356.573 149.05 356.515 148.588C356.457 148.126 356.047 147.8 355.597 147.86C347.722 148.914 341.782 155.89 341.782 164.088C341.782 165.382 341.93 166.666 342.22 167.913H330.573C330.121 167.913 329.754 168.291 329.754 168.757C329.754 169.223 330.121 169.601 330.573 169.601H347.511C347.963 169.601 348.33 169.223 348.33 168.757Z" fill="#F4F1DE"/>
</svg>
