<svg width="375" height="388" viewBox="0 0 375 388" fill="none" xmlns="http://www.w3.org/2000/svg">
<path d="M370.406 296.554C414.053 264.76 399.869 188.209 383.723 146.648C373.178 136.415 376.79 134.224 388.471 120.796C407.589 98.8174 381.577 79.0358 360.154 80.7396C340.767 82.2815 323.999 91.9296 301.444 86.9505C288.154 84.0168 278.356 82.1035 269.45 73.2324C260.545 64.3614 249.394 42.6807 249.394 42.6807C249.394 42.6807 220.159 -18.9013 185.793 -42.9237C166.695 -56.2728 154.578 -64.0232 131.548 -68.135C101.72 -73.4604 79.9729 -64.7783 55.1682 -55.7287C15.1143 -41.1158 -40.7112 -9.39307 -3.28549 37.5251C13.7004 58.8192 37.0329 82.1718 19.1858 110.203C-3.9916 146.605 -17.9959 181.701 -4.93148 225.738C8.62249 271.425 53.985 322.436 100.194 337.122C136.618 348.698 164.061 307.641 189.457 287.723C220.984 262.998 259.009 267.815 291.706 289.218C315.793 304.984 344.573 315.37 370.406 296.554Z" fill="#CAC0DE"/>
<path d="M227.574 180.72L227.574 180.72L246.245 225.795L246.643 226.756L245.644 226.466L228.614 221.532L228.613 221.532C227.72 221.272 226.766 221.668 226.318 222.483L226.318 222.483L217.765 238.014L217.263 238.925L216.865 237.964L196.831 189.599L196.597 189.033L197.198 188.917C220.09 184.502 237.435 164.318 237.435 140.159C237.435 112.777 215.158 90.5 187.777 90.5C160.396 90.5 138.118 112.777 138.118 140.159C138.118 151.249 141.774 161.501 147.942 169.776L148.112 170.004L148.003 170.266L123.651 229.057C123.651 229.057 123.651 229.057 123.651 229.057C123.359 229.764 123.497 230.576 124.007 231.145L124.007 231.145C124.517 231.715 125.309 231.942 126.043 231.729L146.135 225.907L146.519 225.796L146.712 226.146L156.802 244.47C156.802 244.47 156.802 244.47 156.802 244.47C157.154 245.108 157.823 245.5 158.544 245.5C158.58 245.5 158.617 245.499 158.656 245.497M227.574 180.72L158.682 245.996M227.574 180.72C227.154 179.705 227.636 178.542 228.651 178.121C229.666 177.7 230.83 178.183 231.25 179.198L251.903 229.057C252.195 229.764 252.057 230.576 251.547 231.145C251.037 231.715 250.246 231.942 249.511 231.729L229.42 225.907L229.035 225.796L228.842 226.146L218.752 244.47L219.19 244.712L218.752 244.47C218.401 245.108 217.732 245.5 217.01 245.5C216.974 245.5 216.937 245.499 216.9 245.497L216.899 245.497C216.136 245.455 215.464 244.979 215.172 244.272L214.71 244.463L215.172 244.272L192.662 189.928L192.522 189.59L192.156 189.622C190.712 189.748 189.252 189.817 187.777 189.817C173.482 189.817 160.581 183.744 151.511 174.042L150.981 173.475L150.684 174.192L129.309 225.795L128.911 226.756L129.911 226.466L146.94 221.532L146.941 221.531C147.833 221.272 148.788 221.668 149.237 222.483L157.789 238.014L158.291 238.925L158.689 237.964L176.003 196.164L175.541 195.973M227.574 180.72L158.472 237.181M158.656 245.497C158.656 245.497 158.657 245.497 158.657 245.497L158.682 245.996M158.656 245.497C158.655 245.497 158.655 245.497 158.655 245.497L158.682 245.996M158.656 245.497C159.419 245.454 160.09 244.978 160.383 244.272L179.679 197.687C180.1 196.672 179.618 195.508 178.603 195.087C177.587 194.667 176.424 195.149 176.003 196.164L175.541 195.973M158.682 245.996C159.638 245.943 160.478 245.347 160.845 244.463L180.141 197.878C180.667 196.608 180.064 195.152 178.794 194.626C177.524 194.099 176.068 194.703 175.541 195.973M175.541 195.973L158.472 237.181M158.472 237.181L158.665 237.532L158.227 237.773L157.765 237.581L157.918 237.212M158.472 237.181L157.918 237.212M157.918 237.212L149.675 222.242C149.113 221.222 147.918 220.727 146.801 221.051L157.918 237.212ZM187.777 94.4787C162.589 94.4787 142.097 114.97 142.097 140.159C142.097 165.347 162.589 185.838 187.777 185.838C212.965 185.838 233.457 165.347 233.457 140.159C233.457 114.97 212.965 94.4787 187.777 94.4787Z" fill="#2C3B51" stroke="#CAC0DE"/>
<path d="M216.066 130.966L216.066 130.966C216.295 131.672 216.113 132.446 215.594 132.975C215.594 132.975 215.594 132.975 215.594 132.975L203.695 145.095L203.52 145.273L203.557 145.519L206.059 162.318C206.168 163.052 205.861 163.785 205.261 164.221C204.915 164.472 204.504 164.601 204.091 164.601C203.789 164.601 203.486 164.532 203.204 164.392L188.001 156.82L187.778 156.709L187.555 156.82L172.351 164.392C171.687 164.722 170.895 164.656 170.295 164.221C169.695 163.785 169.387 163.051 169.497 162.318L169.002 162.244L169.497 162.318L171.999 145.519L172.036 145.272L171.862 145.095L159.962 132.975L159.962 132.975C159.443 132.446 159.261 131.672 159.49 130.966C159.719 130.261 160.322 129.742 161.053 129.619L161.053 129.619L177.803 126.808L178.049 126.767L178.164 126.546L186.014 111.484C186.356 110.827 187.037 110.414 187.778 110.414C188.52 110.414 189.199 110.826 189.542 111.484L197.392 126.546L197.507 126.767L197.752 126.808L214.503 129.619C215.234 129.742 215.837 130.261 216.066 130.966ZM199.439 144.879L199.439 144.879C199.347 144.262 199.55 143.637 199.987 143.192C199.987 143.192 199.987 143.192 199.987 143.192L209.408 133.596L210.08 132.911L209.134 132.753L195.871 130.527L195.871 130.527C195.256 130.424 194.725 130.038 194.436 129.484L188.221 117.559L187.778 116.708L187.335 117.559L181.119 129.484L181.119 129.484C180.831 130.037 180.3 130.423 179.685 130.526L179.684 130.526L166.422 132.752L165.476 132.911L166.148 133.596L175.569 143.192L175.57 143.192C176.007 143.637 176.21 144.262 176.117 144.879L176.117 144.879L174.136 158.18L173.995 159.129L174.853 158.701L186.891 152.706L186.892 152.706C187.17 152.567 187.474 152.498 187.778 152.498C188.082 152.498 188.385 152.567 188.665 152.706L200.703 158.701L201.562 159.129L201.42 158.18L199.439 144.879Z" fill="#2C3B51" stroke="#CAC0DE"/>
<path d="M225.42 143.165L225.42 143.165C226.509 143.309 227.275 144.309 227.131 145.398C224.528 165.043 207.609 179.859 187.776 179.859C165.886 179.859 148.075 162.049 148.075 140.158C148.075 118.267 165.886 100.457 187.776 100.457C207.609 100.457 224.528 115.273 227.131 134.918L227.131 134.918C227.275 136.007 226.509 137.007 225.42 137.152L225.419 137.152C224.333 137.298 223.331 136.531 223.187 135.441L223.187 135.441C220.845 117.764 205.623 104.436 187.776 104.436C168.079 104.436 152.054 120.46 152.054 140.158C152.054 159.856 168.079 175.881 187.776 175.881C205.622 175.881 220.845 162.552 223.187 144.876L223.187 144.876C223.331 143.786 224.331 143.019 225.42 143.165Z" fill="#2C3B51" stroke="#CAC0DE"/>
</svg>
