<svg width="65" height="65" viewBox="0 0 65 65" fill="none" xmlns="http://www.w3.org/2000/svg">
<g clip-path="url(#clip0)">
<path d="M32.5 65C26.1077 65 19.945 63.1532 14.6363 59.6521L3.46592 63.123C3.01563 63.2628 2.52468 63.1418 2.19143 62.8086C1.85818 62.4748 1.73718 61.9844 1.87702 61.5341L5.3479 50.3637C1.84677 45.055 0 38.8923 0 32.5C0 23.8191 3.38062 15.6574 9.519 9.519C15.6574 3.38062 23.8191 0 32.5 0C41.1809 0 49.3426 3.38062 55.481 9.519C61.6194 15.6574 65 23.8191 65 32.5C65 41.1809 61.6194 49.3426 55.481 55.481C49.3426 61.6194 41.1809 65 32.5 65ZM14.8406 56.9896C15.094 56.9896 15.3455 57.0659 15.5592 57.2127C20.5575 60.6464 26.4157 62.4609 32.5 62.4609C49.0208 62.4609 62.4609 49.0208 62.4609 32.5C62.4609 15.9792 49.0208 2.53906 32.5 2.53906C15.9792 2.53906 2.53906 15.9792 2.53906 32.5C2.53906 38.5843 4.3536 44.4425 7.78728 49.4408C8.00697 49.7612 8.06847 50.1648 7.95292 50.5363L5.01762 59.9819L14.4637 57.0471C14.5872 57.0089 14.7142 56.9896 14.8406 56.9896Z" fill="#2C3B51"/>
<path d="M32.5 50.9082C32.2505 50.9082 32.0016 50.8348 31.7864 50.6885C31.6064 50.566 27.3296 47.6461 22.9815 43.6238C16.9676 38.0602 13.9182 33.2677 13.9182 29.3792C13.9182 22.6299 18.9859 17.1387 25.2151 17.1387C27.884 17.1387 30.4742 18.1761 32.5 20.0234C34.5258 18.1761 37.1159 17.1387 39.7844 17.1387C46.014 17.1387 51.0818 22.6299 51.0818 29.3792C51.0818 33.2677 48.0324 38.0602 42.018 43.6238C37.6703 47.6461 33.3936 50.566 33.2136 50.6885C32.9984 50.8348 32.7494 50.9082 32.5 50.9082ZM25.2156 19.6777C20.3859 19.6777 16.4573 24.0298 16.4573 29.3792C16.4573 35.4854 27.4288 44.5105 32.5 48.0934C37.5707 44.5085 48.5427 35.4799 48.5427 29.3792C48.5427 24.0298 44.6141 19.6777 39.7849 19.6777C37.3758 19.6777 35.1298 20.7405 33.4606 22.6706C33.2191 22.9498 32.8689 23.1099 32.5005 23.1099C32.1315 23.1099 31.7814 22.9498 31.5399 22.6706C29.8707 20.7405 27.6247 19.6777 25.2156 19.6777Z" fill="#2C3B51"/>
<path d="M32.5793 9.26758C32.5784 9.26758 32.5774 9.26758 32.5764 9.26758H32.5C31.7988 9.26758 31.2305 8.69926 31.2305 7.99805C31.2305 7.29683 31.7988 6.72852 32.5 6.72852H32.5823C33.2835 6.7305 33.8504 7.2998 33.8489 8.00102C33.8474 8.70125 33.2791 9.26758 32.5793 9.26758Z" fill="#2C3B51"/>
<path d="M49.8136 16.4319C49.4888 16.4319 49.164 16.3085 48.9165 16.061C45.6539 12.8029 41.5538 10.6085 37.0583 9.71434C36.3705 9.57746 35.9242 8.90898 36.0611 8.22165C36.1979 7.53382 36.8659 7.087 37.5537 7.22387C42.5426 8.21619 47.0921 10.6506 50.7107 14.2643C51.2067 14.7597 51.2072 15.5636 50.7117 16.0595C50.4638 16.308 50.1385 16.4319 49.8136 16.4319Z" fill="#2C3B51"/>
</g>
<defs>
<clipPath id="clip0">
<rect width="65" height="65" fill="white"/>
</clipPath>
</defs>
</svg>
