<svg width="43" height="45" viewBox="0 0 43 45" fill="none" xmlns="http://www.w3.org/2000/svg">
<path d="M33.6945 34.8249C35.097 33.282 36.1381 31.5947 36.8177 29.7525C37.493 27.9218 37.8047 25.9427 37.7582 23.8459C37.7115 21.7424 37.2519 19.7195 36.3783 17.7867C35.2581 15.3081 33.6377 13.2787 31.4954 11.6775C29.3654 10.085 26.9808 9.0999 24.3714 8.72094C21.7623 8.34182 19.1904 8.62198 16.7009 9.57815L15.158 6.16447L12.9301 12.3525L19.0259 14.7225L17.476 11.2932C19.117 10.6829 20.799 10.4144 22.5378 10.4696C24.2921 10.5254 25.9217 10.8737 27.4571 11.5126C28.9928 12.1514 30.3832 13.08 31.653 14.2907C32.9346 15.5125 33.9457 16.9338 34.6785 18.555C35.7001 20.8153 36.0905 23.1707 35.8485 25.5914C35.6052 28.0266 34.7857 30.2391 33.3921 32.2207C31.9988 34.202 30.1818 35.6993 27.941 36.7121C25.7001 37.7248 23.3598 38.1106 20.9365 37.8501C18.5282 37.591 16.326 36.74 14.3374 35.3136C12.3605 33.8955 10.8508 32.0459 9.82935 29.7859C8.9487 27.8374 8.55128 25.7644 8.63602 23.6047L6.72872 23.5844C6.67816 26.0667 7.15029 28.3875 8.12954 30.5542C9.0031 32.487 10.2174 34.1689 11.7654 35.5937C13.3086 37.0141 15.0027 38.0823 16.8362 38.7834C18.6697 39.4846 20.6223 39.8236 22.707 39.7909C24.7986 39.7575 26.8066 39.3085 28.723 38.4423C30.6391 37.5763 32.2878 36.3726 33.6945 34.8249Z" fill="#2C3B51"/>
<path d="M18.4821 30H17.2106V21.5713L14.6608 22.5078V21.3594L18.2838 19.999H18.4821V30ZM23.0482 25.0098L23.5541 20.0469H28.6537V21.2158H24.6273L24.3265 23.9297C24.8142 23.6426 25.3679 23.499 25.9877 23.499C26.8946 23.499 27.6146 23.7998 28.1478 24.4014C28.681 24.9984 28.9476 25.8073 28.9476 26.8281C28.9476 27.8535 28.6696 28.6624 28.1136 29.2549C27.5622 29.8428 26.7897 30.1367 25.7962 30.1367C24.9167 30.1367 24.1989 29.8929 23.6429 29.4053C23.0869 28.9176 22.7702 28.2432 22.6927 27.3818H23.889C23.9665 27.9515 24.1693 28.3822 24.4974 28.6738C24.8255 28.9609 25.2585 29.1045 25.7962 29.1045C26.3841 29.1045 26.8444 28.904 27.1771 28.5029C27.5143 28.1019 27.683 27.5482 27.683 26.8418C27.683 26.1764 27.5007 25.6432 27.1361 25.2422C26.7761 24.8366 26.2953 24.6338 25.6937 24.6338C25.1423 24.6338 24.7093 24.7546 24.3949 24.9961L24.0599 25.2695L23.0482 25.0098Z" fill="#2C3B51"/>
</svg>
