<svg width="45" height="46" viewBox="0 0 45 46" fill="none" xmlns="http://www.w3.org/2000/svg">
<path d="M27.7612 10.2545C25.2333 9.16545 22.6027 8.75234 19.9172 8.99938C17.2311 9.24654 14.7646 10.1212 12.5257 11.6216C10.2992 13.113 8.57925 15.063 7.36533 17.497C6.41854 19.3955 5.89419 21.4051 5.79111 23.5171C5.68831 25.6227 5.94443 27.6321 6.59294 29.5182C7.23797 31.3929 8.2607 33.1488 9.6631 34.7768C11.0607 36.3995 12.7322 37.6837 14.6746 38.6524C16.6173 39.6213 18.6641 40.1914 20.8014 40.3316C22.9452 40.4722 24.9614 40.2269 26.8485 39.6201C28.7593 39.0053 30.5205 38.007 32.1405 36.658C33.7656 35.305 35.0549 33.6769 36.0017 31.7785C37.0628 29.6508 37.6079 27.342 37.6212 24.8442L35.6645 24.7669C35.6948 26.9422 35.2328 29.0057 34.2785 30.9191C33.1715 33.1389 31.5794 34.928 29.5025 36.2599C27.4378 37.5841 25.1523 38.3194 22.6755 38.4565C20.1835 38.5941 17.7935 38.0861 15.5219 36.9532C13.2504 35.8203 11.426 34.2225 10.049 32.1594C8.67172 30.0962 7.88034 27.8305 7.69617 25.3848C7.51022 22.9243 7.98136 20.5762 9.08841 18.3564C9.88242 16.7643 10.9615 15.3922 12.2955 14.2403C13.6415 13.0777 15.0875 12.2108 16.6793 11.6475C18.2707 11.084 19.9435 10.8326 21.7441 10.8665C23.5289 10.9001 25.2468 11.2561 26.9137 11.9537L25.2419 15.3061L31.5405 13.2669L29.4333 6.90174L27.7612 10.2545Z" fill="#2C3B51"/>
<path d="M18.4821 30H17.2106V21.5713L14.6608 22.5078V21.3594L18.2838 19.999H18.4821V30ZM23.0482 25.0098L23.5541 20.0469H28.6537V21.2158H24.6273L24.3265 23.9297C24.8142 23.6426 25.3679 23.499 25.9877 23.499C26.8946 23.499 27.6146 23.7998 28.1478 24.4014C28.681 24.9984 28.9476 25.8073 28.9476 26.8281C28.9476 27.8535 28.6696 28.6624 28.1136 29.2549C27.5622 29.8428 26.7897 30.1367 25.7962 30.1367C24.9167 30.1367 24.1989 29.8929 23.6429 29.4053C23.0869 28.9176 22.7702 28.2432 22.6927 27.3818H23.889C23.9665 27.9515 24.1693 28.3822 24.4974 28.6738C24.8255 28.9609 25.2585 29.1045 25.7962 29.1045C26.3841 29.1045 26.8444 28.904 27.1771 28.5029C27.5143 28.1019 27.683 27.5482 27.683 26.8418C27.683 26.1764 27.5007 25.6432 27.1361 25.2422C26.7761 24.8366 26.2953 24.6338 25.6937 24.6338C25.1423 24.6338 24.7093 24.7546 24.3949 24.9961L24.0599 25.2695L23.0482 25.0098Z" fill="#2C3B51"/>
</svg>
