<svg width="208" height="223" viewBox="0 0 208 223" fill="none" xmlns="http://www.w3.org/2000/svg">
<path d="M57.7206 69.7129L9.02759 207.299C9.02759 222.247 22.6163 222.964 29.4107 221.454L156.805 151.812" stroke="#2C3B51" stroke-width="1.5"/>
<path d="M46.9628 100.855C54.5121 117.653 80.2552 154.984 122.833 169.932" stroke="#2C3B51" stroke-width="1.5"/>
<path d="M40.7346 118.406C47.3403 131.995 70.4034 164.042 107.546 178.989" stroke="#2C3B51" stroke-width="1.5"/>
<path d="M29.9768 149.547C32.8078 158.984 46.5098 181.141 78.6698 194.276" stroke="#2C3B51" stroke-width="1.5"/>
<path d="M23.7487 165.4C29.2219 174.46 45.6039 194.843 65.0811 201.637" stroke="#2C3B51" stroke-width="1.5"/>
<path d="M15.2557 189.748C17.1431 195.599 26.24 209.112 42.9994 214.095" stroke="#2C3B51" stroke-width="1.5"/>
<path d="M10.7262 202.77C12.0473 207.11 17.9735 217.604 31.1093 220.322" stroke="#2C3B51" stroke-width="1.5"/>
<path d="M156.577 151.371C156.049 151.989 155.229 152.408 154.051 152.575C152.867 152.743 151.37 152.648 149.576 152.275C145.989 151.528 141.372 149.7 136.027 146.922C125.349 141.37 111.915 132.103 98.2725 120.429C84.6296 108.755 73.3964 96.9158 66.2609 87.2242C62.6895 82.3735 60.1701 78.0947 58.8775 74.6663C58.2311 72.9518 57.9058 71.4869 57.889 70.2913C57.8722 69.102 58.1594 68.2266 58.6876 67.6093C59.2157 66.9921 60.0362 66.573 61.2138 66.4057C62.3976 66.2375 63.8951 66.3323 65.689 66.7059C69.276 67.4529 73.8929 69.2805 79.2375 72.0589C89.9158 77.6102 103.349 86.8778 116.992 98.5517C130.635 110.226 141.868 122.065 149.004 131.756C152.575 136.607 155.095 140.886 156.387 144.314C157.034 146.029 157.359 147.494 157.376 148.689C157.393 149.879 157.105 150.754 156.577 151.371Z" stroke="#2C3B51" stroke-width="1.5"/>
<path d="M192.476 110.481C158.504 106.404 123.966 122.371 110.943 130.864L120.002 137.092C147.18 121.239 179.642 118.785 192.476 119.54V110.481Z" stroke="#2C3B51" stroke-width="1.5"/>
<path d="M72.4416 38.5723C99.1661 42.1959 96.7881 90.6625 92.2585 114.443L85.4642 108.215C91.6924 47.0652 74.7064 55.5582 69.6106 48.7638C65.534 43.3283 69.7994 39.7047 72.4416 38.5723Z" stroke="#2C3B51" stroke-width="1.5"/>
<path d="M158.886 52.7284C158.886 55.5175 156.868 57.6404 154.54 57.6404C152.213 57.6404 150.195 55.5175 150.195 52.7284C150.195 49.9393 152.213 47.8164 154.54 47.8164C156.868 47.8164 158.886 49.9393 158.886 52.7284Z" stroke="#2C3B51" stroke-width="1.5"/>
<path d="M150.442 19.662C150.442 22.4511 148.424 24.574 146.096 24.574C143.768 24.574 141.75 22.4511 141.75 19.662C141.75 16.8729 143.768 14.75 146.096 14.75C148.424 14.75 150.442 16.8729 150.442 19.662Z" stroke="#2C3B51" stroke-width="1.5"/>
<path d="M112.458 81.0374C112.458 83.222 110.928 84.817 109.245 84.817C107.561 84.817 106.031 83.222 106.031 81.0374C106.031 78.8528 107.561 77.2578 109.245 77.2578C110.928 77.2578 112.458 78.8528 112.458 81.0374Z" stroke="#2C3B51" stroke-width="1.5"/>
<path d="M169.078 150.114C169.078 152.298 167.548 153.893 165.864 153.893C164.18 153.893 162.651 152.298 162.651 150.114C162.651 147.929 164.18 146.334 165.864 146.334C167.548 146.334 169.078 147.929 169.078 150.114Z" stroke="#2C3B51" stroke-width="1.5"/>
<path d="M131.48 105.985C129.616 103.422 129.814 99.8097 129.814 96.7265C129.814 92.2795 129.813 87.8704 130.165 83.4679C130.717 76.5731 136.789 73.9076 142.739 77.6535C145.755 79.5525 148.705 81.7435 151.738 83.6531C153.349 84.6675 154.738 85.7826 156.479 86.6529C157.441 87.1339 159.212 88.3195 160.312 88.3195C162.39 88.3195 164.601 88.5303 166.145 86.9863C167.578 85.5535 168.805 83.3076 167.811 81.3199" stroke="#2C3B51" stroke-width="1.5" stroke-linecap="round" stroke-linejoin="round"/>
<path d="M165.478 87.3189C163.416 83.7716 161.799 80.0581 160.478 76.1713C159.721 73.9404 158.897 71.4425 158.812 69.0606C158.732 66.8141 158.924 65.5779 160.33 64.172C163.662 60.8399 170.557 64.4002 174.144 64.9127C176.804 65.2927 180.388 65.9071 182.996 64.9868C185.735 64.0201 186.107 60.0513 186.107 57.6539C186.107 54.0762 185.064 50.6584 182.792 47.9322C181.62 46.5254 180.615 45.074 179.366 43.7287C178.628 42.9339 180.279 41.8091 180.811 41.3955C181.615 40.7701 185.425 37.0998 185.959 38.1365C187.513 41.1587 189.252 44.0701 190.643 47.173C193.239 52.9621 195.455 58.215 192.403 64.3202C190.098 68.9286 184.216 70.2239 179.514 68.9866C175.215 67.8551 170.265 67.32 165.811 67.32C161.53 67.32 164.207 72.53 165.478 74.2455C168.304 78.0604 172.144 80.5691 172.144 85.6338C172.144 91.152 165.065 92.771 160.923 91.1705C154.951 88.8633 149.575 85.5153 143.85 82.6525C140.106 80.7805 138.389 82.6366 138.48 86.7263C138.564 90.5187 138.77 94.3444 138.813 98.1701C138.837 100.324 139.362 102.338 139.794 104.429C140.033 105.58 140.501 106.276 139.294 106.966C137.639 107.912 135.708 106.984 133.98 106.984C132.514 106.984 131.805 107.276 131.48 105.651" stroke="#2C3B51" stroke-width="1.5" stroke-linecap="round" stroke-linejoin="round"/>
<path d="M24.6627 62.2851C23.2214 65.0013 21.6006 66.7798 18.9963 69.0255C15.5141 72.0282 11.1769 73.1328 8.64504 74.6363C6.11321 76.1398 4.54614 77.5881 4.66379 80.2841C4.7569 82.4178 6.04234 83.4042 7.51548 84.9505C11.6585 89.2993 22.6628 87.617 22.6628 87.617C22.6628 87.617 30.0279 86.3337 31.9956 89.4873C34.1772 92.9837 28.0699 99.283 28.0699 99.283C28.0699 99.283 21.1176 104.058 22.6628 107.616C23.2864 109.052 24.8491 110.098 25.4034 110.542C25.9576 110.985 27.9958 108.616 27.9958 108.616C27.9958 108.616 35.8138 97.1005 36.4953 94.1167C37.1769 91.1328 37.7652 87.6623 35.1435 85.469C33.6772 84.2423 30.4957 83.9321 30.4957 83.9321C30.4957 83.9321 26.582 83.5098 24.0701 83.2839C20.596 82.9715 18.663 82.6328 15.1632 82.6173C11.6634 82.6018 11.1737 84.1658 9.67688 82.6328C8.70329 81.6357 8.4419 80.5871 8.66352 79.2112C9.01543 77.0264 11.3518 77.0381 13.1633 75.7669C15.2439 74.3068 16.5203 73.6533 18.663 72.2857C20.4891 71.12 21.8037 70.0704 23.3294 69.2858C24.5188 68.6741 25.6912 67.8501 26.8106 67.1378C28.8195 65.8594 29.3469 63.3039 28.5883 60.8789C27.6185 57.7788 21.2554 56.9532 21.2554 56.9532C21.2554 56.9532 14.1689 57.2125 11.4967 54.3052C9.69287 52.3426 8.84454 50.615 8.99683 47.9537C9.25498 43.4426 14.8678 42.0027 17.663 40.2875M17.663 40.6212C14.2801 35.9698 7.9598 42.8063 7.9598 42.8063C7.9598 42.8063 -0.250938 50.6703 1.16389 56.4537C2.33547 61.2427 10.256 65.2124 10.256 65.2124C10.256 65.2124 16.3946 67.2864 19.3295 67.2864" stroke="#2C3B51" stroke-width="1.5" stroke-linecap="round" stroke-linejoin="round"/>
<path d="M99.2587 47.873C97.7488 48.8354 96.4248 49.9816 94.9764 50.9644C94.5606 51.2466 94.0458 51.3631 94.0135 51.978C93.8834 54.4486 97.7264 55.5661 98.3592 57.7807C98.7003 58.9747 102.629 55.2514 103.136 54.7147C103.448 54.3834 104.204 53.5827 103.997 53.1183C103.622 52.2734 102.888 51.9315 102.451 51.1672C101.883 50.1723 100.779 48.6332 99.7148 48.1011" stroke="#2C3B51" stroke-width="1.5" stroke-linecap="round" stroke-linejoin="round"/>
<path d="M47.4907 62.4707C45.4776 63.9397 43.3041 65.2637 41.5487 67.0191C41.2724 67.2954 40.4721 67.4916 40.5224 67.9947C40.5779 68.5498 42.1254 70.0884 42.4609 70.5413C43.6565 72.1553 45.2491 73.9531 46.7559 75.2924C47.6122 76.0536 50.2048 72.5177 50.6835 71.8716C51.2692 71.0808 52.4743 70.3993 52.7486 69.439C52.928 68.8113 51.6496 67.5473 51.2409 66.9051C50.7039 66.0612 49.8499 65.3945 49.3658 64.5232C48.9678 63.8067 47.9396 63.1332 47.7188 62.4707" stroke="#2C3B51" stroke-width="1.5" stroke-linecap="round" stroke-linejoin="round"/>
<path d="M68.5076 56.0059C65.6175 57.2042 64.6911 59.0066 66.6495 61.5245C67.5414 62.6713 69.6941 63.2826 71.1833 62.6208C73.059 61.7871 73.2119 60.2014 72.837 58.5143C72.3614 56.3741 69.886 56.3403 68.1731 56.3403" stroke="#2C3B51" stroke-width="1.5" stroke-linecap="round" stroke-linejoin="round"/>
<path d="M113.884 66.9319C112.732 67.206 112.39 68.1906 113.273 69.0244C113.676 69.4052 114.625 69.449 115.054 69.1149C116.208 68.2172 115.392 67.0307 114.189 66.8301" stroke="#2C3B51" stroke-width="1.5" stroke-linecap="round" stroke-linejoin="round"/>
<path d="M119.177 89.0229C118.684 89.6934 118.537 90.7879 119.177 91.466C119.452 91.7565 120.422 91.5909 120.653 91.3077C120.915 90.9876 121.434 90.0143 120.959 89.6337C120.771 89.4837 120.63 89.3103 120.45 89.1699C120.169 88.9515 119.832 89.0229 119.483 89.0229" stroke="#2C3B51" stroke-width="1.5" stroke-linecap="round" stroke-linejoin="round"/>
<path d="M60.8395 45.4485C60.4989 45.7065 60.2344 45.8425 60.2344 46.2746C60.2344 46.7918 60.3548 47.1644 60.7531 47.5185C61.2823 47.9889 62.1914 48.3598 62.5877 47.5233C62.7322 47.2182 62.941 46.3171 62.6117 46.0537C62.4065 45.8895 62.3036 45.6811 62.0498 45.5542C61.4757 45.2671 61.0612 45.4161 60.4073 45.535" stroke="#2C3B51" stroke-width="1.5" stroke-linecap="round" stroke-linejoin="round"/>
<path d="M52.5406 55.9073C52.2619 56.3834 52.1606 56.7376 52.5886 57.1656C52.9535 57.5305 52.9441 57.7227 53.4915 57.7227C53.8662 57.7227 54.386 57.7062 54.7354 57.545C55.1733 57.3428 55.3069 56.5842 55.3069 56.1666C55.3069 55.8036 55.1456 55.3707 54.8266 55.1677C54.6578 55.0602 54.1899 54.6605 53.991 54.7162C53.8099 54.7669 53.4092 54.8754 53.2802 55.0044C53.1936 55.0909 53.1153 55.1395 53.0208 55.2205C52.8894 55.3332 52.9584 55.8137 52.8864 55.9937" stroke="#2C3B51" stroke-width="1.5" stroke-linecap="round" stroke-linejoin="round"/>
<path d="M105.677 23.744C106.184 20.6567 105.142 18.9187 101.969 19.2538C100.525 19.4065 98.8694 20.9126 98.6459 22.5268C98.3644 24.56 99.6307 25.5266 101.262 26.0983C103.331 26.8235 104.666 24.7384 105.569 23.2834" stroke="#2C3B51" stroke-width="1.5" stroke-linecap="round" stroke-linejoin="round"/>
<path d="M118.691 22.8008C118.651 22.3754 118.676 22.0789 118.308 21.8509C117.869 21.578 117.489 21.4837 116.978 21.6353C116.299 21.8366 115.505 22.4132 116.006 23.1912C116.189 23.4749 116.844 24.1277 117.242 23.987C117.489 23.8993 117.721 23.9219 117.963 23.7732C118.509 23.437 118.602 23.0063 118.846 22.388" stroke="#2C3B51" stroke-width="1.5" stroke-linecap="round" stroke-linejoin="round"/>
<path d="M114.185 10.234C113.928 9.746 113.68 9.47312 113.091 9.61087C112.588 9.72832 112.43 9.6189 112.141 10.0839C111.944 10.4022 111.683 10.8525 111.636 11.2343C111.577 11.713 112.151 12.2268 112.505 12.4471C112.814 12.6386 113.266 12.73 113.607 12.5662C113.788 12.4794 114.374 12.2928 114.432 12.0945C114.484 11.9139 114.603 11.5163 114.562 11.3386C114.534 11.2195 114.534 11.1273 114.515 11.0043C114.489 10.8332 114.044 10.6383 113.929 10.4821" stroke="#2C3B51" stroke-width="1.5" stroke-linecap="round" stroke-linejoin="round"/>
<path d="M166.217 47.1602C165.374 47.7803 164.905 48.2801 165.455 49.2702C165.819 49.9249 166.679 49.9709 167.213 49.6658C168.44 48.9652 167.726 47.1602 166.481 47.1602" stroke="#2C3B51" stroke-width="1.5" stroke-linecap="round" stroke-linejoin="round"/>
<path d="M146.541 64.5137C145.969 64.7366 144.653 65.3114 145.14 66.2322C145.358 66.6429 146.109 67.1955 146.612 67.0836C147.184 66.9564 147.691 66.6033 147.822 66.0174C147.899 65.6689 147.335 64.9433 146.97 64.9433" stroke="#2C3B51" stroke-width="1.5" stroke-linecap="round" stroke-linejoin="round"/>
<path d="M21.8303 129.715C20.3438 132.231 18.8573 134.746 17.3707 137.262" stroke="#2C3B51" stroke-width="1.5" stroke-linecap="round" stroke-linejoin="round"/>
<path d="M17.3707 137.949C20.0701 139.068 21.6301 141.032 24.2316 142.333C26.5682 143.501 27.4845 139.715 28.272 138.14C28.6718 137.34 30.0362 135.911 29.5488 135.033C29.0857 134.2 28.3427 133.027 27.5096 132.537C25.74 131.496 24.1528 130.464 22.5164 129.373" stroke="#2C3B51" stroke-width="1.5" stroke-linecap="round" stroke-linejoin="round"/>
<path d="M170.712 178.084C165.669 178.207 165.27 184.602 170.369 184.602C173.574 184.602 174.264 178.427 171.055 178.427" stroke="#2C3B51" stroke-width="1.5" stroke-linecap="round" stroke-linejoin="round"/>
<path d="M174.156 169.452C173.851 169.768 173.615 169.984 173.749 170.425C173.889 170.885 174.25 171.295 174.727 171.448C175.507 171.699 176.081 171.032 176.081 170.323C176.081 169.345 175.14 168.734 174.248 169.269" stroke="#2C3B51" stroke-width="1.5" stroke-linecap="round" stroke-linejoin="round"/>
<path d="M156.377 186.316C156.063 186.629 155.539 186.892 155.552 187.365C155.564 187.797 155.891 187.963 156.107 188.286C156.563 188.971 158.042 188.858 158.337 188.103C158.534 187.599 158.499 186.995 158.118 186.591C157.502 185.938 157.228 185.949 156.377 186.408" stroke="#2C3B51" stroke-width="1.5" stroke-linecap="round" stroke-linejoin="round"/>
<path d="M176.502 196.125C174.633 197.029 172.716 198.111 170.768 198.841C170.427 198.969 168.381 199.532 168.435 199.885C168.554 200.661 169.202 201.296 169.609 201.933C170.462 203.265 171.267 204.55 171.804 206.044C172.03 206.674 172.183 207.945 172.717 208.425C172.999 208.679 174.159 208.088 174.479 207.985C176.062 207.476 177.591 206.802 179.03 205.962C179.598 205.631 181.683 205.019 181.192 204.119C180.567 202.973 179.751 201.868 179.226 200.668C178.911 199.949 178.105 196.125 177.236 196.125" stroke="#2C3B51" stroke-width="1.5" stroke-linecap="round" stroke-linejoin="round"/>
<path d="M191.184 190.252C188.589 191.328 188.421 194.153 190.221 196.116C190.947 196.909 191.831 197.006 192.864 197.006C194.2 197.006 194.711 196.126 195.23 195.015C195.547 194.334 195.442 193.551 195.442 192.813C195.442 192.065 194.761 191.508 194.267 190.986C193.227 189.885 191.957 189.798 190.597 190.252" stroke="#2C3B51" stroke-width="1.5" stroke-linecap="round" stroke-linejoin="round"/>
<path d="M198.378 185.406C196.919 187.473 200.58 188.464 200.58 186.434C200.58 185.911 200.71 185.197 199.993 185.113C199.73 185.082 199.483 184.761 199.186 184.827C198.802 184.913 198.506 185.131 198.231 185.406" stroke="#2C3B51" stroke-width="1.5" stroke-linecap="round" stroke-linejoin="round"/>
<path d="M201.902 203.465C199.472 205.305 203.561 206.752 203.949 205.006C204.395 203 202.198 203.465 200.874 203.465" stroke="#2C3B51" stroke-width="1.5" stroke-linecap="round" stroke-linejoin="round"/>
<path d="M135.245 176.155C134.207 176.792 133.267 177.564 132.243 178.219C131.509 178.689 130.646 179.286 130.033 179.899C128.986 180.947 129.069 181.636 130.106 182.762C130.716 183.425 131.259 184.366 131.795 185.112C132.21 185.689 132.661 186.187 133.157 186.694C133.511 187.056 133.668 187.518 133.989 187.885C134.835 188.852 137.164 187.231 137.888 186.588C138.29 186.23 142.319 183.398 142.113 183.089C141.371 181.976 140.77 180.778 140.009 179.671C139.19 178.481 138.146 177.546 137.415 176.302C136.957 175.525 135.788 175.914 135.245 176.302" stroke="#2C3B51" stroke-width="1.5" stroke-linecap="round" stroke-linejoin="round"/>
<path d="M115.424 195.097C115.036 196.026 114.458 197.181 115.579 197.952C116.316 198.458 116.983 198.889 117.92 198.914C119.641 198.959 120.312 197.231 120.114 195.749C119.939 194.43 118.323 193.775 117.113 193.775C115.995 193.775 115.327 194.851 115.131 195.831" stroke="#2C3B51" stroke-width="1.5" stroke-linecap="round" stroke-linejoin="round"/>
<path d="M129.813 198.768C128.891 198.783 127.681 199.042 128.344 200.203C128.529 200.527 129.127 201.824 129.739 201.484C130.782 200.905 130.531 200.204 130.106 199.355" stroke="#2C3B51" stroke-width="1.5" stroke-linecap="round" stroke-linejoin="round"/>
<path d="M186.985 156.297C185.456 156.671 183.993 157.457 182.556 158.09C181.821 158.414 180.574 158.878 179.985 159.408C179.849 159.531 179.099 160.042 179.099 160.229C179.099 160.8 179.737 161.633 179.985 162.13C180.932 164.024 181.742 166.042 182.902 167.812C183.668 168.982 184.838 168.435 185.916 167.855C187.466 167.021 188.9 166.034 190.485 165.241C190.935 165.016 192.041 164.783 192.041 164.172C192.041 163.482 191.645 163.024 191.36 162.422C190.856 161.358 190.052 160.398 189.416 159.408C188.762 158.392 188.241 157.306 187.569 156.297" stroke="#2C3B51" stroke-width="1.5" stroke-linecap="round" stroke-linejoin="round"/>
<path d="M165.886 1C164.356 1.37387 162.894 2.15982 161.457 2.79319C160.721 3.11738 159.475 3.58088 158.886 4.11107C158.749 4.23387 158 4.74472 158 4.93205C158 5.50267 158.637 6.33613 158.886 6.83326C159.833 8.72751 160.642 10.7448 161.802 12.5153C162.569 13.6851 163.739 13.1386 164.816 12.5585C166.366 11.7239 167.801 10.7368 169.386 9.94433C169.835 9.71952 170.941 9.48591 170.941 8.8749C170.941 8.18498 170.546 7.72712 170.261 7.12493C169.757 6.06065 168.952 5.10076 168.316 4.11107C167.663 3.09489 167.142 2.00903 166.469 1" stroke="#2C3B51" stroke-width="1.5" stroke-linecap="round" stroke-linejoin="round"/>
<path d="M203.124 151.436C202.387 151.972 201.568 152.356 201.568 153.391C201.568 154.168 201.789 154.799 202.346 155.325C203.275 156.202 204.643 156.339 205.738 155.714C206.703 155.162 206.386 153.672 206.041 152.894C205.33 151.295 203.857 151.199 202.346 151.63" stroke="#2C3B51" stroke-width="1.5" stroke-linecap="round" stroke-linejoin="round"/>
<path d="M194.763 144.826C194.446 145.656 193.952 147.271 195.346 147.353C196.318 147.41 196.614 147.281 197.193 146.586C197.512 146.204 197.331 144.888 196.988 144.545C196.186 143.742 195.205 144.737 194.568 145.214" stroke="#2C3B51" stroke-width="1.5" stroke-linecap="round" stroke-linejoin="round"/>
</svg>
